<svg width="230" height="230" viewBox="0 0 230 230" fill="none" xmlns="http://www.w3.org/2000/svg">
<g clip-path="url(#clip0_618_313)">
<path d="M114.916 229.832C178.382 229.832 229.832 178.382 229.832 114.916C229.832 51.4497 178.382 0 114.916 0C51.4497 0 0 51.4497 0 114.916C0 178.382 51.4497 229.832 114.916 229.832Z" fill="url(#paint0_linear_618_313)"/>
<path d="M228.867 129.522C216.192 123.982 199.739 121.338 189.414 125.199C179.761 128.808 181.314 135.985 171.409 138.965C155.418 143.75 144.338 127.172 120.54 127.927C99.3448 128.641 91.9999 142.281 76.009 138.965C66.02 136.867 64.1313 130.571 57.0382 126.122C45.1185 118.651 22.2444 118.735 0.293701 122.974C2.3083 151.724 14.8576 177.578 34.1641 196.633C55.863 200.662 79.4926 202.803 102.493 201.922C142.952 200.411 183.916 189.582 211.785 176.655C220.724 162.721 226.684 146.73 228.867 129.522Z" fill="url(#paint1_linear_618_313)"/>
<path d="M186.14 211.113C186.14 211.869 158.608 212.456 124.653 212.456C90.6989 212.456 63.166 211.869 63.166 211.113C63.166 210.358 90.6989 209.77 124.653 209.77C158.608 209.77 186.14 210.4 186.14 211.113Z" fill="#D0DFF3"/>
<path d="M178.712 65.3486H150.927C149.29 65.3486 147.821 64.761 146.688 63.7956C145.261 62.5785 144.38 60.7738 144.38 58.7592C144.38 56.9544 145.135 55.3175 146.31 54.1004C147.485 52.9252 149.164 52.1697 150.969 52.1697H178.754C180.558 52.1697 182.195 52.9252 183.412 54.1004C184.588 55.2756 185.343 56.9544 185.343 58.7592C185.343 60.5639 184.588 62.2008 183.412 63.4179C182.153 64.5931 180.516 65.3486 178.712 65.3486Z" fill="#D8E2F4"/>
<path d="M172.146 56.6049C173.425 51.2381 170.111 45.8509 164.745 44.5721C159.378 43.2933 153.99 46.6072 152.712 51.9739C151.433 57.3407 154.747 62.728 160.114 64.0067C165.48 65.2855 170.868 61.9716 172.146 56.6049Z" fill="#D8E2F4"/>
<path d="M60.7736 49.3996H19.978C17.2919 49.3996 14.8995 48.3084 13.1368 46.5876C11.374 44.8248 10.3247 42.4325 10.3247 39.7464C10.3247 37.8577 10.8703 36.0529 11.8357 34.584C13.5565 31.8978 16.5784 30.0931 19.978 30.0931H60.7316C63.4178 30.0931 65.8101 31.1843 67.5729 32.9051C69.3357 34.6679 70.3849 37.0602 70.3849 39.7464C70.3849 42.2226 69.4616 44.4891 67.9086 46.2099C66.1878 48.1825 63.6276 49.3996 60.7736 49.3996Z" fill="white"/>
<path d="M36.8502 47.8467C44.94 47.8467 51.498 41.2887 51.498 33.1989C51.498 25.1091 44.94 18.5511 36.8502 18.5511C28.7604 18.5511 22.2024 25.1091 22.2024 33.1989C22.2024 41.2887 28.7604 47.8467 36.8502 47.8467Z" fill="white"/>
<path d="M134.055 211.071H86.7534C80.164 211.071 74.8337 205.741 74.8337 199.151V79.6606C74.8337 73.0711 80.164 67.7408 86.7534 67.7408H134.055C140.644 67.7408 145.974 73.0711 145.974 79.6606V199.109C145.974 205.741 140.644 211.071 134.055 211.071Z" fill="white"/>
<path d="M134.055 212.33H86.7535C79.4926 212.33 73.5747 206.412 73.5747 199.151V79.6606C73.5747 72.3996 79.4926 66.4818 86.7535 66.4818H134.055C141.316 66.4818 147.233 72.3996 147.233 79.6606V199.109C147.233 206.412 141.316 212.33 134.055 212.33ZM86.7535 69C80.8776 69 76.093 73.7847 76.093 79.6606V199.109C76.093 204.985 80.8776 209.77 86.7535 209.77H134.055C139.931 209.77 144.715 204.985 144.715 199.109V79.6606C144.715 73.7847 139.931 69 134.055 69H86.7535Z" fill="#E0E9F3"/>
<path d="M133.467 204.608H87.3412C86.6277 204.608 86.082 204.062 86.082 203.349C86.082 202.635 86.6277 202.089 87.3412 202.089H133.467C134.181 202.089 134.726 202.635 134.726 203.349C134.726 204.02 134.181 204.608 133.467 204.608Z" fill="#E0E9F3"/>
<path d="M87.1731 77.4361C87.1731 78.7372 86.1239 79.7865 84.8228 79.7865C83.5217 79.7865 82.4724 78.7372 82.4724 77.4361C82.4724 76.135 83.5217 75.0858 84.8228 75.0858C86.1239 75.0858 87.1731 76.177 87.1731 77.4361Z" fill="#E0E9F3"/>
<path d="M99.3868 118.819C102.157 115.881 105.934 114.412 110.761 114.412C115.21 114.412 118.819 115.672 121.505 118.19C124.192 120.708 125.535 123.94 125.535 127.843C125.535 130.235 125.031 132.124 124.066 133.635C123.1 135.104 121.086 137.286 118.064 140.141C115.881 142.239 114.454 144.002 113.783 145.429C113.111 146.856 112.776 148.996 112.776 151.808H106.816C106.816 148.619 107.193 146.016 107.949 144.086C108.704 142.113 110.383 139.889 113.027 137.37L115.755 134.726C116.595 133.971 117.224 133.173 117.77 132.334C118.693 130.865 119.155 129.354 119.155 127.801C119.155 125.619 118.484 123.688 117.14 122.093C115.797 120.498 113.573 119.659 110.509 119.659C106.69 119.659 104.046 121.044 102.577 123.814C101.737 125.367 101.276 127.591 101.192 130.487H95.2737C95.2737 125.661 96.6587 121.757 99.3868 118.819ZM106.69 157.391H113.363V164.358H106.69V157.391Z" fill="#50C6A1"/>
<path d="M71.77 211.113C71.77 211.869 67.6988 212.456 62.6624 212.456C57.6259 212.456 53.5547 211.869 53.5547 211.113C53.5547 210.358 57.6259 209.77 62.6624 209.77C67.6988 209.77 71.77 210.4 71.77 211.113Z" fill="#D0DFF3"/>
<path d="M50.365 170.485C50.0292 172.08 51.9599 172.416 52.2956 174.641C52.6314 176.865 51.6661 177.495 51.9599 178.796C52.2956 180.055 54.1843 180.39 54.5201 183.58C54.8558 186.77 53.5548 186.434 53.8905 188.365C54.2263 190.296 56.115 190.296 56.4507 191.891C56.7865 193.485 56.7865 195.71 57.4161 197.64C58.0456 199.571 59.9763 202.425 60.9416 202.425C61.9069 202.425 64.4672 197.011 63.7956 195.416C63.1661 193.821 62.2007 193.485 62.2007 192.226C62.2007 190.967 63.4599 187.777 63.1661 185.553C62.8303 183.328 59.9763 182.363 59.6405 180.768C59.3048 179.173 60.2701 175.018 58.0456 173.13C55.7792 171.115 50.6588 168.891 50.365 170.485Z" fill="#3FB790"/>
<path d="M60.7318 201.796C60.6479 201.796 60.564 201.712 60.564 201.628C60.564 201.586 60.522 197.431 59.3048 196.213C58.0877 194.996 57.3742 191.219 57.0384 184C56.7446 177.453 52.0439 172.038 51.9599 171.996C51.918 171.912 51.918 171.828 51.9599 171.786C52.0439 171.745 52.1278 171.745 52.1698 171.786C52.2118 171.828 56.9964 177.327 57.2902 184C57.626 191.051 58.3395 194.87 59.4727 196.004C60.7738 197.305 60.8158 201.46 60.8158 201.628C60.8578 201.712 60.8158 201.796 60.7318 201.796Z" fill="#34916F"/>
<path d="M79.5348 175.312C80.668 176.445 76.9746 176.907 76.6808 179.131C76.345 181.356 76.345 182.321 75.0859 183.58C73.8268 184.839 71.8961 185.175 72.2319 187.106C72.5676 189.036 73.1972 190.925 72.2319 191.891C71.2665 192.856 69.0421 192.856 68.4125 194.451C67.783 196.046 68.0768 197.976 66.8176 199.529C65.5585 201.124 63.6278 204.314 62.033 203.684C60.4381 203.055 61.4034 195.71 62.033 194.451C62.6625 193.192 63.2921 192.226 63.2921 191.261C63.2921 190.296 62.9563 188.701 63.6279 187.106C64.2574 185.511 67.783 184.881 68.0768 183.916C68.4125 182.951 68.7063 177.872 70.637 176.571C72.5257 175.312 77.6041 173.381 79.5348 175.312Z" fill="#4FC7A0"/>
<path d="M62.4945 203.097C62.4526 203.097 62.4526 203.097 62.4106 203.055C62.3267 203.013 62.3267 202.929 62.3686 202.845C62.3686 202.803 63.6697 200.704 63.9216 199.613C64.0055 199.319 64.0894 198.9 64.1734 198.438C64.5091 196.675 65.0548 193.989 65.8942 193.192C67.0694 192.016 69 188.365 70.3011 183.706C71.938 177.956 77.3522 176.277 77.4361 176.277C77.5201 176.235 77.604 176.319 77.646 176.403C77.688 176.487 77.604 176.571 77.5201 176.613C77.4781 176.613 72.1898 178.25 70.6369 183.832C69.2938 188.533 67.3632 192.226 66.146 193.443C65.3905 194.199 64.8449 196.927 64.5091 198.522C64.4252 199.026 64.3413 199.445 64.2573 199.739C63.9635 200.872 62.7044 202.971 62.6624 203.055C62.5785 203.097 62.5365 203.097 62.4945 203.097Z" fill="#3FB690"/>
<path d="M62.0749 178.963C58.2556 179.299 59.5147 190.757 59.5147 190.757C60.48 200.62 61.7392 205.111 62.7045 205.405C63.6698 205.741 65.5585 191.387 65.5585 187.861C65.6005 187.861 65.8943 178.628 62.0749 178.963Z" fill="#90DAD8"/>
<path d="M62.5366 203.81C62.4107 203.81 62.3687 203.726 62.3687 203.642C63.6279 193.276 62.0749 180.223 62.033 180.097C62.033 180.013 62.0749 179.929 62.1589 179.929C62.2428 179.929 62.3268 179.971 62.3268 180.055C62.3268 180.181 63.9216 193.276 62.6625 203.684C62.7045 203.726 62.6205 203.81 62.5366 203.81Z" fill="white"/>
<path d="M67.3212 211.071H57.6259C57.2902 211.071 57.0383 210.861 56.9964 210.609L55.5694 200.536C55.4854 200.075 55.8632 199.697 56.3248 199.697H68.6223C69.084 199.697 69.4197 200.117 69.3778 200.536L67.9508 210.609C67.9088 210.861 67.615 211.071 67.3212 211.071Z" fill="#D0DAED"/>
<path d="M161.462 209.141H165.365V188.365V186.476V171.661H167.254V186.476H170.192V171.661H172.08V186.476V188.365H170.192H167.254V209.141H171.157C171.703 209.141 172.122 209.56 172.122 210.106C172.122 210.651 171.703 211.071 171.157 211.071H167.254H165.365H161.462C160.916 211.071 160.496 210.651 160.496 210.106C160.496 209.56 160.916 209.141 161.462 209.141Z" fill="#3FB790"/>
<path d="M168.513 163.518C176.823 163.518 183.538 165.071 183.538 167.002V168.891C183.538 170.821 176.823 172.374 168.513 172.374C160.203 172.374 153.487 170.821 153.487 168.891V167.002C153.487 165.071 160.203 163.518 168.513 163.518Z" fill="#50C6A1"/>
<path opacity="0.1" d="M149.199 117.243C151.754 112.406 149.904 106.413 145.067 103.858C140.23 101.303 134.238 103.152 131.683 107.989C129.127 112.826 130.977 118.819 135.814 121.374C140.651 123.929 146.644 122.08 149.199 117.243Z" fill="white"/>
<path opacity="0.17" d="M146.688 109.586C146.31 109.586 146.016 109.376 145.89 108.998C145.555 107.865 144.757 106.942 143.708 106.396C142.659 105.85 141.484 105.724 140.35 106.102C139.889 106.228 139.427 105.976 139.301 105.557C139.175 105.095 139.427 104.633 139.847 104.507C141.4 104.004 143.036 104.172 144.505 104.927C145.932 105.682 147.024 106.942 147.485 108.495C147.611 108.956 147.359 109.418 146.94 109.544C146.856 109.544 146.772 109.586 146.688 109.586Z" fill="#50C6A1"/>
<path d="M136.909 101.276C130.655 103.248 127.172 109.88 129.144 116.133C131.117 122.387 137.748 125.87 144.002 123.898C150.256 121.925 153.739 115.294 151.766 109.04C149.794 102.828 143.162 99.3449 136.909 101.276ZM143.414 122.051C138.21 123.688 132.628 120.792 130.991 115.546C129.354 110.341 132.25 104.759 137.496 103.122C142.701 101.485 148.283 104.381 149.92 109.628C151.515 114.874 148.619 120.414 143.414 122.051Z" fill="#D0DAED"/>
<path d="M144.868 123.25L142.905 123.863L145.709 132.837L147.672 132.224L144.868 123.25Z" fill="#D0DAED"/>
<path d="M151.682 148.619C150.423 148.996 149.08 148.325 148.703 147.066L144.38 133.299C144.17 132.628 144.547 131.914 145.219 131.704L147.359 131.033C148.031 130.823 148.745 131.201 148.954 131.872L153.277 145.639C153.655 146.898 152.942 148.241 151.682 148.619Z" fill="url(#paint2_linear_618_313)"/>
<path d="M152.522 142.575C152.522 142.575 148.073 139.847 146.73 138.42C145.387 136.993 144.841 136.363 145.177 136.069C145.513 135.776 149.248 137.412 149.626 137.161C150.003 136.909 149.668 136.195 150.087 135.859C150.507 135.566 152.899 138.042 153.487 137.832C154.075 137.664 153.193 142.113 152.522 142.575Z" fill="#FFAA9D"/>
<path d="M134.852 193.527L131.578 196.675L123.352 189.037L126.038 184.63L134.852 193.527Z" fill="#FFAA9D"/>
<path d="M132.082 196.213C132.082 196.213 129.816 199.067 129.396 199.067C128.976 199.067 119.449 188.785 119.533 188.449C119.575 188.113 123.73 188.491 123.73 188.491L132.082 196.213Z" fill="url(#paint3_linear_618_313)"/>
<path d="M125.535 184.168C125.535 184.168 135.062 194.115 135.44 194.115C135.818 194.115 181.272 159.195 181.272 159.195L162.007 150.675C162.007 150.675 137.538 157.39 125.535 184.168Z" fill="url(#paint4_linear_618_313)"/>
<path d="M168.723 187.148L170.317 191.387L160.077 195.962L157.097 191.723L168.723 187.148Z" fill="#FFAA9D"/>
<path d="M160.496 150.675C160.496 150.675 144.421 154.033 142.994 159.489C141.609 164.945 142.868 170.905 147.317 177.872C151.766 184.839 156.257 192.436 157.181 192.688C157.181 192.688 169.1 187.903 169.352 187.316C169.604 186.728 162.679 170.318 162.679 170.318C162.679 170.318 176.823 169.394 180.139 161.042L160.496 150.675Z" fill="url(#paint5_linear_618_313)"/>
<path d="M159.405 150.591C159.279 151.557 176.823 162.553 179.929 162.007C183.035 161.462 187.064 148.619 185.931 139.049C184.797 129.48 176.235 122.261 172.332 122.597C168.429 122.932 166.33 126.584 165.785 132.46C164.987 141.022 159.531 149.542 159.405 150.591Z" fill="url(#paint6_linear_618_313)"/>
<path d="M174.095 124.108C176.151 123.94 183.286 128.095 184.965 140.434C186.644 152.774 179.803 153.823 174.095 153.026C168.387 152.228 153.949 145.177 151.85 142.617C151.85 142.617 151.389 138.63 152.942 137.245C152.942 137.245 166.834 138.672 170.443 139.721C174.053 140.812 166.246 124.779 174.095 124.108Z" fill="url(#paint7_linear_618_313)"/>
<path d="M170.108 190.757C170.108 190.757 171.828 193.947 171.661 194.367C171.493 194.745 158.272 199.445 158.02 199.277C157.726 199.109 159.699 195.416 159.699 195.416L170.108 190.757Z" fill="url(#paint8_linear_618_313)"/>
<path d="M162.469 116.091L162.385 120.498H163.057C163.057 120.498 163.602 124.15 166.162 123.562C166.918 123.394 167.841 122.765 168.135 122.891C168.471 123.058 168.597 124.024 168.681 124.318C168.974 125.409 172.836 124.318 172.206 123.184C171.619 122.093 170.737 120.624 170.905 120.246C171.577 118.819 171.745 115.294 168.177 114.119C165.323 113.153 162.469 114.58 162.469 116.091Z" fill="#FFAA9D"/>
<path d="M172.164 123.184C171.577 122.093 170.695 120.624 170.863 120.246C170.863 120.246 169.352 122.555 168.009 122.89C168.051 122.89 168.093 122.89 168.135 122.89C168.471 123.058 168.597 124.024 168.681 124.318C168.932 125.409 172.794 124.318 172.164 123.184Z" fill="#FF9F91"/>
<path d="M168.429 118.232C170.108 117.938 169.058 121.631 170.905 121.505C172.752 121.38 174.011 117.392 172.668 114.286C171.325 111.223 168.765 111.391 166.33 111.81C163.896 112.23 160.916 113.321 160.916 115.168C160.916 119.617 166.162 115.881 166.498 117.224C166.75 118.274 167.17 121.212 166.12 121.296C165.071 121.38 163.98 120.498 163.14 120.708C162.637 120.834 161.336 126.626 164.819 126.836C168.261 127.046 169.142 123.982 168.429 121.505C167.673 119.155 167.589 118.4 168.429 118.232Z" fill="#14336A"/>
</g>
<defs>
<linearGradient id="paint0_linear_618_313" x1="114.899" y1="206.968" x2="114.899" y2="-22.829" gradientUnits="userSpaceOnUse">
<stop stop-color="#FEFEFD"/>
<stop offset="1" stop-color="#EBF3FF"/>
</linearGradient>
<linearGradient id="paint1_linear_618_313" x1="114.582" y1="198.067" x2="114.582" y2="132.361" gradientUnits="userSpaceOnUse">
<stop stop-color="#FEFEFD"/>
<stop offset="0.8395" stop-color="#EBF3FF"/>
</linearGradient>
<linearGradient id="paint2_linear_618_313" x1="145.957" y1="130.231" x2="148.599" y2="138.687" gradientUnits="userSpaceOnUse">
<stop stop-color="#90DAD8"/>
<stop offset="1" stop-color="#3FB790"/>
</linearGradient>
<linearGradient id="paint3_linear_618_313" x1="126.678" y1="191.178" x2="124.634" y2="193.728" gradientUnits="userSpaceOnUse">
<stop stop-color="#14336D"/>
<stop offset="0.9662" stop-color="#0E2253"/>
</linearGradient>
<linearGradient id="paint4_linear_618_313" x1="135.564" y1="181.641" x2="149.842" y2="170.139" gradientUnits="userSpaceOnUse">
<stop stop-color="#14336D"/>
<stop offset="0.9662" stop-color="#0E2253"/>
</linearGradient>
<linearGradient id="paint5_linear_618_313" x1="156.023" y1="170.618" x2="181.08" y2="179.706" gradientUnits="userSpaceOnUse">
<stop stop-color="#14336D"/>
<stop offset="0.9662" stop-color="#0E2253"/>
</linearGradient>
<linearGradient id="paint6_linear_618_313" x1="164.758" y1="128.626" x2="177.361" y2="152.23" gradientUnits="userSpaceOnUse">
<stop stop-color="#3162DF"/>
<stop offset="0.9649" stop-color="#173DB8"/>
</linearGradient>
<linearGradient id="paint7_linear_618_313" x1="168.495" y1="140.04" x2="182.821" y2="170.244" gradientUnits="userSpaceOnUse">
<stop stop-color="#3162DF"/>
<stop offset="0.9649" stop-color="#173DB8"/>
</linearGradient>
<linearGradient id="paint8_linear_618_313" x1="163.359" y1="193.729" x2="164.898" y2="196.612" gradientUnits="userSpaceOnUse">
<stop stop-color="#14336D"/>
<stop offset="0.9662" stop-color="#0E2253"/>
</linearGradient>
<clipPath id="clip0_618_313">
<rect width="230" height="230" fill="white"/>
</clipPath>
</defs>
</svg>
