<svg width="230" height="230" viewBox="0 0 230 230" fill="none" xmlns="http://www.w3.org/2000/svg">
<g clip-path="url(#clip0_620_607)">
<path d="M114.916 229.832C178.382 229.832 229.832 178.382 229.832 114.916C229.832 51.4497 178.382 0 114.916 0C51.4497 0 0 51.4497 0 114.916C0 178.382 51.4497 229.832 114.916 229.832Z" fill="url(#paint0_linear_620_607)"/>
<path d="M229.203 129.522C216.527 123.982 200.075 121.338 189.75 125.199C180.097 128.808 181.65 135.985 171.745 138.965C155.754 143.75 144.673 127.172 120.876 127.927C99.6807 128.64 92.3358 142.281 76.345 138.965C66.3559 136.867 64.4672 130.571 57.3742 126.122C45.4545 118.651 22.6223 118.735 0.629639 123.016C2.64424 151.766 15.1935 177.62 34.5001 196.675C56.199 200.704 79.8285 202.845 102.829 201.963C143.288 200.453 184.252 189.624 212.121 176.697C221.018 162.721 227.02 146.73 229.203 129.522Z" fill="url(#paint1_linear_620_607)"/>
<path d="M185.469 55.3595H157.684C156.048 55.3595 154.579 54.7719 153.445 53.8066C152.018 52.5894 151.137 50.7847 151.137 48.7701C151.137 46.9653 151.892 45.3285 153.068 44.1113C154.243 42.9361 155.922 42.1806 157.726 42.1806H185.511C187.316 42.1806 188.953 42.9361 190.17 44.1113C191.345 45.2865 192.1 46.9653 192.1 48.7701C192.1 50.5748 191.345 52.2117 190.17 53.4288C188.911 54.646 187.274 55.3595 185.469 55.3595Z" fill="#D8E2F4"/>
<path d="M178.882 46.636C180.162 41.2698 176.85 35.8817 171.484 34.6012C166.117 33.3208 160.729 36.6329 159.449 41.9991C158.168 47.3653 161.481 52.7535 166.847 54.0339C172.213 55.3144 177.601 52.0022 178.882 46.636Z" fill="#D8E2F4"/>
<path d="M66.4399 49.3996H25.6862C23.0001 49.3996 20.6078 48.3084 18.845 46.5876C17.0822 44.8248 16.033 42.4325 16.033 39.7463C16.033 37.8577 16.5786 36.0529 17.5439 34.5839C19.2227 31.8978 22.2446 30.0931 25.6862 30.0931H66.4399C69.126 30.0931 71.5184 31.1843 73.2811 32.9051C75.0439 34.6679 76.0932 37.0602 76.0932 39.7463C76.0932 42.2226 75.1698 44.489 73.6169 46.2099C71.8541 48.1825 69.2939 49.3996 66.4399 49.3996Z" fill="white"/>
<path d="M42.5585 47.8467C50.6482 47.8467 57.2063 41.2887 57.2063 33.1989C57.2063 25.1091 50.6482 18.5511 42.5585 18.5511C34.4687 18.5511 27.9106 25.1091 27.9106 33.1989C27.9106 41.2887 34.4687 47.8467 42.5585 47.8467Z" fill="white"/>
<path d="M206.161 211.113C206.161 211.869 169.646 212.456 124.569 212.456C79.4926 212.456 42.978 211.869 42.978 211.113C42.978 210.358 79.4926 209.77 124.569 209.77C169.646 209.77 206.161 210.4 206.161 211.113Z" fill="#D0DFF3"/>
<path d="M125.954 103.29C119.911 103.29 115.042 98.4215 115.042 92.3777V87.677C115.042 86.6697 115.881 85.8303 116.889 85.8303C117.896 85.8303 118.735 86.6697 118.735 87.677V89.188C118.735 89.9015 119.323 90.489 120.037 90.489C120.75 90.489 121.338 89.9015 121.338 89.188V82.8504C121.338 82.0109 122.009 81.2974 122.891 81.2974C123.73 81.2974 124.443 81.969 124.443 82.8504V84.3193C124.443 85.1588 125.115 85.8723 125.996 85.8723C126.836 85.8723 127.549 85.2007 127.549 84.3193V77.688C127.549 76.8485 128.221 76.177 129.06 76.177C129.9 76.177 130.571 76.8485 130.571 77.688V83.5219C130.571 84.2774 131.159 84.865 131.914 84.865C132.67 84.865 133.257 84.2774 133.257 83.5219V81.1296C133.257 80.1223 134.097 79.2828 135.104 79.2828C136.111 79.2828 136.951 80.1223 136.951 81.1296V92.3777C136.867 98.4215 131.998 103.29 125.954 103.29Z" fill="url(#paint2_linear_620_607)"/>
<path d="M116.763 80.5839C115.797 80.5839 115.042 79.8285 115.042 78.8631V75.4215C115.042 74.4562 115.797 73.7007 116.763 73.7007C117.728 73.7007 118.484 74.4562 118.484 75.4215V78.8631C118.526 79.7865 117.728 80.5839 116.763 80.5839Z" fill="url(#paint3_linear_620_607)"/>
<path d="M170.905 210.106H136.867C130.277 210.106 124.947 204.776 124.947 198.186V105.431C124.947 98.8412 130.277 93.511 136.867 93.511H170.905C177.494 93.511 182.825 98.8412 182.825 105.431V198.186C182.825 204.776 177.494 210.106 170.905 210.106Z" fill="white"/>
<path d="M173.129 211.113H134.642C128.724 211.113 123.898 206.286 123.898 200.369V103.206C123.898 97.2883 128.724 92.4617 134.642 92.4617H173.129C179.047 92.4617 183.874 97.2883 183.874 103.206V200.411C183.874 206.328 179.047 211.113 173.129 211.113ZM134.642 94.5182C129.858 94.5182 125.954 98.4215 125.954 103.206V200.411C125.954 205.195 129.858 209.099 134.642 209.099H173.129C177.914 209.099 181.817 205.195 181.817 200.411V103.206C181.817 98.4215 177.914 94.5182 173.129 94.5182H134.642Z" fill="#E0E9F3"/>
<path d="M172.668 204.859H135.146C134.6 204.859 134.139 204.398 134.139 203.852C134.139 203.307 134.6 202.845 135.146 202.845H172.668C173.213 202.845 173.675 203.307 173.675 203.852C173.675 204.398 173.213 204.859 172.668 204.859Z" fill="#E0E9F3"/>
<path d="M134.978 101.401C134.978 102.451 134.139 103.29 133.089 103.29C132.04 103.29 131.201 102.451 131.201 101.401C131.201 100.352 132.04 99.5128 133.089 99.5128C134.139 99.5128 134.978 100.352 134.978 101.401Z" fill="#E0E9F3"/>
<path d="M176.781 170.527C176.445 172.122 178.376 172.458 178.712 174.682C179.047 176.907 178.082 177.536 178.376 178.838C178.67 180.139 180.6 180.432 180.936 183.622C181.272 186.812 179.971 186.476 180.307 188.407C180.642 190.338 182.531 190.338 182.867 191.932C183.203 193.527 183.203 195.752 183.832 197.682C184.462 199.613 186.392 202.467 187.358 202.467C188.323 202.467 190.883 197.053 190.212 195.458C189.582 193.863 188.617 193.527 188.617 192.268C188.617 191.009 189.876 187.819 189.582 185.595C189.288 183.37 186.392 182.405 186.057 180.81C185.721 179.215 186.686 175.06 184.462 173.172C182.195 171.199 177.075 168.932 176.781 170.527Z" fill="#3FB790"/>
<path d="M187.148 201.88C187.064 201.88 186.98 201.796 186.98 201.712C186.98 201.67 186.938 197.515 185.721 196.297C184.504 195.08 183.79 191.303 183.454 184.084C183.161 177.536 178.46 172.122 178.376 172.08C178.334 171.996 178.334 171.912 178.376 171.87C178.46 171.828 178.544 171.828 178.586 171.87C178.628 171.912 183.412 177.411 183.706 184.084C184.042 191.135 184.756 194.954 185.889 196.088C187.19 197.389 187.232 201.544 187.232 201.712C187.316 201.796 187.232 201.88 187.148 201.88Z" fill="#34916F"/>
<path d="M205.951 175.354C207.084 176.487 203.391 176.949 203.097 179.173C202.803 181.398 202.761 182.363 201.502 183.622C200.243 184.881 198.312 185.217 198.648 187.148C198.984 189.078 199.613 190.967 198.648 191.932C197.683 192.898 195.458 192.898 194.829 194.493C194.199 196.088 194.493 198.018 193.234 199.571C191.975 201.124 190.044 204.356 188.449 203.726C186.854 203.097 187.819 195.752 188.449 194.493C189.079 193.234 189.708 192.268 189.708 191.303C189.708 190.338 189.372 188.743 190.044 187.148C190.673 185.553 194.199 184.923 194.493 183.958C194.829 182.993 195.122 177.914 197.053 176.613C198.984 175.312 204.02 173.465 205.951 175.354Z" fill="#4FC7A0"/>
<path d="M188.911 203.181C188.869 203.181 188.869 203.181 188.827 203.139C188.743 203.097 188.743 203.013 188.785 202.929C188.785 202.887 190.086 200.788 190.338 199.697C190.422 199.403 190.505 198.984 190.589 198.522C190.925 196.759 191.471 194.073 192.31 193.276C193.485 192.1 195.416 188.449 196.717 183.79C198.354 178.04 203.768 176.361 203.852 176.361C203.936 176.319 204.02 176.403 204.062 176.487C204.104 176.571 204.02 176.655 203.936 176.697C203.894 176.697 198.606 178.334 197.053 183.916C195.71 188.617 193.779 192.31 192.562 193.527C191.807 194.283 191.261 197.011 190.925 198.606C190.841 199.109 190.757 199.529 190.673 199.823C190.38 200.956 189.12 203.055 189.078 203.139C188.995 203.139 188.953 203.181 188.911 203.181Z" fill="#3FB690"/>
<path d="M188.491 179.005C184.672 179.341 185.931 190.799 185.931 190.799C186.896 200.662 188.155 205.153 189.121 205.447C190.086 205.783 191.975 191.429 191.975 187.903C192.016 187.945 192.31 178.712 188.491 179.005Z" fill="#90DAD8"/>
<path d="M188.995 203.894C188.953 203.894 188.953 203.894 188.995 203.894C188.869 203.894 188.827 203.81 188.827 203.726C190.086 193.359 188.533 180.307 188.491 180.181C188.491 180.097 188.533 180.013 188.617 180.013C188.701 180.013 188.785 180.055 188.785 180.139C188.785 180.265 190.38 193.359 189.121 203.768C189.121 203.81 189.037 203.894 188.995 203.894Z" fill="white"/>
<path d="M193.737 211.113H184.042C183.706 211.113 183.454 210.903 183.412 210.651L181.985 200.578C181.901 200.117 182.279 199.739 182.741 199.739H195.038C195.5 199.739 195.836 200.159 195.794 200.578L194.367 210.651C194.325 210.945 194.031 211.113 193.737 211.113Z" fill="#D0DAED"/>
<path opacity="0.43" d="M147.15 127.549C147.15 123.016 143.456 119.323 138.923 119.323C138.839 119.323 138.755 119.323 138.629 119.323C138.126 118.777 137.454 118.4 136.657 118.4C136.321 118.4 135.943 118.484 135.65 118.609C134.768 117.812 133.635 117.35 132.376 117.35C130.361 117.35 128.682 118.526 127.885 120.246C126.752 120.33 125.828 121.086 125.535 122.135C123.1 122.177 121.086 123.94 120.666 126.29L112.398 126.962V129.27L121.044 129.228C121.212 129.648 121.463 130.026 121.757 130.361C121.379 130.823 121.17 131.411 121.17 132.04C121.17 133.341 122.093 134.391 123.352 134.642C123.31 135.02 123.268 135.398 123.268 135.776C123.268 140.308 126.962 144.002 131.494 144.002C135.356 144.002 138.587 141.358 139.469 137.79C139.805 137.958 140.182 138.042 140.602 138.042C142.071 138.042 143.246 136.867 143.246 135.398C143.246 135.146 143.204 134.852 143.12 134.6C145.471 133.257 147.15 130.613 147.15 127.549Z" fill="#D0DAED"/>
<path d="M74.7081 202.467L73.9106 206.706H87.845L89.4818 202.467H74.7081Z" fill="#FFAA9D"/>
<path d="M87.8449 206.706H73.5329L72.9033 211.113H92.1679L87.8449 206.706Z" fill="#0B2252"/>
<path d="M73.9107 202.467C73.9107 202.467 76.387 181.734 76.4709 180.097C76.5548 178.46 76.6388 173.088 73.9107 170.821C71.1826 168.555 64.7191 160.245 63.8797 152.648C63.0402 145.051 63.8797 132.334 63.8797 132.334H81.2976C81.2976 132.334 94.6862 153.403 94.6862 165.533C94.6862 180.936 91.8322 201.124 91.0348 202.467H73.9107Z" fill="url(#paint4_linear_620_607)"/>
<path d="M58.7173 132.334L46.2939 202.467H62.5786L83.522 138L58.7173 132.334Z" fill="#14336D"/>
<path d="M60.2282 206.706H46.2519L45.2446 211.113H62.9143L60.2282 206.706Z" fill="#0B2252"/>
<path d="M47.0494 202.467L46.252 206.706H60.2282L61.8231 202.467H47.0494Z" fill="#FFAA9D"/>
<path d="M98.4635 131.327C98.4635 131.327 103.836 131.327 105.808 130.781C107.739 130.277 108.62 129.984 108.453 129.564C108.327 129.102 104.13 128.557 103.962 128.095C103.794 127.675 104.465 127.214 104.255 126.71C104.046 126.206 100.604 127.088 100.184 126.626C99.7646 126.164 98.1278 130.571 98.4635 131.327Z" fill="#FFAA9D"/>
<path d="M75.9673 101.569C76.8487 103.416 77.5202 121.044 78.9473 122.009C80.3743 122.974 99.387 126.038 100.017 126.29C100.604 126.5 101.024 131.201 100.772 131.578C100.478 131.956 78.8213 137.874 69.21 131.159C59.5987 124.485 66.0622 104.759 66.5239 103.794C69.7556 96.7427 75.0859 99.7226 75.9673 101.569Z" fill="url(#paint5_linear_620_607)"/>
<path d="M62.2429 103.248C62.2429 103.248 56.1991 135.146 57.0805 136.867C60.1024 142.743 87.1736 141.442 86.0823 138.336C83.0604 129.816 83.606 106.69 80.6261 102.745C77.856 99.0931 74.1206 98.6314 70.9309 98.6314C64.1316 98.6314 62.7885 100.142 62.2429 103.248Z" fill="url(#paint6_linear_620_607)"/>
<path d="M83.5221 141.861C83.1863 141.861 82.8925 141.735 82.6407 141.526C82.1371 141.022 82.1371 140.224 82.5988 139.763C85.9564 136.321 88.8944 135.985 92.9236 136.573C95.106 136.909 96.7429 137.622 98.086 138.252C99.5969 138.923 100.394 139.259 101.024 138.923C101.821 138.504 101.821 137.245 101.737 135.23C101.653 133.005 101.57 130.487 103.332 128.683C104.675 127.297 106.858 126.668 109.964 126.752C110.677 126.752 111.223 127.339 111.181 128.053C111.181 128.766 110.593 129.312 109.88 129.27C107.529 129.228 105.935 129.606 105.095 130.445C104.088 131.453 104.13 133.257 104.214 135.146C104.298 137.412 104.382 139.973 102.157 141.148C100.436 142.113 98.7575 141.358 96.9947 140.56C95.7356 140.015 94.3086 139.343 92.4619 139.091C88.9783 138.588 86.9637 138.797 84.3196 141.526C84.1517 141.735 83.8579 141.861 83.5221 141.861Z" fill="#0B2252"/>
<path d="M81.6754 139.427C81.6754 139.427 87.0057 140.35 88.9783 140.182C90.9929 140.015 91.8743 139.889 91.7903 139.427C91.7484 138.965 87.7192 137.664 87.5933 137.203C87.5093 136.741 88.2228 136.405 88.1389 135.901C88.0549 135.398 84.4454 135.65 84.1516 135.104C83.8579 134.558 81.4655 138.588 81.6754 139.427Z" fill="#FFAA9D"/>
<path d="M70.3432 103.08C70.5111 105.137 64.9709 121.841 65.9782 123.268C66.9435 124.695 83.7319 134.223 84.1935 134.642C84.6552 135.062 83.4381 139.595 83.0184 139.847C82.5987 140.099 60.2702 138 53.5968 128.389C46.9235 118.777 59.8924 102.577 60.6479 101.821C66.23 96.407 70.1753 101.066 70.3432 103.08Z" fill="url(#paint7_linear_620_607)"/>
<path d="M93.8049 167.841L87.5932 166.204C86.1243 165.827 85.2429 164.316 85.6206 162.847L89.7337 147.192C90.5732 144.002 93.8049 142.113 96.9947 142.953C100.184 143.792 102.073 147.024 101.234 150.214L97.1206 165.869C96.7848 167.338 95.2739 168.219 93.8049 167.841Z" fill="#ED3232"/>
<path d="M93.595 143.078C93.595 143.078 94.938 142.449 95.1899 141.526C95.3997 140.77 95.9034 138.839 95.9034 138.839L99.9745 139.889C99.9745 139.889 99.4289 141.945 99.261 142.575C99.0092 143.498 99.8906 144.715 99.8906 144.715L93.595 143.078Z" fill="#ED3232"/>
<path d="M100.352 139.889C100.017 141.232 98.6316 141.987 97.3305 141.651C95.9874 141.316 95.2319 139.931 95.5677 138.63C95.9035 137.287 97.2885 136.531 98.5896 136.867C99.9327 137.203 100.73 138.588 100.352 139.889Z" fill="#D0DAED"/>
<path d="M99.2611 139.595C99.0932 140.308 98.3377 140.728 97.6662 140.518C96.9527 140.35 96.533 139.595 96.7429 138.923C96.9107 138.21 97.6662 137.79 98.3377 138C99.0093 138.168 99.429 138.923 99.2611 139.595Z" fill="#ED3232"/>
<path d="M100.328 153.708L88.8379 150.702L87.2126 156.914L98.7031 159.92L100.328 153.708Z" fill="#D0DAED"/>
<path d="M116.343 130.151L110.341 129.816C110.132 129.816 110.006 129.648 110.006 129.438V126.584C110.006 126.374 110.173 126.248 110.341 126.206L116.343 125.87C116.679 125.87 116.973 126.122 116.973 126.458V129.522C116.931 129.9 116.679 130.193 116.343 130.151Z" fill="#0B2252"/>
<path d="M79.4928 91.5383L79.5767 95.9453H78.9052C78.9052 95.9453 78.3596 99.5967 75.7993 99.0091C75.0439 98.8412 74.1205 98.2117 73.8267 98.3376C73.4909 98.5055 73.365 99.4708 73.2811 99.7646C72.9873 100.856 69.126 99.7646 69.7555 98.6314C70.3431 97.5402 71.2245 96.0712 71.0566 95.6934C70.3851 94.2664 70.2172 90.7409 73.7847 89.5657C76.6388 88.6423 79.4928 90.0694 79.4928 91.5383Z" fill="#FFAA9D"/>
<path d="M69.7976 98.6314C70.3851 97.5401 71.2665 96.0712 71.0986 95.6934C71.0986 95.6934 72.6096 98.0018 73.9527 98.3376C73.9107 98.3376 73.8687 98.3376 73.8268 98.3376C73.491 98.5055 73.3651 99.4708 73.2811 99.7646C73.0293 100.898 69.168 99.7646 69.7976 98.6314Z" fill="#FF9F91"/>
<path d="M73.533 93.7208C71.8542 93.427 72.9035 97.1204 71.0568 96.9945C69.21 96.8686 67.9509 92.8814 69.294 89.7755C70.637 86.6697 73.1973 86.8796 75.6316 87.2993C78.0659 87.719 81.0458 88.8102 81.0458 90.6569C81.0458 95.1058 75.7995 91.3704 75.4637 92.7135C75.2119 93.7628 74.7922 96.7427 75.8414 96.7847C76.8907 96.8686 77.9819 95.9872 78.8214 96.1971C79.325 96.323 80.6261 102.157 77.1425 102.325C73.7009 102.535 72.8195 99.4708 73.533 96.9945C74.2885 94.6442 74.3724 93.8467 73.533 93.7208Z" fill="#14336A"/>
<path d="M183.496 134.474C187.526 134.474 190.799 131.201 190.799 127.172V124.024C190.799 123.352 190.254 122.807 189.582 122.807C188.911 122.807 188.365 123.352 188.365 124.024V125.031C188.365 125.493 187.987 125.912 187.484 125.912C187.022 125.912 186.602 125.535 186.602 125.031V120.75C186.602 120.162 186.141 119.701 185.553 119.701C184.965 119.701 184.504 120.162 184.504 120.75V121.757C184.504 122.345 184.042 122.807 183.454 122.807C182.867 122.807 182.405 122.345 182.405 121.757V117.308C182.405 116.721 181.944 116.301 181.398 116.301C180.81 116.301 180.391 116.763 180.391 117.308V121.254C180.391 121.757 179.971 122.135 179.509 122.135C179.006 122.135 178.628 121.715 178.628 121.254V119.659C178.628 118.987 178.082 118.442 177.411 118.442C176.739 118.442 176.194 118.987 176.194 119.659V127.213C176.152 131.159 179.467 134.474 183.496 134.474Z" fill="url(#paint8_linear_620_607)"/>
<path d="M185.637 117.308C185.049 117.308 184.546 116.805 184.546 116.217V113.489C184.546 112.901 185.049 112.398 185.637 112.398C186.224 112.398 186.728 112.901 186.728 113.489V116.217C186.728 116.847 186.224 117.308 185.637 117.308Z" fill="url(#paint9_linear_620_607)"/>
</g>
<defs>
<linearGradient id="paint0_linear_620_607" x1="114.899" y1="206.968" x2="114.899" y2="-22.829" gradientUnits="userSpaceOnUse">
<stop stop-color="#FEFEFD"/>
<stop offset="1" stop-color="#EBF3FF"/>
</linearGradient>
<linearGradient id="paint1_linear_620_607" x1="114.899" y1="198.067" x2="114.899" y2="132.361" gradientUnits="userSpaceOnUse">
<stop stop-color="#FEFEFD"/>
<stop offset="0.8395" stop-color="#EBF3FF"/>
</linearGradient>
<linearGradient id="paint2_linear_620_607" x1="125.96" y1="73.0263" x2="125.96" y2="103.41" gradientUnits="userSpaceOnUse">
<stop stop-color="#F40808"/>
<stop offset="1" stop-color="#F98008"/>
</linearGradient>
<linearGradient id="paint3_linear_620_607" x1="116.776" y1="72.9036" x2="116.776" y2="80.6057" gradientUnits="userSpaceOnUse">
<stop stop-color="#F40808"/>
<stop offset="1" stop-color="#F98008"/>
</linearGradient>
<linearGradient id="paint4_linear_620_607" x1="94.5768" y1="188.428" x2="75.0024" y2="164.172" gradientUnits="userSpaceOnUse">
<stop stop-color="#14336D"/>
<stop offset="0.9662" stop-color="#0E2253"/>
</linearGradient>
<linearGradient id="paint5_linear_620_607" x1="69.5976" y1="108.539" x2="92.7684" y2="140.455" gradientUnits="userSpaceOnUse">
<stop stop-color="#3162DF"/>
<stop offset="0.9649" stop-color="#173DB8"/>
</linearGradient>
<linearGradient id="paint6_linear_620_607" x1="81.6699" y1="113.384" x2="54.6746" y2="137.81" gradientUnits="userSpaceOnUse">
<stop stop-color="#3162DF"/>
<stop offset="0.9649" stop-color="#173DB8"/>
</linearGradient>
<linearGradient id="paint7_linear_620_607" x1="61.9421" y1="107.39" x2="72.4315" y2="145.409" gradientUnits="userSpaceOnUse">
<stop stop-color="#3162DF"/>
<stop offset="0.9649" stop-color="#173DB8"/>
</linearGradient>
<linearGradient id="paint8_linear_620_607" x1="183.493" y1="114.151" x2="183.493" y2="134.534" gradientUnits="userSpaceOnUse">
<stop stop-color="#F40808"/>
<stop offset="1" stop-color="#F98008"/>
</linearGradient>
<linearGradient id="paint9_linear_620_607" x1="185.645" y1="111.855" x2="185.645" y2="117.341" gradientUnits="userSpaceOnUse">
<stop stop-color="#F40808"/>
<stop offset="1" stop-color="#F98008"/>
</linearGradient>
<clipPath id="clip0_620_607">
<rect width="230" height="230" fill="white"/>
</clipPath>
</defs>
</svg>
