<svg width="230" height="238" viewBox="0 0 230 238" fill="none" xmlns="http://www.w3.org/2000/svg">
<g clip-path="url(#clip0_620_486)">
<path d="M114.916 237.906C178.382 237.906 229.832 186.451 229.832 122.978C229.832 59.5046 178.382 8.04938 114.916 8.04938C51.4497 8.04938 0 59.5046 0 122.978C0 186.451 51.4497 237.906 114.916 237.906Z" fill="url(#paint0_linear_620_486)"/>
<path d="M229.203 137.585C216.527 132.044 200.075 129.4 189.75 133.262C180.097 136.872 181.65 144.049 171.745 147.03C155.754 151.815 144.673 135.235 120.876 135.99C99.6807 136.704 92.3358 150.346 76.345 147.03C66.3559 144.931 64.4672 138.635 57.3742 134.185C45.4545 126.714 22.6223 126.798 0.629639 131.079C2.64424 159.832 15.1935 185.689 34.5001 204.746C56.199 208.775 79.8285 210.916 102.829 210.035C143.288 208.523 184.252 197.694 212.121 184.765C221.018 170.83 227.02 154.795 229.203 137.585Z" fill="url(#paint1_linear_620_486)"/>
<path d="M69.5036 54.5161H46.1679C44.8248 54.5161 43.5657 54.0124 42.6003 53.2148C41.4252 52.2074 40.6697 50.6963 40.6697 49.0173C40.6697 47.5062 41.2992 46.121 42.3065 45.1136C43.3138 44.1062 44.6989 43.4766 46.2098 43.4766H69.5456C71.0565 43.4766 72.4416 44.1062 73.4489 45.1136C74.4562 46.121 75.0857 47.5062 75.0857 49.0173C75.0857 50.5284 74.4562 51.9136 73.4489 52.921C72.3996 53.9284 71.0146 54.5161 69.5036 54.5161Z" fill="#D8E2F4"/>
<path d="M63.956 47.21C65.0248 42.7222 62.2535 38.2176 57.7662 37.1487C53.2788 36.0798 48.7747 38.8514 47.706 43.3392C46.6372 47.827 49.4084 52.3316 53.8958 53.4005C58.3831 54.4694 62.8872 51.6978 63.956 47.21Z" fill="#D8E2F4"/>
<path d="M178.796 36.8864H138.042C135.356 36.8864 132.963 35.7951 131.201 34.0741C129.438 32.3111 128.389 29.9185 128.389 27.2321C128.389 25.3432 128.934 23.5383 129.9 22.0691C131.62 19.3827 134.642 17.5778 138.042 17.5778H178.796C181.482 17.5778 183.874 18.6691 185.637 20.3901C187.4 22.1111 188.449 24.5457 188.449 27.2321C188.449 29.7087 187.526 31.9753 185.973 33.6963C184.21 35.6691 181.65 36.8864 178.796 36.8864Z" fill="white"/>
<path d="M165.28 31.0757C171 25.3549 171 16.0795 165.28 10.3586C159.56 4.6377 150.285 4.6377 144.565 10.3586C138.845 16.0795 138.845 25.3549 144.565 31.0757C150.285 36.7966 159.56 36.7966 165.28 31.0757Z" fill="white"/>
<path d="M76.4709 82.6395C76.4709 82.6395 74.0366 80.5827 73.8267 80.7087C73.6589 80.8346 73.9107 82.0099 73.9107 82.0099C73.9107 82.0099 72.2738 80.7506 71.5603 81.4642C70.8468 82.1778 72.9873 86.7951 75.0439 87.3408L76.4709 82.6395Z" fill="#FFAA9D"/>
<path d="M159.615 80.2469C159.615 80.2469 162.049 78.1901 162.259 78.3161C162.469 78.442 162.175 79.6173 162.175 79.6173C162.175 79.6173 163.812 78.358 164.526 79.0716C165.239 79.7852 163.099 84.4025 161.042 84.9482L159.615 80.2469Z" fill="#FFAA9D"/>
<path d="M162.721 84.2766L159.615 79.7432C154.201 82.8494 146.52 83.0173 137.203 80.4568C130.361 78.5679 125.577 76.5531 117.938 76.5531C110.299 76.5531 102.787 81.9679 98.9672 83.0173C89.6497 85.5778 81.969 85.4099 76.5548 82.3037L73.449 86.8371C73.449 86.8371 86.1661 97.5827 105.011 94.6864C104.549 101.025 103.5 110.679 103.836 112.148C104.591 115.632 130.823 115.8 132.082 111.812C132.46 110.637 130.697 98.3803 130.445 92C149.668 95.2741 162.721 84.2766 162.721 84.2766Z" fill="url(#paint2_linear_620_486)"/>
<path d="M124.863 70.5926L124.905 74.5383H124.318C124.318 74.5383 123.856 77.8124 121.548 77.2667C120.876 77.0988 120.037 76.5531 119.785 76.679C119.491 76.805 119.365 77.6864 119.323 77.9803C119.071 78.9877 115.63 77.9803 116.175 76.9729C116.721 76.0074 117.518 74.7062 117.35 74.3284C116.763 73.0692 116.595 69.921 119.785 68.8296C122.303 67.9901 124.863 69.2494 124.863 70.5926Z" fill="#FFAA9D"/>
<path d="M116.217 76.9309C116.763 75.9655 117.56 74.6642 117.392 74.2864C117.392 74.2864 118.735 76.3432 119.953 76.6371C119.911 76.6371 119.869 76.6371 119.869 76.6371C119.575 76.763 119.449 77.6445 119.407 77.9383C119.071 78.9457 115.63 77.9383 116.217 76.9309Z" fill="#FF9F91"/>
<path d="M119.533 72.5235C118.064 72.2716 118.987 75.5877 117.35 75.4617C115.714 75.3358 114.58 71.7679 115.756 69.0395C116.973 66.2692 119.239 66.4371 121.422 66.8148C123.604 67.1926 126.248 68.158 126.248 69.837C126.248 73.7827 121.548 70.4667 121.254 71.684C121.002 72.6074 120.666 75.2519 121.59 75.3358C122.555 75.3778 123.52 74.6222 124.276 74.8321C124.695 74.958 125.912 80.121 122.765 80.3309C119.659 80.4988 118.903 77.7704 119.533 75.5457C120.204 73.321 120.288 72.6494 119.533 72.5235Z" fill="#14336A"/>
<path d="M88.2646 130.701C83.0602 130.701 77.1004 127.847 72.3157 123.104C67.531 118.319 64.677 112.358 64.677 107.111C64.677 103.879 67.2792 101.822 69.7974 99.8074C72.2737 97.8346 74.666 95.9457 74.792 93.0074C74.8759 91.3284 74.1624 90.1951 73.4489 88.9778C72.6515 87.6766 71.812 86.3334 71.9799 84.2346C72.2737 80.5827 75.5474 77.2247 81.6752 74.2445C81.969 74.0766 82.3467 74.2445 82.5146 74.5383C82.6825 74.8321 82.5146 75.2099 82.2208 75.3778C76.5128 78.1482 73.4909 81.1704 73.1971 84.3185C73.0712 85.9976 73.7427 87.0469 74.4982 88.2642C75.2536 89.5235 76.135 90.9087 76.0511 93.0074C75.8832 96.4914 73.1971 98.6321 70.5949 100.731C68.2025 102.62 65.9781 104.425 65.9781 107.027C65.9781 111.938 68.7062 117.605 73.281 122.138C77.8139 126.672 83.4799 129.358 88.3485 129.358C88.6843 129.358 88.9781 129.652 88.9781 129.988C88.8942 130.449 88.6004 130.701 88.2646 130.701Z" fill="#4FC7A0"/>
<path d="M85.2847 78.6519C82.8923 79.1976 80.542 77.6864 79.9964 75.3358C79.4507 72.9432 80.9617 70.5926 83.312 70.0469C85.7044 69.5013 88.0548 71.0124 88.6004 73.363C89.146 75.7136 87.635 78.1062 85.2847 78.6519Z" fill="#3FB790"/>
<path d="M90.1952 78.7358C89.2718 78.9457 87.9287 76.679 87.2572 73.6568C86.5857 70.6346 86.7536 67.9901 87.7189 67.7803C88.6422 67.5704 89.9853 69.8371 90.6568 72.8593C91.3284 75.9235 91.1185 78.5259 90.1952 78.7358Z" fill="#4FC7A0"/>
<path d="M83.9837 74.8321L83.7738 73.9926C83.1443 71.2222 84.9071 68.4099 87.6771 67.7803L90.1534 78.7358C87.3833 79.4074 84.6133 77.6445 83.9837 74.8321Z" fill="#4FC7A0"/>
<path d="M89.9434 77.6445C89.1879 77.8124 88.1387 76.0074 87.5931 73.5729C87.0474 71.1803 87.2153 69.0815 87.9708 68.9136C88.7263 68.7457 89.7755 70.5506 90.3212 72.9852C90.8248 75.3778 90.6989 77.4766 89.9434 77.6445Z" fill="#3FB790"/>
<path d="M88.7263 72.0198C88.6003 72.0618 88.4325 71.726 88.3065 71.3482C88.2226 70.9284 88.2226 70.5926 88.3485 70.5506C88.4744 70.5087 88.6423 70.8445 88.7682 71.2222C88.8522 71.642 88.8522 72.0198 88.7263 72.0198Z" fill="#14336A"/>
<path d="M89.6076 75.9655C89.4817 76.0074 89.3138 75.6716 89.1879 75.2939C89.104 74.8741 89.104 74.5383 89.2299 74.4963C89.3558 74.4543 89.5237 74.7902 89.6496 75.1679C89.7755 75.5877 89.7335 75.9235 89.6076 75.9655Z" fill="#14336A"/>
<path d="M145.345 128.77C145.009 128.77 144.715 128.519 144.715 128.183C144.715 127.847 144.967 127.553 145.303 127.511C176.068 125.748 181.272 107.531 182.153 101.948C183.37 94.1827 180.6 86.6691 175.858 84.8222C174.389 84.2766 173.13 84.9482 171.661 85.7877C170.276 86.5432 168.849 87.3407 167.17 87.0469C163.77 86.4173 161.168 82.0099 159.279 73.5309C159.195 73.1951 159.405 72.8593 159.741 72.7753C160.077 72.6914 160.412 72.9012 160.496 73.237C162.259 81.0864 164.568 85.284 167.38 85.7877C168.597 85.9975 169.772 85.3679 171.031 84.6543C172.542 83.8148 174.263 82.8494 176.277 83.6049C181.65 85.6617 184.672 93.5951 183.328 102.074C182.489 107.951 177.117 126.965 145.345 128.77C145.387 128.77 145.387 128.77 145.345 128.77Z" fill="#4FC7A0"/>
<path d="M163.183 71.9358C162.217 74.3284 159.489 75.4618 157.139 74.4963C155.124 73.6568 153.991 71.5581 154.285 69.4593C154.327 69.1235 162.049 66.6889 162.553 67.3185C163.56 68.5778 163.854 70.3408 163.183 71.9358Z" fill="#3FB790"/>
<path d="M159.657 63.121C159.993 63.0371 160.287 63.205 160.371 63.5408L161.588 68.0321C161.672 68.3679 161.504 68.6617 161.168 68.7457C160.832 68.8296 160.539 68.6617 160.455 68.3259L159.237 63.8346C159.154 63.4988 159.321 63.205 159.657 63.121Z" fill="#14336A"/>
<path d="M154.83 64.3802C155.166 64.2963 155.46 64.4642 155.544 64.8L156.761 69.2914C156.845 69.6272 156.677 69.921 156.341 70.0049C156.006 70.0889 155.712 69.921 155.628 69.5852L154.411 65.0938C154.327 64.8 154.537 64.4642 154.83 64.3802Z" fill="#14336A"/>
<path d="M161.252 70.5087L157.097 71.6C155.166 72.1037 153.194 70.9284 152.69 68.9976C152.564 68.4938 152.858 68.0321 153.319 67.9062L162.679 65.4716C163.183 65.3457 163.644 65.6395 163.77 66.1013C164.316 68.0321 163.183 70.005 161.252 70.5087Z" fill="#4FC7A0"/>
<path d="M152.228 220.738H81.0457V115.296C81.0457 108.706 86.3759 103.375 92.9654 103.375H140.266C146.856 103.375 152.186 108.706 152.186 115.296V220.738H152.228Z" fill="white"/>
<path d="M152.228 218.262C151.515 218.262 150.969 217.716 150.969 217.002V115.296C150.969 109.42 146.184 104.635 140.309 104.635H92.9655C87.0895 104.635 82.3049 109.42 82.3049 115.296V212.553C82.3049 213.267 81.7592 213.812 81.0457 213.812C80.3322 213.812 79.7866 213.267 79.7866 212.553V115.296C79.7866 108.035 85.7045 102.116 92.9655 102.116H140.267C147.528 102.116 153.445 108.035 153.445 115.296V217.002C153.487 217.674 152.9 218.262 152.228 218.262Z" fill="#E0E9F3"/>
<path d="M93.4271 113.072C93.4271 114.373 92.3778 115.422 91.0767 115.422C89.7756 115.422 88.7263 114.373 88.7263 113.072C88.7263 111.77 89.7756 110.721 91.0767 110.721C92.3778 110.763 93.4271 111.77 93.4271 113.072Z" fill="#E0E9F3"/>
<path d="M89.5657 153.368H177.83C178.292 153.368 178.67 153.158 178.922 152.864C179.131 152.612 179.257 152.277 179.257 151.941V135.864C179.257 135.528 179.131 135.193 178.922 134.941C178.67 134.605 178.25 134.437 177.83 134.437H89.5657C89.2299 134.437 88.9361 134.563 88.6843 134.731C88.3485 134.983 88.0967 135.402 88.0967 135.906V151.983C88.0967 152.361 88.2226 152.696 88.4744 152.948C88.7262 153.2 89.1459 153.368 89.5657 153.368Z" fill="white"/>
<path d="M164.4 149.674H174.473C174.683 149.674 174.892 149.59 175.06 149.422C175.228 149.254 175.312 149.044 175.312 148.835V138.761C175.312 138.593 175.27 138.425 175.186 138.299C175.018 138.089 174.767 137.921 174.473 137.921H164.4C164.19 137.921 164.022 138.005 163.854 138.131C163.686 138.299 163.56 138.509 163.56 138.761V148.835C163.56 149.044 163.644 149.254 163.812 149.422C163.98 149.59 164.19 149.674 164.4 149.674Z" fill="#D0DAED"/>
<path d="M99.7645 140.607H156.131C156.509 140.607 156.845 140.44 157.055 140.23C157.306 139.978 157.432 139.642 157.432 139.306C157.432 138.97 157.306 138.635 157.055 138.383C156.803 138.131 156.467 137.963 156.089 137.963H99.7645C99.3867 137.963 99.051 138.131 98.8411 138.341C98.5893 138.593 98.4634 138.928 98.4634 139.264C98.4634 139.516 98.5473 139.768 98.6732 139.978C98.8831 140.356 99.3028 140.607 99.7645 140.607Z" fill="#D0DAED"/>
<path d="M99.7645 145.561H156.131C156.551 145.561 156.929 145.351 157.181 145.057C157.348 144.847 157.474 144.553 157.474 144.259C157.474 144.007 157.39 143.756 157.264 143.546C157.013 143.168 156.635 142.916 156.131 142.916H99.7645C99.3867 142.916 99.0929 143.042 98.8411 143.294C98.5893 143.546 98.4214 143.881 98.4214 144.259C98.4214 144.637 98.5893 144.973 98.7991 145.183C99.0929 145.393 99.4287 145.561 99.7645 145.561Z" fill="#D0DAED"/>
<path d="M140.896 180.484H52.5894C52.1277 180.484 51.7499 180.274 51.4981 179.98C51.2883 179.728 51.1624 179.393 51.1624 179.057V162.98C51.1624 162.644 51.2883 162.309 51.4981 162.057C51.7499 161.721 52.1697 161.553 52.5894 161.553H140.854C141.19 161.553 141.484 161.679 141.735 161.847C142.071 162.099 142.323 162.519 142.323 163.022V179.015C142.323 179.393 142.197 179.728 141.945 179.98C141.693 180.316 141.316 180.484 140.896 180.484Z" fill="white"/>
<path d="M66.0201 176.79H55.9471C55.7372 176.79 55.5274 176.706 55.3595 176.538C55.1916 176.37 55.1077 176.161 55.1077 175.951V165.877C55.1077 165.709 55.1496 165.541 55.2336 165.415C55.4015 165.205 55.6533 165.037 55.9471 165.037H66.0201C66.2299 165.037 66.3978 165.121 66.5657 165.247C66.7336 165.415 66.8595 165.625 66.8595 165.877V175.951C66.8595 176.161 66.7755 176.37 66.6077 176.538C66.4818 176.706 66.2719 176.79 66.0201 176.79Z" fill="#D0DAED"/>
<path d="M130.655 167.723H74.3302C73.9524 167.723 73.6166 167.556 73.4068 167.346C73.155 167.094 73.0291 166.758 73.0291 166.422C73.0291 166.086 73.155 165.751 73.4068 165.499C73.6586 165.247 73.9944 165.079 74.3721 165.079H130.697C131.075 165.079 131.41 165.247 131.62 165.457C131.872 165.709 131.998 166.044 131.998 166.38C131.998 166.632 131.914 166.884 131.788 167.094C131.536 167.472 131.117 167.723 130.655 167.723Z" fill="#D0DAED"/>
<path d="M112.649 172.677H74.3301C73.9104 172.677 73.5327 172.467 73.2809 172.173C73.113 171.963 72.9871 171.669 72.9871 171.375C72.9871 171.123 73.071 170.872 73.1969 170.662C73.4487 170.284 73.8265 170.032 74.3301 170.032H112.649C113.027 170.032 113.321 170.158 113.573 170.41C113.825 170.662 113.993 170.998 113.993 171.375C113.993 171.753 113.825 172.089 113.615 172.299C113.363 172.509 113.027 172.677 112.649 172.677Z" fill="#D0DAED"/>
<path d="M175.564 219.227C175.564 219.983 171.493 220.57 166.456 220.57C161.42 220.57 157.348 219.983 157.348 219.227C157.348 218.472 161.42 217.884 166.456 217.884C171.493 217.884 175.564 218.472 175.564 219.227Z" fill="#D0DFF3"/>
<path d="M154.117 178.553C153.781 180.148 155.712 180.484 156.047 182.709C156.383 184.933 155.418 185.563 155.712 186.864C156.005 188.165 157.936 188.459 158.272 191.649C158.608 194.84 157.306 194.504 157.642 196.435C157.978 198.365 159.867 198.365 160.202 199.96C160.538 201.556 160.538 203.78 161.168 205.711C161.797 207.642 163.728 210.496 164.693 210.496C165.659 210.496 168.219 205.081 167.547 203.486C166.918 201.891 165.952 201.556 165.952 200.296C165.952 199.037 167.212 195.847 166.918 193.622C166.582 191.398 163.728 190.432 163.392 188.837C163.056 187.242 164.022 183.086 161.797 181.198C159.531 179.183 154.452 176.958 154.117 178.553Z" fill="#3FB790"/>
<path d="M164.484 209.867C164.4 209.867 164.316 209.783 164.316 209.699C164.316 209.657 164.274 205.501 163.057 204.284C161.839 203.067 161.126 199.289 160.79 192.069C160.496 185.521 155.796 180.106 155.712 180.064C155.67 179.98 155.67 179.896 155.712 179.854C155.796 179.812 155.88 179.812 155.922 179.854C155.963 179.896 160.748 185.395 161.042 192.069C161.378 199.121 162.091 202.941 163.224 204.074C164.526 205.375 164.567 209.531 164.567 209.699C164.651 209.825 164.567 209.867 164.484 209.867Z" fill="#34916F"/>
<path d="M183.286 183.38C184.42 184.514 180.726 184.975 180.432 187.2C180.097 189.425 180.097 190.39 178.838 191.649C177.578 192.909 175.648 193.244 175.984 195.175C176.319 197.106 176.949 198.995 175.984 199.961C175.018 200.926 172.794 200.926 172.164 202.521C171.535 204.116 171.828 206.047 170.569 207.6C169.31 209.195 167.38 212.385 165.785 211.756C164.19 211.126 165.155 203.78 165.785 202.521C166.414 201.262 167.044 200.296 167.044 199.331C167.044 198.365 166.708 196.77 167.38 195.175C168.009 193.58 171.535 192.951 171.828 191.985C172.122 191.02 172.458 185.941 174.389 184.64C176.277 183.38 181.398 181.491 183.286 183.38Z" fill="#4FC7A0"/>
<path d="M166.246 211.21C166.204 211.21 166.204 211.21 166.162 211.168C166.078 211.126 166.078 211.042 166.12 210.958C166.12 210.916 167.421 208.817 167.673 207.726C167.757 207.432 167.841 207.012 167.925 206.551C168.261 204.788 168.806 202.101 169.646 201.304C170.821 200.128 172.752 196.477 174.053 191.817C175.69 186.067 181.104 184.388 181.188 184.388C181.272 184.346 181.356 184.43 181.398 184.514C181.44 184.598 181.356 184.681 181.272 184.723C181.23 184.723 175.942 186.36 174.389 191.943C173.046 196.644 171.115 200.338 169.898 201.556C169.142 202.311 168.597 205.039 168.261 206.635C168.177 207.138 168.093 207.558 168.009 207.852C167.715 208.985 166.456 211.084 166.414 211.168C166.372 211.168 166.33 211.21 166.246 211.21Z" fill="#3FB690"/>
<path d="M165.869 187.032C162.049 187.368 163.308 198.827 163.308 198.827C164.274 208.691 165.533 213.183 166.498 213.477C167.464 213.812 169.352 199.457 169.352 195.931C169.352 195.973 169.688 186.696 165.869 187.032Z" fill="#90DAD8"/>
<path d="M166.33 211.881C166.204 211.881 166.162 211.798 166.162 211.714C167.422 201.346 165.869 188.291 165.827 188.165C165.827 188.081 165.869 187.998 165.953 187.998C166.037 187.998 166.12 188.04 166.12 188.123C166.12 188.249 167.715 201.346 166.456 211.756C166.498 211.84 166.414 211.881 166.33 211.881Z" fill="white"/>
<path d="M171.073 219.143H161.378C161.042 219.143 160.79 218.933 160.748 218.681L159.321 208.607C159.237 208.146 159.615 207.768 160.077 207.768H172.374C172.836 207.768 173.171 208.188 173.129 208.607L171.702 218.681C171.66 218.933 171.409 219.143 171.073 219.143Z" fill="#D0DAED"/>
</g>
<defs>
<linearGradient id="paint0_linear_620_486" x1="114.899" y1="215.058" x2="114.899" y2="-14.7636" gradientUnits="userSpaceOnUse">
<stop stop-color="#FEFEFD"/>
<stop offset="1" stop-color="#EBF3FF"/>
</linearGradient>
<linearGradient id="paint1_linear_620_486" x1="114.899" y1="206.156" x2="114.899" y2="140.443" gradientUnits="userSpaceOnUse">
<stop stop-color="#FEFEFD"/>
<stop offset="0.8395" stop-color="#EBF3FF"/>
</linearGradient>
<linearGradient id="paint2_linear_620_486" x1="73.4492" y1="95.6559" x2="162.734" y2="95.6559" gradientUnits="userSpaceOnUse">
<stop stop-color="#3162DF"/>
<stop offset="0.9649" stop-color="#173DB8"/>
</linearGradient>
<clipPath id="clip0_620_486">
<rect width="230" height="238" fill="white"/>
</clipPath>
</defs>
</svg>
