<svg viewBox="0 0 515 229" fill="none" xmlns="http://www.w3.org/2000/svg">
  <path d="M39.6 88.3C41.9 88.3 45.2 88 49.3 87.5V104.7C44 105.7 39.1 106.1 34.6 106.1C28.4 106.1 23.1 105.2 18.5 103.3C13.9 101.5 10.5 98.5 8.30002 94.5C6.90002 92 6.00001 89.4 5.60001 86.8C5.10001 84.2 4.90002 81 4.90002 77.5L5 70V49.7L13.7 40.8L23.4 30.8H5V14.9C5 6.6 11.7 0 19.9 0H25.6V28.9L43.4 11.1L54.9 22.6L25.7 51.8V73.1C25.7 75.7 25.8 77.8 26 79.5C26.2 81.1 26.6 82.5 27.4 83.5C29.4 86.7 33.5 88.3 39.6 88.3Z" fill="#EDFFFD" />
  <path d="M135.7 43.6C136.1 46.4 136.3 50.1 136.3 54.6V90.6C136.3 98.4 130 104.7 122.2 104.7H118.2V94.7C114.6 99.1 110.6 102.2 106.2 104.1C101.8 106 96.5 107 90.3 107C84.6 107 79.7 105.9 75.6 103.7C71.5 101.5 68.3 98.5 66.2 94.7C64.1 90.9 63 86.7 63 82.1C63 76.1 64.4 71.1 67.2 67C70 62.9 74.6 59.7 80.9 57.4C84.4 56.1 88.8 55 93.9 54C99 53.1 106.4 51.9 116 50.5C115.6 46.7 114.2 43.8 111.8 42C109.4 40.2 105.8 39.3 101 39.3C97.5 39.3 94.2 40.1 91.1 41.7C90.3 42.1 89.6 42.6 88.9 43.1C84.5 46.6 78.5 47.4 73.2 45.7L66 43.4C68.1 36.3 72.1 30.7 78 26.6C83.9 22.5 91.6 20.5 101.1 20.5C117.2 20.5 127.9 25.5 133.1 35.4C134.4 38 135.3 40.8 135.7 43.6ZM115.8 67.1C108.7 68.3 103.4 69.3 100.1 70C96.8 70.7 94 71.5 91.7 72.4C88.7 73.6 86.6 75 85.2 76.5C83.9 78 83.2 79.8 83.2 81.8C83.2 84.6 84.2 86.8 86.3 88.4C88.3 90 91.2 90.8 94.8 90.8C98.3 90.8 101.3 90.2 104 88.9C106.6 87.7 108.7 86.2 110.3 84.5C111.9 82.8 113 81.3 113.8 79.8C115 77.1 115.7 72.9 115.8 67.1Z" fill="#EDFFFD" />
  <path d="M163 100C156.7 95.3 152.8 88.7 151.4 80.1L172.5 76.9001C173.4 80.8001 175.3 83.8 178.2 86C181.2 88.2 184.9 89.2 189.5 89.2C193.2 89.2 196.1 88.5 198.1 87C200.1 85.6 201.2 83.5 201.2 81C201.2 79.3 200.8 78 199.9 77C199.1 76.1 197.3 75.1 194.7 74.2C192.1 73.3 187.7 72 181.4 70.3C174.6 68.6 169.3 66.7 165.3 64.5C161.4 62.4 158.5 59.8001 156.7 56.9001C154.9 54.0001 154 50.4 154 46.1C154 40.9 155.3 36.3 158 32.4C160.7 28.5 164.5 25.5 169.4 23.4C174.3 21.3 180 20.3 186.6 20.3C193 20.3 198.7 21.3 203.6 23.3C208.6 25.3 212.6 28.1 215.7 31.8C218.8 35.5 220.6 39.8 221.4 44.7L200.3 48.5C199.9 45.5 198.6 43.1 196.4 41.3C194.1 39.5 191 38.5 187.1 38.2L185.5 38.1C182.2 38.1 179.5 38.7 177.5 40C175.5 41.3 174.5 43 174.5 45.2C174.5 46.7 175 47.9 176 48.8C177 49.7 179 50.7 181.9 51.7C184.8 52.7 189.6 54 196.3 55.7C202.6 57.3 207.6 59.2001 211.3 61.4001C215 63.6001 217.8 66.1 219.5 69.1C221.2 72.1 222.1 75.7 222.1 80C222.1 85.6 220.7 90.4 218 94.5C215.3 98.6 211.3 101.7 206.2 103.8C201 105.9 194.9 107 187.8 107C177.7 106.9 169.3 104.6 163 100Z" fill="#EDFFFD" />
  <path d="M314.6 104.7H292.6L266.3 69.6L258.3 77.7999V104.7H238.7L238.9 44L249.9 32.9C253 29.8 258.3 32 258.3 36.4V52.2999L288 22.7H312.1L278.9 56.7999L314.6 104.7Z" fill="#EDFFFD" />
  <path d="M106.6 146.4C110.8 148.9 114 152.4 116.2 156.9C118.3 161.4 119.4 166.7 119.4 172.7V226.6H98.8V178.2C98.8 172.8 97.5 168.6 95 165.6C92.4 162.6 88.9 161 84.4 161C81.6 161 79.1 161.7 76.9 163C74.7 164.3 73.1 166.2 71.9 168.6C70.7 171 70.1 173.8 70.1 176.9V226.5H49.5V178.1C49.5 172.7 48.2 168.5 45.7 165.5C43.1 162.5 39.6 160.9 35.1 160.9C32.3 160.9 29.8 161.6 27.6 162.9C25.4 164.2 23.8 166.1 22.6 168.5C21.4 170.9 20.8 173.7 20.8 176.8V226.4H0V158.5C0 150.7 6.30001 144.4 14.1 144.4H18.2V153.4C21 150 24.5 147.3 28.6 145.4C32.8 143.5 37.3 142.5 42.1 142.5C47.8 142.5 52.6 143.6 56.6 145.9C60.6 148.2 63.7 151.3 65.9 155.3C68.6 151.3 72.1 148.2 76.5 145.9C80.9 143.6 85.7 142.5 90.9 142.5C97.2 142.7 102.3 143.9 106.6 146.4Z" fill="#EDFFFD" />
  <path d="M151 226.6C145.3 226.6 140.7 222 140.7 216.3V142.7L146.4 146.4C149.2 148.3 152.9 148.3 155.7 146.4L161.4 142.7V216.3C161.3 222 156.7 226.6 151 226.6Z" fill="#EDFFFD" />
  <path d="M250.3 149.6C255 154.5 258 159.7 259.1 165.2C260.2 170.7 260.8 175.8 260.8 180.7V226.7H239.9V188C239.9 183.9 239.6 180 239 176.3C238.4 172.7 236.8 169.3 234.2 166.3C231.6 163.3 227.6 161.7 222.3 161.7C217.5 161.7 213.4 163.3 210 166.6C206.6 169.9 204.8 176 204.8 185.1V226.7H183.9V158.8C183.9 151 190.2 144.7 198 144.7H202.3V153.1C205.4 149.7 209.2 147 213.6 145.1C218.1 143.2 223.1 142.3 228.9 142.3C238.4 142.2 245.6 144.7 250.3 149.6Z" fill="#EDFFFD" />
  <path d="M331.8 117.3H338.5C346.3 117.3 352.6 123.6 352.6 131.4V212.5C352.6 220.3 346.3 226.6 338.5 226.6H334.4V221.9C328.3 226.6 320.9 228.9 312.2 228.9C304.8 228.9 298.3 227 292.5 223.2C286.8 219.4 282.3 214.3 279.1 207.7C275.9 201.1 274.4 193.8 274.4 185.6C274.4 177.3 276 169.9 279.2 163.3C282.4 156.7 287 151.6 292.9 147.9C298.8 144.2 305.6 142.4 313.3 142.4C320.3 142.4 326.5 144.1 331.8 147.4V117.3ZM334.4 185.6C334.4 177.8 332.9 171.7 330 167.3C327.1 162.9 322.5 160.7 316.3 160.7C311.8 160.7 308.1 161.8 305.1 164C302.1 166.2 299.9 169.2 298.4 172.9C296.9 176.6 296.2 180.9 296.2 185.6C296.2 192.9 297.8 198.9 301.1 203.5C304.3 208.1 309.1 210.4 315.5 210.4C328.2 210.5 334.4 202.2 334.4 185.6Z" fill="#EDFFFD" />
  <path d="M392.8 194.3C394.5 200 397.3 204 401 206.6C404.7 209.1 409.3 209.9 414.8 209C418.7 208.3 422 206.9 424.6 204.6C424.9 204.4 425.1 204.2 425.3 203.9C427.7 201.6 431.4 201.2 434 203.3C437.7 206.2 442.2 209.8 444.9 212.2C441.9 216.3 438.1 219.7 433.7 222.4C429.3 225.1 424.5 226.8 419.3 227.7C411.1 229.1 403.6 228.6 396.6 226.1C389.6 223.7 383.8 219.6 379.2 213.9C374.5 208.2 371.5 201.3 370.2 193.4C368.7 184.7 369.1 176.8 371.4 169.6C373.7 162.4 377.7 156.5 383.2 151.8C388.8 147.1 395.5 144.1 403.4 142.7C411.2 141.4 418.2 141.9 424.6 144.4C430.9 146.9 436.2 151 440.3 156.8C444.5 162.6 447.3 169.8 448.7 178.3C448.9 179.6 449.2 181.7 449.5 184.6L392.8 194.3ZM390.7 179.1L426.3 173C424.7 167.7 422.3 164 419.3 162C416.3 160 412.3 159.4 407.3 160.3C396.6 162.1 391.1 168.4 390.7 179.1Z" fill="#EDFFFD" />
  <path d="M509.5 144.4C511.2 144.4 512.8 144.5 514.2 144.7V164C512.6 163.5 510.7 163.2 508.4 163.2C504.6 163.2 501.1 163.9 498.2 165.3C494.6 167 491.8 169.4 489.9 172.7C488 176 487 180 487 184.7V212.5C487 220.3 480.7 226.6 472.9 226.6H466.2V158.7C466.2 150.9 472.5 144.6 480.3 144.6H484.4V157.8C486.7 153.7 489.6 150.6 493.2 148.5C497.7 145.8 503.2 144.4 509.5 144.4Z" fill="#EDFFFD" />
  <path d="M161.8 121.7L154.2 114.1C152.4 112.3 149.5 112.3 147.7 114.1L140.1 121.7C138.3 123.5 138.3 126.4 140.1 128.2L147.7 135.8C149.5 137.6 152.4 137.6 154.2 135.8L161.8 128.2C163.6 126.4 163.6 123.5 161.8 121.7Z" fill="#2EE39A" />
</svg>