<svg width="230" height="230" viewBox="0 0 230 230" fill="none" xmlns="http://www.w3.org/2000/svg">
<g clip-path="url(#clip0_618_311)">
<path d="M114.916 229.832C178.382 229.832 229.832 178.382 229.832 114.916C229.832 51.4497 178.382 0 114.916 0C51.4497 0 0 51.4497 0 114.916C0 178.382 51.4497 229.832 114.916 229.832Z" fill="url(#paint0_linear_618_311)"/>
<path d="M228.867 129.522C216.192 123.982 199.739 121.338 189.414 125.199C179.761 128.808 181.314 135.985 171.409 138.965C155.418 143.75 144.338 127.172 120.54 127.927C99.3448 128.641 91.9999 142.281 76.009 138.965C66.02 136.867 64.1313 130.571 57.0382 126.122C45.1185 118.651 22.2444 118.735 0.293701 122.974C2.3083 151.724 14.8576 177.578 34.1641 196.633C55.863 200.662 79.4926 202.803 102.493 201.922C142.952 200.411 183.916 189.582 211.785 176.655C220.724 162.721 226.684 146.73 228.867 129.522Z" fill="url(#paint1_linear_618_311)"/>
<path d="M187.106 75.7154H145.597C143.162 75.7154 140.938 74.834 139.217 73.365C137.077 71.5602 135.734 68.8741 135.734 65.8522C135.734 63.1241 136.825 60.6898 138.63 58.8851C140.392 57.1223 142.869 55.9891 145.597 55.9891H187.106C189.834 55.9891 192.268 57.0803 194.073 58.8851C195.836 60.6478 196.969 63.1241 196.969 65.8522C196.969 68.5803 195.878 71.0146 194.073 72.8194C192.268 74.6241 189.834 75.7154 187.106 75.7154Z" fill="#D8E2F4"/>
<path d="M177.232 62.7493C179.171 54.7525 174.261 46.6975 166.264 44.758C158.267 42.8185 150.212 47.7288 148.273 55.7256C146.333 63.7224 151.244 71.7774 159.24 73.7169C167.237 75.6565 175.292 70.7461 177.232 62.7493Z" fill="#D8E2F4"/>
<path d="M60.7736 49.3996H19.978C17.2919 49.3996 14.8995 48.3084 13.1368 46.5876C11.374 44.8248 10.3247 42.4325 10.3247 39.7464C10.3247 37.8577 10.8703 36.0529 11.8357 34.584C13.5565 31.8978 16.5784 30.0931 19.978 30.0931H60.7316C63.4178 30.0931 65.8101 31.1843 67.5729 32.9051C69.3357 34.6679 70.3849 37.0602 70.3849 39.7464C70.3849 42.2226 69.4616 44.4891 67.9086 46.2099C66.1878 48.1825 63.6276 49.3996 60.7736 49.3996Z" fill="white"/>
<path d="M36.8502 47.8467C44.94 47.8467 51.498 41.2887 51.498 33.1989C51.498 25.1091 44.94 18.5511 36.8502 18.5511C28.7604 18.5511 22.2024 25.1091 22.2024 33.1989C22.2024 41.2887 28.7604 47.8467 36.8502 47.8467Z" fill="white"/>
<path d="M194.157 211.155C194.157 211.911 155.88 212.498 108.62 212.498C61.3614 212.498 23.084 211.911 23.084 211.155C23.084 210.4 61.3614 209.812 108.62 209.812C155.88 209.812 194.157 210.442 194.157 211.155Z" fill="url(#paint2_radial_618_311)"/>
<path d="M189.582 181.86C191.387 182.447 190.044 184.965 190.044 186.728C190.044 188.491 190.925 193.36 189.162 194.283C187.399 195.164 184.713 196.927 184.713 198.732C184.713 200.495 184.252 202.719 182.489 203.6C180.726 204.482 178.921 204.482 178.921 205.825C178.921 207.168 179.803 207.588 179.383 208.931C178.921 210.274 178.04 210.693 178.502 211.155H166.96C166.96 211.155 164.735 207.588 165.197 205.405C165.659 203.181 167.841 203.181 168.303 201.418C168.764 199.655 170.947 199.193 170.947 197.431C170.947 195.668 171.828 192.982 173.171 192.1C174.514 191.219 177.159 192.1 178.04 190.338C178.921 188.575 178.04 186.77 179.383 185.889C180.726 185.007 183.37 186.35 184.713 185.007C186.056 183.664 188.281 181.44 189.582 181.86Z" fill="#3FB790"/>
<path d="M187.819 190.883C187.777 190.757 187.651 190.715 187.525 190.715C187.483 190.715 185.469 191.303 184.042 191.261C185.049 187.484 187.19 186.686 187.232 186.686C187.358 186.644 187.4 186.518 187.358 186.392C187.316 186.266 187.19 186.224 187.064 186.266C186.938 186.308 184.252 187.232 183.37 192.184C183.16 193.318 182.405 194.409 181.398 195.458C180.558 194.619 180.264 191.89 180.264 190.883C180.264 190.757 180.181 190.673 180.055 190.673C179.929 190.673 179.845 190.799 179.845 190.883C179.845 191.051 179.971 194.577 181.146 195.752C180.013 196.843 178.628 197.892 177.285 198.942C175.816 200.033 174.389 201.124 173.297 202.215C173.129 201.754 173.087 200.369 173.213 198.858C173.213 198.732 173.129 198.648 173.004 198.606C172.878 198.606 172.794 198.69 172.752 198.816C172.668 199.739 172.542 201.838 172.962 202.509C172.248 203.307 171.702 204.104 171.451 204.943C171.409 205.069 171.493 205.195 171.618 205.237C171.66 205.237 171.66 205.237 171.702 205.237C171.786 205.237 171.87 205.195 171.912 205.069C172.458 203.265 174.473 201.586 176.697 199.865C177.914 201.04 181.272 201.208 181.44 201.208C181.566 201.208 181.65 201.124 181.65 200.998C181.65 200.872 181.566 200.788 181.44 200.746C181.398 200.746 178.208 200.578 177.033 199.571C177.201 199.445 177.368 199.319 177.536 199.193C180.39 197.011 183.37 194.786 183.874 192.142C183.916 191.932 183.958 191.765 184 191.555C184.084 191.555 184.126 191.555 184.21 191.555C185.679 191.555 187.651 191.009 187.735 190.967C187.777 191.135 187.861 191.009 187.819 190.883Z" fill="#34916F"/>
<path d="M163.014 182.741C160.706 183.916 163.014 188.953 162.553 190.715C162.091 192.478 160.79 193.821 161.21 195.584C161.671 197.347 162.553 198.69 162.553 200.453C162.553 202.215 159.909 204.02 160.328 207.084C160.79 210.19 162.091 211.071 162.091 211.071H171.828C171.828 211.071 172.71 210.19 172.71 208.427C172.71 206.664 170.485 204.86 170.947 203.978C171.409 203.097 173.171 201.334 172.71 198.228C172.248 195.122 170.947 195.122 170.485 193.36C170.024 191.597 170.947 190.715 170.485 189.372C170.024 188.029 167.841 186.728 167.379 185.805C167.002 184.965 165.701 181.44 163.014 182.741Z" fill="#90DAD8"/>
<path d="M170.485 198.312C170.401 198.228 170.233 198.228 170.192 198.354C169.73 198.9 168.639 200.159 167.883 200.746C167.883 200.453 167.925 200.117 167.925 199.823C167.925 198.438 167.925 197.053 167.841 195.71C167.841 195.71 167.841 195.71 167.841 195.668C167.799 194.451 167.673 193.318 167.463 192.226C167.002 190.002 164.861 186.938 164.777 186.812C164.693 186.728 164.567 186.686 164.483 186.77C164.4 186.854 164.358 186.98 164.442 187.064C164.483 187.106 166.624 190.17 167.086 192.31C167.254 193.15 167.337 194.031 167.421 194.954C166.624 194.115 165.281 193.443 165.197 193.402C165.071 193.36 164.945 193.402 164.903 193.485C164.861 193.611 164.903 193.737 164.987 193.779C164.987 193.779 166.96 194.787 167.463 195.71C167.505 197.053 167.547 198.438 167.547 199.781C167.547 200.956 167.379 202.215 167.212 203.349C167.044 204.398 166.96 205.321 167.002 205.951C166.246 205.489 164.945 204.985 164.777 204.902C164.651 204.86 164.525 204.902 164.483 205.027C164.442 205.153 164.483 205.279 164.609 205.321C165.197 205.573 166.792 206.245 167.17 206.58C167.673 207.588 168.471 209.686 168.513 211.113C168.513 211.239 168.597 211.323 168.723 211.323C168.848 211.323 168.932 211.197 168.932 211.071C168.848 209.56 168.009 207.336 167.505 206.329C167.296 205.909 167.463 204.692 167.631 203.391C167.715 202.719 167.841 202.006 167.883 201.25C168.765 200.704 170.485 198.648 170.569 198.564C170.611 198.564 170.569 198.396 170.485 198.312Z" fill="white"/>
<path d="M138.42 99.3449C138.42 99.3449 140.14 94.1405 140.392 94.1825C140.644 94.2244 141.064 95.4836 141.064 95.4836C141.064 95.4836 141.903 93.3431 142.995 93.5949C144.086 93.8467 144.757 99.5128 143.078 101.276L138.42 99.3449Z" fill="#FFAA9D"/>
<path d="M93.0912 99.0091C93.0912 99.0091 91.5383 93.9727 91.2864 94.0146C91.0346 94.0146 90.5729 95.2738 90.5729 95.2738C90.5729 95.2738 89.8175 93.0913 88.7262 93.2592C87.635 93.469 86.6696 99.0931 88.2645 100.898L93.0912 99.0091Z" fill="#FFAA9D"/>
<path d="M144.757 100.016L137.79 97.9179C137.79 97.9179 131.956 108.914 127.843 115.63C125.912 118.777 123.856 121.212 122.051 123.226C119.827 122.513 117.35 122.093 114.958 122.093C112.86 122.093 110.803 122.471 108.788 123.058C106.984 121.044 105.011 118.693 103.122 115.63C99.0092 108.956 93.1752 97.9179 93.1752 97.9179L86.2081 100.016C86.2081 100.016 86.0402 105.053 91.4544 120.918C94.6442 130.319 98.0439 135.901 100.352 138.965C99.6807 147.779 99.9325 157.642 100.394 158.818C101.779 162.259 127.507 162.259 129.564 158.482C130.194 157.307 130.026 148.828 129.27 140.686C131.411 138.252 135.608 132.46 139.511 120.918C144.925 105.053 144.757 100.016 144.757 100.016Z" fill="url(#paint3_linear_618_311)"/>
<path d="M69.0839 123.982L70.5109 124.737L69.0839 125.535L68.2865 127.004L67.489 125.535L66.062 124.737L67.489 123.982L68.2865 122.513L69.0839 123.982Z" fill="#FFC400"/>
<path d="M111.181 91.6223L112.566 92.3778L111.181 93.0913L110.425 94.4763L109.67 93.0913L108.285 92.3778L109.67 91.6223L110.425 90.2372L111.181 91.6223Z" fill="#FFC400"/>
<path d="M162.427 126.164L163.896 126.962L162.427 127.801L161.587 129.312L160.79 127.801L159.279 126.962L160.79 126.164L161.587 124.653L162.427 126.164Z" fill="#FFC400"/>
<path d="M149.374 211.365H80.7938C78.1916 211.365 76.135 209.266 76.135 206.706V148.115C76.135 145.513 78.2336 143.456 80.7938 143.456H149.374C151.976 143.456 154.033 145.555 154.033 148.115V206.664C154.033 209.266 151.976 211.365 149.374 211.365Z" fill="url(#paint4_linear_618_311)"/>
<path d="M152.606 170.15H77.52C75.3795 170.15 73.7426 168.345 73.9525 166.204L75.7992 146.688C75.9671 144.841 77.52 143.414 79.3667 143.414H150.759C152.606 143.414 154.159 144.841 154.327 146.688L156.173 166.204C156.383 168.345 154.746 170.15 152.606 170.15Z" fill="#FFC400"/>
<path d="M121.002 211.365H109.124V200.075C109.124 198.648 110.299 197.473 111.726 197.473H118.442C119.869 197.473 121.044 198.648 121.044 200.075V211.365H121.002Z" fill="#FFF2A6"/>
<path d="M113.237 122.807C113.489 121.547 113.447 120.246 113.573 119.491L116.805 119.449C116.847 119.869 117.057 122.471 117.099 122.807C117.182 123.982 112.985 124.15 113.237 122.807Z" fill="#FF9F91"/>
<path d="M119.281 113.237C118.861 112.86 116.469 112.65 115.294 112.65C114.832 112.65 114.076 112.23 113.405 112.272C112.44 112.356 111.6 113.027 111.348 113.237C110.929 113.615 111.306 117.938 111.558 118.735C111.81 119.533 112.943 121.673 115.336 121.673C117.686 121.673 118.861 119.575 119.113 118.735C119.323 117.938 119.701 113.615 119.281 113.237Z" fill="#FFAA9D"/>
<path d="M119.449 112.818C119.785 112.65 120.33 110.845 118.525 110.551C118.525 110.551 119.071 108.872 117.057 108.956C115.084 108.998 111.516 110.089 111.097 113.153C110.677 116.175 111.181 118.651 111.558 119.911C111.768 120.54 112.859 122.345 115.252 122.345C117.602 122.345 118.567 120.498 118.777 119.869C119.113 118.861 119.785 117.057 119.575 114.79C119.701 114.748 119.827 114.748 119.953 114.664C121.338 113.951 119.113 112.985 119.449 112.818ZM117.476 119.449C116.553 119.029 116.217 118.819 115.294 118.819C114.37 118.819 114.077 118.903 113.153 119.323C112.146 119.785 111.139 115.755 111.978 114.58C112.817 113.405 113.111 113.363 113.405 112.44C113.405 112.44 114.916 113.783 116.469 113.615C116.469 113.615 116.973 113.531 116.931 112.901C116.931 112.901 117.476 113.783 118.609 114.58C119.239 115.084 118.484 119.911 117.476 119.449Z" fill="#14336A"/>
</g>
<defs>
<linearGradient id="paint0_linear_618_311" x1="114.899" y1="206.968" x2="114.899" y2="-22.829" gradientUnits="userSpaceOnUse">
<stop stop-color="#FEFEFD"/>
<stop offset="1" stop-color="#EBF3FF"/>
</linearGradient>
<linearGradient id="paint1_linear_618_311" x1="114.582" y1="198.067" x2="114.582" y2="132.361" gradientUnits="userSpaceOnUse">
<stop stop-color="#FEFEFD"/>
<stop offset="0.8395" stop-color="#EBF3FF"/>
</linearGradient>
<radialGradient id="paint2_radial_618_311" cx="0" cy="0" r="1" gradientUnits="userSpaceOnUse" gradientTransform="translate(108.632 211.173) scale(88.6047 59.6544)">
<stop stop-color="#D0DFF3"/>
<stop offset="0.9872" stop-color="#D0DFF3"/>
</radialGradient>
<linearGradient id="paint3_linear_618_311" x1="115.345" y1="105.782" x2="114.129" y2="162.303" gradientUnits="userSpaceOnUse">
<stop stop-color="#3162DF"/>
<stop offset="0.9649" stop-color="#173DB8"/>
</linearGradient>
<linearGradient id="paint4_linear_618_311" x1="115.066" y1="163.849" x2="115.102" y2="205.528" gradientUnits="userSpaceOnUse">
<stop stop-color="#FF8E00"/>
<stop offset="1" stop-color="#FFCF01"/>
</linearGradient>
<clipPath id="clip0_618_311">
<rect width="230" height="230" fill="white"/>
</clipPath>
</defs>
</svg>
