<svg width="230" height="230" viewBox="0 0 230 230" fill="none" xmlns="http://www.w3.org/2000/svg">
<g clip-path="url(#clip0_619_400)">
<path d="M114.916 229.832C178.382 229.832 229.832 178.382 229.832 114.916C229.832 51.4497 178.382 0 114.916 0C51.4497 0 0 51.4497 0 114.916C0 178.382 51.4497 229.832 114.916 229.832Z" fill="url(#paint0_linear_619_400)"/>
<path d="M228.867 129.522C216.192 123.982 199.739 121.338 189.414 125.199C179.761 128.808 181.314 135.985 171.409 138.965C155.418 143.75 144.338 127.172 120.54 127.927C99.3448 128.641 91.9999 142.281 76.009 138.965C66.02 136.867 64.1313 130.571 57.0382 126.122C45.1185 118.651 22.2444 118.735 0.293701 122.974C2.3083 151.724 14.8576 177.578 34.1641 196.633C55.863 200.662 79.4926 202.803 102.493 201.922C142.952 200.411 183.916 189.582 211.785 176.655C220.724 162.721 226.684 146.73 228.867 129.522Z" fill="url(#paint1_linear_619_400)"/>
<path d="M69.5875 73.5328H37.6477C35.7591 73.5328 34.0802 72.8613 32.7372 71.7281C31.1003 70.3431 30.051 68.2865 30.051 65.9781C30.051 63.8796 30.8904 61.9909 32.2755 60.6478C33.6605 59.2628 35.5492 58.4234 37.6058 58.4234H69.5456C71.6441 58.4234 73.5328 59.2628 74.8758 60.6478C76.2609 62.0328 77.1003 63.9215 77.1003 65.9781C77.1003 68.0766 76.2609 69.9653 74.8758 71.3084C73.5747 72.6934 71.6861 73.5328 69.5875 73.5328Z" fill="#D8E2F4"/>
<path d="M50.8684 72.3157C57.1965 72.3157 62.3265 67.1858 62.3265 60.8577C62.3265 54.5296 57.1965 49.3996 50.8684 49.3996C44.5403 49.3996 39.4104 54.5296 39.4104 60.8577C39.4104 67.1858 44.5403 72.3157 50.8684 72.3157Z" fill="#D8E2F4"/>
<path d="M205.657 50.9526H164.903C162.217 50.9526 159.825 49.8613 158.062 48.1405C156.299 46.3777 155.25 43.9854 155.25 41.2993C155.25 39.4106 155.796 37.6058 156.761 36.1369C158.482 33.4507 161.504 31.646 164.903 31.646H205.657C208.343 31.646 210.735 32.7372 212.498 34.458C214.261 36.2208 215.31 38.6131 215.31 41.2993C215.31 43.7755 214.387 46.042 212.834 47.7628C211.071 49.6934 208.511 50.9526 205.657 50.9526Z" fill="white"/>
<path d="M196.219 37.1087C197.515 29.1233 192.092 21.5992 184.107 20.3032C176.121 19.0073 168.597 24.4301 167.301 32.4155C166.005 40.4009 171.428 47.925 179.414 49.2209C187.399 50.5169 194.923 45.0941 196.219 37.1087Z" fill="white"/>
<path d="M174.893 211.113C174.893 211.869 149.122 212.456 117.309 212.456C85.4947 212.456 59.7246 211.869 59.7246 211.113C59.7246 210.358 85.4947 209.77 117.309 209.77C149.122 209.77 174.893 210.4 174.893 211.113Z" fill="url(#paint2_radial_619_400)"/>
<path d="M152.06 70.5949H134.013C131.998 70.5949 130.109 71.6861 129.102 73.4069L120.078 89.0201C119.071 90.7829 119.071 92.9234 120.078 94.6861L129.102 110.299C130.109 112.062 131.998 113.111 134.013 113.111H152.06C154.075 113.111 155.964 112.02 156.971 110.299L165.995 94.6861C167.002 92.9234 167.002 90.7829 165.995 89.0201L156.971 73.4489C155.964 71.6861 154.117 70.5949 152.06 70.5949Z" fill="white"/>
<path d="M152.06 114.412H134.013C131.537 114.412 129.27 113.069 128.011 110.971L118.987 95.3577C117.77 93.2172 117.77 90.573 118.987 88.4325L128.011 72.8193C129.228 70.6788 131.537 69.3777 134.013 69.3777H152.06C154.537 69.3777 156.803 70.7208 158.062 72.8193L167.086 88.4325C168.303 90.573 168.303 93.2172 167.086 95.3577L158.062 110.971C156.845 113.069 154.537 114.412 152.06 114.412ZM134.055 71.854C132.502 71.854 131.033 72.6934 130.235 74.0365L121.212 89.6496C120.414 90.9927 120.414 92.6715 121.212 94.0566L130.235 109.67C131.033 111.013 132.46 111.852 134.055 111.852H152.102C153.655 111.852 155.124 111.013 155.922 109.67L164.945 94.0566C165.743 92.7135 165.743 91.0347 164.945 89.6496L155.922 74.0365C155.124 72.6934 153.697 71.854 152.102 71.854H134.055Z" fill="#E0E9F3"/>
<path d="M153.949 79.9544C153.529 79.9544 153.11 79.7445 152.858 79.3248C152.06 77.9818 150.633 77.1423 149.038 77.1423C148.325 77.1423 147.779 76.5967 147.779 75.8832C147.779 75.1697 148.325 74.6241 149.038 74.6241C151.515 74.6241 153.781 75.9672 155.04 78.0657C155.376 78.6533 155.166 79.4507 154.579 79.7865C154.369 79.9124 154.159 79.9544 153.949 79.9544Z" fill="#E0E9F3"/>
<path d="M145.387 113.153H140.77V208.721H145.387V113.153Z" fill="#E0E9F3"/>
<path d="M151.431 206.454H134.726V211.071H151.431V206.454Z" fill="#E0E9F3"/>
<path d="M137.748 95.2317H136.405V97.8339H134.055V95.2317H129.228V93.1332L133.719 85.7464H136.405V93.3431H137.79V95.2317H137.748ZM134.055 93.3431V88.0967L131.033 93.3431H134.055Z" fill="#50C6A1"/>
<path d="M146.352 87.2153C146.982 88.3066 147.276 89.8595 147.276 91.8741C147.276 93.8887 146.982 95.4416 146.352 96.5328C145.723 97.6241 144.632 98.1697 143.079 98.1697C141.526 98.1697 140.435 97.6241 139.805 96.5328C139.175 95.4416 138.882 93.8887 138.882 91.8741C138.882 89.8595 139.175 88.3066 139.805 87.2153C140.435 86.1241 141.526 85.5785 143.079 85.5785C144.632 85.5785 145.723 86.1241 146.352 87.2153ZM141.652 95.1058C141.862 95.8613 142.365 96.2391 143.079 96.2391C143.792 96.2391 144.254 95.8613 144.464 95.1058C144.674 94.3504 144.799 93.3011 144.799 91.8741C144.799 90.4051 144.674 89.3139 144.464 88.6004C144.254 87.8869 143.792 87.5511 143.079 87.5511C142.365 87.5511 141.903 87.8869 141.652 88.6004C141.442 89.3139 141.316 90.4051 141.316 91.8741C141.316 93.3011 141.442 94.3504 141.652 95.1058Z" fill="#50C6A1"/>
<path d="M156.929 95.2317H155.544V97.8339H153.194V95.2317H148.367V93.1332L152.858 85.7464H155.544V93.3431H156.929V95.2317ZM153.194 93.3431V88.0967L150.172 93.3431H153.194Z" fill="#50C6A1"/>
<path d="M148.661 170.318C148.325 171.912 150.256 172.248 150.591 174.473C150.927 176.697 149.962 177.327 150.256 178.628C150.591 179.887 152.48 180.223 152.816 183.412C153.152 186.602 151.85 186.266 152.186 188.197C152.522 190.128 154.411 190.128 154.746 191.723C155.082 193.318 155.082 195.542 155.712 197.473C156.341 199.403 158.272 202.257 159.237 202.257C160.203 202.257 162.763 196.843 162.091 195.248C161.462 193.653 160.496 193.318 160.496 192.058C160.496 190.799 161.756 187.609 161.462 185.385C161.126 183.161 158.272 182.195 157.936 180.6C157.6 179.005 158.566 174.85 156.341 172.962C154.075 170.947 148.996 168.723 148.661 170.318Z" fill="#3FB790"/>
<path d="M159.027 201.628C158.944 201.628 158.86 201.544 158.86 201.46C158.86 201.418 158.818 197.263 157.6 196.046C156.383 194.828 155.67 191.051 155.334 183.832C155.04 177.285 150.34 171.87 150.256 171.828C150.214 171.745 150.214 171.661 150.256 171.619C150.34 171.577 150.423 171.577 150.465 171.619C150.507 171.661 155.292 177.159 155.586 183.832C155.922 190.883 156.635 194.703 157.768 195.836C159.069 197.137 159.111 201.292 159.111 201.46C159.195 201.544 159.111 201.628 159.027 201.628Z" fill="#34916F"/>
<path d="M177.83 175.144C178.964 176.277 175.27 176.739 174.976 178.964C174.641 181.188 174.641 182.153 173.382 183.412C172.122 184.672 170.192 185.007 170.528 186.938C170.863 188.869 171.493 190.757 170.528 191.723C169.562 192.688 167.338 192.688 166.708 194.283C166.079 195.878 166.372 197.808 165.113 199.361C163.854 200.914 161.924 204.146 160.329 203.516C158.734 202.887 159.699 195.542 160.329 194.283C160.958 193.024 161.588 192.058 161.588 191.093C161.588 190.128 161.252 188.533 161.923 186.938C162.553 185.343 166.079 184.714 166.372 183.748C166.708 182.783 167.002 177.704 168.933 176.403C170.821 175.144 175.942 173.214 177.83 175.144Z" fill="#4FC7A0"/>
<path d="M160.79 202.971C160.748 202.971 160.748 202.971 160.706 202.929C160.622 202.887 160.622 202.803 160.664 202.719C160.664 202.677 161.965 200.578 162.217 199.487C162.301 199.193 162.385 198.774 162.469 198.312C162.805 196.549 163.35 193.863 164.19 193.066C165.365 191.891 167.296 188.239 168.597 183.58C170.234 177.83 175.648 176.151 175.732 176.151C175.816 176.109 175.9 176.193 175.942 176.277C175.984 176.361 175.9 176.445 175.816 176.487C175.774 176.487 170.485 178.124 168.933 183.706C167.589 188.407 165.659 192.1 164.442 193.318C163.686 194.073 163.141 196.801 162.805 198.396C162.721 198.9 162.637 199.319 162.553 199.613C162.259 200.746 161 202.845 160.958 202.929C160.916 202.929 160.874 202.971 160.79 202.971Z" fill="#3FB690"/>
<path d="M160.412 178.796C156.593 179.131 157.852 190.589 157.852 190.589C158.817 200.453 160.077 204.943 161.042 205.237C162.007 205.531 163.896 191.219 163.896 187.693C163.896 187.693 164.232 178.46 160.412 178.796Z" fill="#90DAD8"/>
<path d="M160.874 203.642C160.748 203.642 160.706 203.558 160.706 203.474C161.965 193.108 160.412 180.055 160.37 179.929C160.37 179.845 160.412 179.761 160.496 179.761C160.58 179.761 160.664 179.803 160.664 179.887C160.664 180.013 162.259 193.108 161 203.516C161 203.6 160.958 203.642 160.874 203.642Z" fill="white"/>
<path d="M165.617 210.903H155.922C155.586 210.903 155.334 210.693 155.292 210.442L153.865 200.369C153.781 199.907 154.159 199.529 154.62 199.529H166.918C167.38 199.529 167.715 199.949 167.673 200.369L166.246 210.442C166.204 210.693 165.953 210.903 165.617 210.903Z" fill="#D0DAED"/>
<path d="M83.8159 203.139V207H97.0367L97.4984 202.551L83.8159 203.139Z" fill="url(#paint3_linear_619_400)"/>
<path d="M83.8158 207L81.3395 209.77C81.1297 210.022 81.1297 210.316 81.2556 210.526C81.3815 210.735 81.5914 210.861 81.8432 210.861H96.1133C96.2392 210.861 96.3651 210.819 96.449 210.735C96.533 210.651 96.6169 210.526 96.6169 210.4L97.0366 206.958H83.8158V207Z" fill="#0B2252"/>
<path d="M120.205 203.139L120.582 207H107.403L106.732 202.551L120.205 203.139Z" fill="url(#paint4_linear_619_400)"/>
<path d="M120.582 207L123.058 209.77C123.268 210.022 123.268 210.316 123.142 210.526C123.016 210.735 122.807 210.861 122.555 210.861H108.327C108.201 210.861 108.075 210.819 107.991 210.735C107.907 210.651 107.823 210.526 107.823 210.4L107.403 206.958H120.582V207Z" fill="#0B2252"/>
<path d="M90.4472 135.818C90.4472 135.818 85.4107 153.026 84.4454 166.162C83.522 179.257 83.564 203.6 83.564 203.6H97.6662C97.6662 203.6 100.982 170.401 102.283 170.276C103.584 170.15 106.228 203.6 106.228 203.6H121.002C121.002 203.6 117.686 146.436 112.398 135.859H90.4472V135.818Z" fill="#14336D"/>
<path d="M112.482 109.922C109.796 107.949 105.389 106.816 101.318 106.816C97.4983 106.816 93.7209 108.033 90.4052 109.586C85.7465 111.768 85.9144 141.526 86.7538 143.54C88.1388 146.982 113.867 146.982 115.923 143.204C117.099 140.98 115.336 112.02 112.482 109.922Z" fill="url(#paint5_linear_619_400)"/>
<path d="M99.5968 107.529C99.8487 106.27 99.8067 104.969 99.9326 104.214L103.164 104.172C103.206 104.591 103.416 107.193 103.458 107.529C103.542 108.662 99.345 108.83 99.5968 107.529Z" fill="#FF9F91"/>
<path d="M105.641 97.9179C105.221 97.5401 102.829 97.3303 101.653 97.3303C101.192 97.3303 100.436 96.9106 99.7648 96.9526C98.7995 97.0365 97.9601 97.708 97.7082 97.9179C97.2885 98.2956 97.6663 102.619 97.9181 103.416C98.1699 104.213 99.3031 106.354 101.695 106.354C104.046 106.354 105.221 104.255 105.473 103.416C105.683 102.619 106.06 98.2956 105.641 97.9179Z" fill="#FFAA9D"/>
<path d="M105.85 97.4982C106.186 97.3303 106.732 95.5255 104.927 95.2317C104.927 95.2317 105.473 93.5529 103.458 93.6369C101.486 93.6788 97.918 94.7701 97.4983 97.8339C97.0786 100.856 97.5822 103.332 97.96 104.591C98.1698 105.221 99.2611 107.026 101.653 107.026C104.004 107.026 104.969 105.179 105.179 104.549C105.515 103.542 106.186 101.737 105.976 99.4708C106.102 99.4288 106.228 99.4288 106.354 99.3449C107.697 98.6314 105.473 97.6661 105.85 97.4982ZM103.836 104.13C102.913 103.71 102.577 103.5 101.653 103.5C100.73 103.5 100.436 103.584 99.5129 104.004C98.5056 104.465 97.4983 100.436 98.3377 99.2609C99.1771 98.0858 99.4709 98.0438 99.7647 97.1204C99.7647 97.1204 101.276 98.4635 102.829 98.2956C102.829 98.2956 103.332 98.2117 103.29 97.5821C103.29 97.5821 103.836 98.4635 104.969 99.2609C105.599 99.7646 104.843 104.591 103.836 104.13Z" fill="#14336A"/>
<path d="M62.0749 107.991C62.0749 107.991 61.2775 104.549 60.2702 103.29C59.4308 102.325 59.2629 104.046 59.2629 104.046C59.2629 104.046 54.9399 103.248 52.5056 102.661C51.96 102.535 51.5403 103.206 51.918 103.626C53.387 105.305 55.8213 107.739 58.0457 107.949H62.0749V107.991Z" fill="#FFAA9D"/>
<path d="M98.4217 110.047C98.4217 110.047 96.617 109.124 92.4619 109.544C88.2648 109.964 83.4801 114.035 75.3798 113.573C67.2794 113.069 62.2429 107.655 62.2429 107.655H56.9546C56.9546 107.655 58.5495 127.423 75.8834 127.13C93.1754 126.836 99.9747 124.443 99.9747 124.443L98.4217 110.047Z" fill="url(#paint6_linear_619_400)"/>
<path d="M141.274 107.949C141.274 107.949 142.071 104.507 143.079 103.248C143.918 102.283 144.086 104.004 144.086 104.004C144.086 104.004 148.409 103.206 150.843 102.619C151.389 102.493 151.809 103.164 151.431 103.584C149.962 105.263 147.528 107.697 145.303 107.907H141.274V107.949Z" fill="#FFAA9D"/>
<path d="M104.927 110.005C104.927 110.005 106.732 109.082 110.887 109.502C115.084 109.922 119.869 113.993 127.969 113.531C136.07 113.027 141.106 107.613 141.106 107.613H146.394C146.394 107.613 144.757 127.381 127.466 127.088C110.174 126.794 103.374 124.401 103.374 124.401L104.927 110.005Z" fill="url(#paint7_linear_619_400)"/>
</g>
<defs>
<linearGradient id="paint0_linear_619_400" x1="114.899" y1="206.968" x2="114.899" y2="-22.829" gradientUnits="userSpaceOnUse">
<stop stop-color="#FEFEFD"/>
<stop offset="1" stop-color="#EBF3FF"/>
</linearGradient>
<linearGradient id="paint1_linear_619_400" x1="114.582" y1="198.067" x2="114.582" y2="132.361" gradientUnits="userSpaceOnUse">
<stop stop-color="#FEFEFD"/>
<stop offset="0.8395" stop-color="#EBF3FF"/>
</linearGradient>
<radialGradient id="paint2_radial_619_400" cx="0" cy="0" r="1" gradientUnits="userSpaceOnUse" gradientTransform="translate(117.306 211.13) scale(59.6539 59.6541)">
<stop stop-color="#D0DFF3"/>
<stop offset="0.9872" stop-color="#D0DFF3"/>
</radialGradient>
<linearGradient id="paint3_linear_619_400" x1="83.8334" y1="204.776" x2="97.5147" y2="204.776" gradientUnits="userSpaceOnUse">
<stop stop-color="#FFAA9D"/>
<stop offset="0.9662" stop-color="#FF9F91"/>
</linearGradient>
<linearGradient id="paint4_linear_619_400" x1="120.592" y1="204.772" x2="106.73" y2="204.772" gradientUnits="userSpaceOnUse">
<stop stop-color="#FFAA9D"/>
<stop offset="0.9662" stop-color="#FF9F91"/>
</linearGradient>
<linearGradient id="paint5_linear_619_400" x1="101.264" y1="123.785" x2="101.264" y2="153.787" gradientUnits="userSpaceOnUse">
<stop stop-color="#3162DF"/>
<stop offset="0.9649" stop-color="#173DB8"/>
</linearGradient>
<linearGradient id="paint6_linear_619_400" x1="91.8741" y1="110.293" x2="60.156" y2="123.929" gradientUnits="userSpaceOnUse">
<stop stop-color="#3162DF"/>
<stop offset="0.9649" stop-color="#173DB8"/>
</linearGradient>
<linearGradient id="paint7_linear_619_400" x1="111.483" y1="110.258" x2="143.201" y2="123.894" gradientUnits="userSpaceOnUse">
<stop stop-color="#3162DF"/>
<stop offset="0.9649" stop-color="#173DB8"/>
</linearGradient>
<clipPath id="clip0_619_400">
<rect width="230" height="230" fill="white"/>
</clipPath>
</defs>
</svg>
