<svg width="13" height="13" viewBox="0 0 13 13" fill="none" xmlns="http://www.w3.org/2000/svg">
<path d="M9.12515 0H3.70849C2.99046 0.00086009 2.30208 0.286478 1.79435 0.794202C1.28663 1.30193 1.00101 1.9903 1.00015 2.70833V10.8333C1.00015 11.408 1.22843 11.9591 1.63475 12.3654C2.04108 12.7717 2.59218 13 3.16682 13H9.12515C9.84318 12.9991 10.5316 12.7135 11.0393 12.2058C11.547 11.6981 11.8326 11.0097 11.8335 10.2917V2.70833C11.8326 1.9903 11.547 1.30193 11.0393 0.794202C10.5316 0.286478 9.84318 0.00086009 9.12515 0V0ZM10.7502 2.70833V8.66667H4.25015V1.08333H9.12515C9.55613 1.08333 9.96945 1.25454 10.2742 1.55928C10.5789 1.86403 10.7502 2.27736 10.7502 2.70833ZM3.16682 1.1765V8.66667C2.78637 8.66634 2.4126 8.76669 2.08349 8.95754V2.70833C2.08353 2.37233 2.18774 2.04461 2.38175 1.77028C2.57576 1.49595 2.85003 1.2885 3.16682 1.1765V1.1765ZM9.12515 11.9167H3.16682C2.8795 11.9167 2.60395 11.8025 2.40079 11.5994C2.19762 11.3962 2.08349 11.1207 2.08349 10.8333C2.08349 10.546 2.19762 10.2705 2.40079 10.0673C2.60395 9.86414 2.8795 9.75 3.16682 9.75H10.7502V10.2917C10.7502 10.7226 10.5789 11.136 10.2742 11.4407C9.96945 11.7455 9.55613 11.9167 9.12515 11.9167Z"/>
</svg>
