<svg width="13" height="13" viewBox="0 0 13 13" fill="none" xmlns="http://www.w3.org/2000/svg">
<path fill-rule="evenodd" clip-rule="evenodd" d="M9.75 1.08333H10.2917C11.0097 1.08419 11.6981 1.36981 12.2058 1.87754C12.7135 2.38526 12.9991 3.07364 13 3.79167V10.2917C12.9991 11.0097 12.7135 11.6981 12.2058 12.2058C11.6981 12.7135 11.0097 12.9991 10.2917 13H2.70833C1.9903 12.9991 1.30193 12.7135 0.794202 12.2058C0.286478 11.6981 0.00086009 11.0097 0 10.2917V3.79167C0.00086009 3.07364 0.286478 2.38526 0.794202 1.87754C1.30193 1.36981 1.9903 1.08419 2.70833 1.08333H3.25V0.541667C3.25 0.398008 3.30707 0.260233 3.40865 0.158651C3.51023 0.0570683 3.64801 0 3.79167 0C3.93533 0 4.0731 0.0570683 4.17468 0.158651C4.27627 0.260233 4.33333 0.398008 4.33333 0.541667V1.08333H8.66667V0.541667C8.66667 0.398008 8.72373 0.260233 8.82532 0.158651C8.9269 0.0570683 9.06467 0 9.20833 0C9.35199 0 9.48977 0.0570683 9.59135 0.158651C9.69293 0.260233 9.75 0.398008 9.75 0.541667V1.08333ZM1.55928 2.64262C1.25454 2.94736 1.08333 3.36069 1.08333 3.79167V4.33333H11.9167V3.79167C11.9167 3.36069 11.7455 2.94736 11.4407 2.64262C11.136 2.33787 10.7226 2.16667 10.2917 2.16667H2.70833C2.27736 2.16667 1.86403 2.33787 1.55928 2.64262ZM1.55928 11.4407C1.86403 11.7455 2.27736 11.9167 2.70833 11.9167H10.2917C10.7226 11.9167 11.136 11.7455 11.4407 11.4407C11.7455 11.136 11.9167 10.7226 11.9167 10.2917V5.41667H1.08333V10.2917C1.08333 10.7226 1.25454 11.136 1.55928 11.4407ZM7.3125 8.125C7.3125 8.57373 6.94873 8.9375 6.5 8.9375C6.05127 8.9375 5.6875 8.57373 5.6875 8.125C5.6875 7.67627 6.05127 7.3125 6.5 7.3125C6.94873 7.3125 7.3125 7.67627 7.3125 8.125ZM3.79157 8.9375C4.2403 8.9375 4.60407 8.57373 4.60407 8.125C4.60407 7.67627 4.2403 7.3125 3.79157 7.3125C3.34284 7.3125 2.97907 7.67627 2.97907 8.125C2.97907 8.57373 3.34284 8.9375 3.79157 8.9375ZM10.0209 8.125C10.0209 8.57373 9.65713 8.9375 9.2084 8.9375C8.75967 8.9375 8.3959 8.57373 8.3959 8.125C8.3959 7.67627 8.75967 7.3125 9.2084 7.3125C9.65713 7.3125 10.0209 7.67627 10.0209 8.125Z" fill="#252626"/>
</svg>
