<svg width="13" height="13" viewBox="0 0 13 13" xmlns="http://www.w3.org/2000/svg">
<path d="M5.17652 6.5L0.274126 1.5976C-0.0913927 1.23211 -0.0912924 0.639552 0.274084 0.274127C0.639552 -0.0913878 1.23212 -0.0913569 1.59758 0.274107L6.49999 5.17655L11.4024 0.274127C11.7679 -0.0914145 12.3604 -0.0913003 12.7259 0.274085C13.0914 0.639553 13.0914 1.23212 12.7259 1.59758L7.82348 6.50003L12.7259 11.4024C13.0914 11.7679 13.0913 12.3605 12.7259 12.726C12.5432 12.9086 12.3029 13 12.0641 13C11.8254 13 11.5851 12.9086 11.4024 12.7259L6.49999 7.8235L1.59756 12.726C1.4149 12.9086 1.17462 13 0.935854 13C0.697133 13 0.456801 12.9086 0.274126 12.7259C-0.091387 12.3605 -0.0913567 11.7679 0.274105 11.4025L5.17652 6.5Z"/>
</svg>
