<svg width="13" height="13" viewBox="0 0 13 13" xmlns="http://www.w3.org/2000/svg">
<path fill-rule="evenodd" clip-rule="evenodd" d="M8.68143 1.77264H11.0449C11.2017 1.77264 11.3519 1.83489 11.4628 1.9457C11.5736 2.05651 11.6358 2.20681 11.6358 2.36352C11.6358 2.52023 11.5736 2.67052 11.4628 2.78133C11.3519 2.89214 11.2017 2.9544 11.0449 2.9544H1.59088C1.43417 2.9544 1.28388 2.89214 1.17306 2.78133C1.06225 2.67052 1 2.52023 1 2.36352C1 2.20681 1.06225 2.05651 1.17306 1.9457C1.28388 1.83489 1.43417 1.77264 1.59088 1.77264H3.9544V0.590879C3.9544 0.434168 4.01665 0.283876 4.12746 0.173064C4.23827 0.0622531 4.38856 0 4.54527 0H8.09055C8.24726 0 8.39755 0.0622531 8.50836 0.173064C8.61918 0.283876 8.68143 0.434168 8.68143 0.590879V1.77264ZM5.13615 1.18176V1.77264H7.49967V1.18176H5.13615Z"/>
<path d="M10.0363 3.71834C10.1471 3.60753 10.2974 3.54527 10.4541 3.54527C10.6108 3.54527 10.7611 3.60753 10.8719 3.71834C10.9827 3.82915 11.0449 3.97944 11.0449 4.13615V10.7487C11.0281 11.361 10.7693 11.9416 10.3251 12.3635C9.88105 12.7853 9.28786 13.014 8.67552 12.9993H3.9603C3.34796 13.014 2.75478 12.7853 2.31068 12.3635C1.86657 11.9416 1.60774 11.361 1.59088 10.7487V4.13615C1.59088 3.97944 1.65313 3.82915 1.76394 3.71834C1.87475 3.60753 2.02505 3.54527 2.18176 3.54527C2.33847 3.54527 2.48876 3.60753 2.59957 3.71834C2.71038 3.82915 2.77264 3.97944 2.77264 4.13615V10.7487C2.78959 11.0475 2.92392 11.3275 3.14637 11.5277C3.36882 11.7279 3.66138 11.8321 3.9603 11.8176H8.67552C8.97445 11.8321 9.267 11.7279 9.48945 11.5277C9.71191 11.3275 9.84624 11.0475 9.86319 10.7487V4.13615C9.86319 3.97944 9.92544 3.82915 10.0363 3.71834Z"/>
<path d="M5.72703 9.45407V5.31791C5.72703 5.1612 5.66478 5.01091 5.55397 4.9001C5.44316 4.78929 5.29287 4.72703 5.13615 4.72703C4.97944 4.72703 4.82915 4.78929 4.71834 4.9001C4.60753 5.01091 4.54527 5.1612 4.54527 5.31791V9.45407C4.54527 9.61078 4.60753 9.76107 4.71834 9.87188C4.82915 9.98269 4.97944 10.0449 5.13615 10.0449C5.29287 10.0449 5.44316 9.98269 5.55397 9.87188C5.66478 9.76107 5.72703 9.61078 5.72703 9.45407Z"/>
<path d="M8.09055 5.31791V9.45407C8.09055 9.61078 8.0283 9.76107 7.91749 9.87188C7.80668 9.98269 7.65638 10.0449 7.49967 10.0449C7.34296 10.0449 7.19267 9.98269 7.08186 9.87188C6.97105 9.76107 6.90879 9.61078 6.90879 9.45407V5.31791C6.90879 5.1612 6.97105 5.01091 7.08186 4.9001C7.19267 4.78929 7.34296 4.72703 7.49967 4.72703C7.65638 4.72703 7.80668 4.78929 7.91749 4.9001C8.0283 5.01091 8.09055 5.1612 8.09055 5.31791Z"/>
</svg>
