<svg width="13" height="13" viewBox="0 0 13 13" xmlns="http://www.w3.org/2000/svg">
  <path d="M8.58333 3.25C8.72699 3.25 8.86477 3.30707 8.96635 3.40865C9.06793 3.51023 9.125 3.64801 9.125 3.79167C9.125 3.93533 9.06793 4.0731 8.96635 4.17468C8.86477 4.27627 8.72699 4.33333 8.58333 4.33333H4.25C4.10634 4.33333 3.96857 4.27627 3.86698 4.17468C3.7654 4.0731 3.70833 3.93533 3.70833 3.79167C3.70833 3.64801 3.7654 3.51023 3.86698 3.40865C3.96857 3.30707 4.10634 3.25 4.25 3.25H8.58333ZM12.758 12.8413C12.6564 12.9428 12.5186 12.9999 12.375 12.9999C12.2314 12.9999 12.0936 12.9428 11.992 12.8413L10.6882 11.5375C10.3021 11.7839 9.85388 11.9154 9.39583 11.9167C8.91374 11.9167 8.44248 11.7737 8.04163 11.5059C7.64079 11.238 7.32836 10.8574 7.14388 10.412C6.95939 9.96656 6.91112 9.47646 7.00517 9.00363C7.09922 8.53081 7.33137 8.09648 7.67226 7.75559C8.01315 7.4147 8.44747 7.18255 8.9203 7.0885C9.39313 6.99445 9.88323 7.04272 10.3286 7.22721C10.774 7.4117 11.1547 7.72412 11.4225 8.12496C11.6904 8.52581 11.8333 8.99708 11.8333 9.47917C11.8321 9.93722 11.7006 10.3855 11.4542 10.7716L12.758 12.0754C12.8595 12.177 12.9166 12.3147 12.9166 12.4583C12.9166 12.602 12.8595 12.7397 12.758 12.8413ZM9.39583 10.8333C9.66366 10.8333 9.92548 10.7539 10.1482 10.6051C10.3709 10.4563 10.5444 10.2448 10.6469 9.99738C10.7494 9.74994 10.7762 9.47766 10.724 9.21498C10.6717 8.9523 10.5428 8.71101 10.3534 8.52163C10.164 8.33224 9.9227 8.20327 9.66002 8.15102C9.39734 8.09877 9.12506 8.12559 8.87762 8.22808C8.63017 8.33057 8.41868 8.50414 8.26988 8.72683C8.12109 8.94952 8.04167 9.21134 8.04167 9.47917C8.04167 9.83831 8.18434 10.1828 8.43829 10.4367C8.69225 10.6907 9.03669 10.8333 9.39583 10.8333ZM6.95833 11.9167H3.70833C3.27736 11.9167 2.86403 11.7455 2.55928 11.4407C2.25454 11.136 2.08333 10.7226 2.08333 10.2917V2.70833C2.08333 2.27736 2.25454 1.86403 2.55928 1.55928C2.86403 1.25454 3.27736 1.08333 3.70833 1.08333H10.2083C10.352 1.08333 10.4898 1.1404 10.5913 1.24198C10.6929 1.34357 10.75 1.48134 10.75 1.625V5.95833C10.75 6.10199 10.8071 6.23977 10.9086 6.34135C11.0102 6.44293 11.148 6.5 11.2917 6.5C11.4353 6.5 11.5731 6.44293 11.6747 6.34135C11.7763 6.23977 11.8333 6.10199 11.8333 5.95833V1.625C11.8333 1.19402 11.6621 0.780698 11.3574 0.475951C11.0526 0.171205 10.6393 0 10.2083 0L3.70833 0C2.9903 0.00086009 2.30193 0.286478 1.7942 0.794202C1.28648 1.30193 1.00086 1.9903 1 2.70833V10.2917C1.00086 11.0097 1.28648 11.6981 1.7942 12.2058C2.30193 12.7135 2.9903 12.9991 3.70833 13H6.95833C7.10199 13 7.23977 12.9429 7.34135 12.8414C7.44293 12.7398 7.5 12.602 7.5 12.4583C7.5 12.3147 7.44293 12.1769 7.34135 12.0753C7.23977 11.9737 7.10199 11.9167 6.95833 11.9167Z" />
</svg>