<svg width="13" height="13" viewBox="0 0 13 13" xmlns="http://www.w3.org/2000/svg">
  <path d="M6.08334 2.16669C6.68166 2.16669 7.16669 1.68166 7.16669 1.08335C7.16669 0.485031 6.68166 0 6.08334 0C5.48503 0 5 0.485031 5 1.08335C5 1.68166 5.48503 2.16669 6.08334 2.16669Z" />
  <path d="M6.08334 7.58358C6.68166 7.58358 7.16669 7.09855 7.16669 6.50024C7.16669 5.90193 6.68166 5.4169 6.08334 5.4169C5.48503 5.4169 5 5.90193 5 6.50024C5 7.09855 5.48503 7.58358 6.08334 7.58358Z" />
  <path d="M7.16669 11.9166C7.16669 12.515 6.68166 13 6.08334 13C5.48503 13 5 12.515 5 11.9166C5 11.3183 5.48503 10.8333 6.08334 10.8333C6.68166 10.8333 7.16669 11.3183 7.16669 11.9166Z" />
</svg>