<svg width="13" height="13" viewBox="0 0 13 13" xmlns="http://www.w3.org/2000/svg">
  <path d="M2.16669 6.50003C2.16669 5.90172 1.68166 5.41669 1.08335 5.41669C0.48503 5.41669 -7.35076e-08 5.90172 -4.73545e-08 6.50003C-2.12013e-08 7.09834 0.485031 7.58337 1.08335 7.58337C1.68166 7.58337 2.16669 7.09834 2.16669 6.50003Z" />
  <path d="M7.58358 6.50003C7.58358 5.90172 7.09855 5.41669 6.50024 5.41669C5.90193 5.41669 5.4169 5.90172 5.4169 6.50003C5.4169 7.09834 5.90193 7.58337 6.50024 7.58337C7.09855 7.58337 7.58358 7.09834 7.58358 6.50003Z" />
  <path d="M11.9166 5.41669C12.515 5.41669 13 5.90172 13 6.50003C13 7.09834 12.515 7.58337 11.9166 7.58337C11.3183 7.58337 10.8333 7.09834 10.8333 6.50003C10.8333 5.90172 11.3183 5.41669 11.9166 5.41669Z" />
</svg>