<svg width="13" height="13" viewBox="0 0 13 13" xmlns="http://www.w3.org/2000/svg">
<path fill-rule="evenodd" clip-rule="evenodd" d="M7.05263 1.02632C7.05263 1.59313 6.59313 2.05263 6.02632 2.05263C5.4595 2.05263 5 1.59313 5 1.02632C5 0.459497 5.4595 0 6.02632 0C6.59313 0 7.05263 0.459497 7.05263 1.02632ZM7.05263 6.50004C7.05263 7.06686 6.59313 7.52636 6.02632 7.52636C5.4595 7.52636 5 7.06686 5 6.50004C5 5.93322 5.4595 5.47373 6.02632 5.47373C6.59313 5.47373 7.05263 5.93322 7.05263 6.50004ZM6.02632 13C6.59313 13 7.05263 12.5405 7.05263 11.9737C7.05263 11.4069 6.59313 10.9474 6.02632 10.9474C5.4595 10.9474 5 11.4069 5 11.9737C5 12.5405 5.4595 13 6.02632 13Z"/>
</svg>
