<svg width="13" height="13" viewBox="0 0 13 13" fill="none" xmlns="http://www.w3.org/2000/svg">
  <path fill-rule="evenodd" clip-rule="evenodd" d="M2.70878 11.9187H3.7923C3.93598 11.9187 4.07378 11.9757 4.17538 12.0773C4.27698 12.1789 4.33406 12.3167 4.33406 12.4604C4.33406 12.6041 4.27698 12.7419 4.17538 12.8435C4.07378 12.9451 3.93598 13.0022 3.7923 13.0022H2.70878C1.99063 13.0013 1.30214 12.7156 0.794335 12.2078C0.286525 11.7 0.000860233 11.0115 0 10.2934V2.70878C0.000860233 1.99063 0.286525 1.30214 0.794335 0.794335C1.30214 0.286525 1.99063 0.000860233 2.70878 0H3.7923C3.93598 0 4.07378 0.0570778 4.17538 0.158677C4.27698 0.260276 4.33406 0.398074 4.33406 0.541757C4.33406 0.68544 4.27698 0.823238 4.17538 0.924837C4.07378 1.02644 3.93598 1.08351 3.7923 1.08351H2.70878C2.27774 1.08351 1.86434 1.25475 1.55954 1.55954C1.25475 1.86434 1.08351 2.27774 1.08351 2.70878V10.2934C1.08351 10.7244 1.25475 11.1378 1.55954 11.4426C1.86434 11.7474 2.27774 11.9187 2.70878 11.9187ZM10.2662 2.86708L12.3677 4.96855H12.3655C12.7718 5.37493 13 5.92602 13 6.50064C13 7.07526 12.7718 7.62635 12.3655 8.03273L10.264 10.1342C10.2141 10.1859 10.1543 10.2272 10.0882 10.2556C10.0221 10.284 9.95101 10.299 9.87908 10.2996C9.80714 10.3002 9.73581 10.2865 9.66923 10.2593C9.60265 10.232 9.54216 10.1918 9.49129 10.1409C9.44042 10.0901 9.4002 10.0296 9.37296 9.96299C9.34572 9.89641 9.33201 9.82507 9.33263 9.75313C9.33326 9.6812 9.34821 9.61011 9.3766 9.54401C9.40499 9.47792 9.44626 9.41814 9.49801 9.36816L11.5995 7.26669C11.6714 7.19232 11.7324 7.10804 11.7804 7.01639C11.7737 7.01689 11.7674 7.01877 11.7611 7.02064C11.7538 7.02285 11.7464 7.02506 11.7382 7.02506L3.24451 7.0424C3.10082 7.0424 2.96303 6.98532 2.86143 6.88372C2.75983 6.78212 2.70275 6.64432 2.70275 6.50064C2.70275 6.35696 2.75983 6.21916 2.86143 6.11756C2.96303 6.01596 3.10082 5.95889 3.24451 5.95889L11.7414 5.94155C11.7455 5.94155 11.7491 5.94263 11.7528 5.94372C11.7565 5.9448 11.7601 5.94588 11.7642 5.94588C11.7186 5.86921 11.6641 5.79827 11.6016 5.7346L9.50017 3.63312C9.40149 3.53095 9.34688 3.3941 9.34812 3.25205C9.34935 3.11 9.40633 2.97412 9.50677 2.87368C9.60722 2.77323 9.7431 2.71626 9.88515 2.71502C10.0272 2.71379 10.164 2.76839 10.2662 2.86708Z" />
</svg>