<svg width="13" height="13" viewBox="0 0 13 13" fill="none" xmlns="http://www.w3.org/2000/svg">
  <path d="M12.6029 5.55032C12.1141 4.74989 11.4975 4.0349 10.7776 3.43373L12.2937 1.91763C12.3923 1.81551 12.4469 1.67873 12.4457 1.53676C12.4444 1.39479 12.3875 1.25898 12.2871 1.15859C12.1867 1.0582 12.0509 1.00125 11.9089 1.00002C11.767 0.998787 11.6302 1.05336 11.5281 1.152L9.87929 2.80293C8.85721 2.19585 7.68875 1.87944 6.5 1.88785C3.14778 1.88785 1.23749 4.18258 0.397136 5.55032C0.137518 5.97023 0 6.45416 0 6.94785C0 7.44153 0.137518 7.92546 0.397136 8.34537C0.885948 9.14581 1.50253 9.8608 2.22242 10.462L0.706313 11.9781C0.654598 12.028 0.613348 12.0878 0.58497 12.1538C0.556592 12.2199 0.541655 12.2909 0.54103 12.3628C0.540406 12.4347 0.554106 12.506 0.581331 12.5726C0.608556 12.6391 0.648762 12.6996 0.699602 12.7504C0.750441 12.8013 0.810897 12.8415 0.877441 12.8687C0.943985 12.8959 1.01529 12.9096 1.08718 12.909C1.15908 12.9084 1.23013 12.8934 1.29619 12.865C1.36225 12.8367 1.422 12.7954 1.47195 12.7437L3.1245 11.0911C4.14531 11.6981 5.31239 12.0151 6.5 12.0078C9.85222 12.0078 11.7625 9.71312 12.6029 8.34537C12.8625 7.92546 13 7.44153 13 6.94785C13 6.45416 12.8625 5.97023 12.6029 5.55032ZM1.31979 7.77846C1.16555 7.52887 1.08385 7.24125 1.08385 6.94785C1.08385 6.65444 1.16555 6.36683 1.31979 6.11724C2.04211 4.94442 3.67463 2.97078 6.5 2.97078C7.39898 2.96574 8.28534 3.18241 9.08063 3.60159L7.99066 4.69156C7.47081 4.34643 6.84757 4.19178 6.22669 4.25386C5.6058 4.31594 5.02552 4.59092 4.58429 5.03214C4.14307 5.47336 3.86809 6.05365 3.80601 6.67453C3.74394 7.29542 3.89858 7.91866 4.24371 8.4385L2.99292 9.68929C2.32968 9.15309 1.76371 8.5067 1.31979 7.77846ZM8.1244 6.94785C8.1244 7.37867 7.95326 7.79184 7.64862 8.09647C7.34399 8.40111 6.93082 8.57225 6.5 8.57225C6.25878 8.57131 6.02091 8.51578 5.80422 8.40981L7.96196 6.25206C8.06793 6.46876 8.12346 6.70663 8.1244 6.94785ZM4.8756 6.94785C4.8756 6.51703 5.04674 6.10386 5.35138 5.79923C5.65601 5.49459 6.06918 5.32345 6.5 5.32345C6.74122 5.32438 6.97909 5.37992 7.19578 5.48589L5.03804 7.64363C4.93207 7.42694 4.87654 7.18906 4.8756 6.94785ZM11.6802 7.77846C10.9579 8.95127 9.32537 10.9249 6.5 10.9249C5.60102 10.93 4.71466 10.7133 3.91937 10.2941L5.00934 9.20414C5.52919 9.54927 6.15243 9.70391 6.77331 9.64183C7.3942 9.57975 7.97448 9.30478 8.41571 8.86355C8.85693 8.42233 9.13191 7.84205 9.19398 7.22116C9.25606 6.60028 9.10142 5.97704 8.75629 5.45719L10.0071 4.20641C10.6703 4.74261 11.2363 5.38899 11.6802 6.11724C11.8344 6.36683 11.9161 6.65444 11.9161 6.94785C11.9161 7.24125 11.8344 7.52887 11.6802 7.77846Z" />
</svg>