<svg width="13" height="13" viewBox="0 0 13 13" fill="none" xmlns="http://www.w3.org/2000/svg">
  <path d="M12.5239 4.90079L8.41533 0.791713C7.90684 0.284708 7.21807 0 6.5 0C5.78193 0 5.09316 0.284708 4.58467 0.791713L0.476131 4.90079C0.324695 5.05126 0.204632 5.23029 0.122901 5.4275C0.0411705 5.62471 -0.000601466 5.83619 6.54305e-06 6.04967V11.3672C6.54305e-06 11.7982 0.171211 12.2115 0.475958 12.5162C0.780704 12.821 1.19403 12.9922 1.625 12.9922H11.375C11.806 12.9922 12.2193 12.821 12.524 12.5162C12.8288 12.2115 13 11.7982 13 11.3672V6.04967C13.0006 5.83619 12.9588 5.62471 12.8771 5.4275C12.7954 5.23029 12.6753 5.05126 12.5239 4.90079V4.90079ZM8.125 11.9089H4.875V9.77795C4.875 9.34698 5.04621 8.93365 5.35095 8.62891C5.6557 8.32416 6.06902 8.15296 6.5 8.15296C6.93098 8.15296 7.3443 8.32416 7.64905 8.62891C7.95379 8.93365 8.125 9.34698 8.125 9.77795V11.9089ZM11.9167 11.3672C11.9167 11.5109 11.8596 11.6486 11.758 11.7502C11.6564 11.8518 11.5187 11.9089 11.375 11.9089H9.20833V9.77795C9.20833 9.05966 8.92299 8.37079 8.41508 7.86287C7.90717 7.35496 7.21829 7.06962 6.5 7.06962C5.78171 7.06962 5.09283 7.35496 4.58492 7.86287C4.07701 8.37079 3.79167 9.05966 3.79167 9.77795V11.9089H1.625C1.48135 11.9089 1.34357 11.8518 1.24199 11.7502C1.14041 11.6486 1.08334 11.5109 1.08334 11.3672V6.04967C1.08384 5.90611 1.14086 5.76853 1.24205 5.66671L5.35058 1.55925C5.65592 1.25534 6.06919 1.08472 6.5 1.08472C6.93081 1.08472 7.34408 1.25534 7.64942 1.55925L11.758 5.66833C11.8587 5.76976 11.9157 5.90668 11.9167 6.04967V11.3672Z" />
</svg>