<svg width="13" height="13" viewBox="0 0 13 13" fill="none" xmlns="http://www.w3.org/2000/svg">
  <path d="M10.2917 2.08333H6.75567C6.67189 2.08389 6.58909 2.06536 6.51354 2.02917L4.80404 1.17117C4.57838 1.0588 4.32976 1.00021 4.07767 1H2.70833C1.9903 1.00086 1.30193 1.28648 0.794202 1.7942C0.286478 2.30193 0.00086009 2.9903 0 3.70833L0 10.2083C0.00086009 10.9264 0.286478 11.6147 0.794202 12.1225C1.30193 12.6302 1.9903 12.9158 2.70833 12.9167H10.2917C11.0097 12.9158 11.6981 12.6302 12.2058 12.1225C12.7135 11.6147 12.9991 10.9264 13 10.2083V4.79167C12.9991 4.07364 12.7135 3.38526 12.2058 2.87754C11.6981 2.36981 11.0097 2.08419 10.2917 2.08333V2.08333ZM2.70833 2.08333H4.07767C4.16144 2.08278 4.24424 2.1013 4.31979 2.1375L6.02929 2.99279C6.25473 3.1061 6.50336 3.16562 6.75567 3.16667H10.2917C10.6156 3.1672 10.932 3.26453 11.2002 3.44617C11.4684 3.62782 11.6762 3.88548 11.797 4.18608L1.08333 4.24675V3.70833C1.08333 3.27736 1.25454 2.86403 1.55928 2.55928C1.86403 2.25454 2.27736 2.08333 2.70833 2.08333V2.08333ZM10.2917 11.8333H2.70833C2.27736 11.8333 1.86403 11.6621 1.55928 11.3574C1.25454 11.0526 1.08333 10.6393 1.08333 10.2083V5.33008L11.9167 5.26887V10.2083C11.9167 10.6393 11.7455 11.0526 11.4407 11.3574C11.136 11.6621 10.7226 11.8333 10.2917 11.8333Z" />
</svg>