<svg width="13" height="13" viewBox="0 0 13 13" xmlns="http://www.w3.org/2000/svg">
  <path d="M10.8333 0H2.16667C1.59203 0 1.04093 0.228273 0.634602 0.634602C0.228273 1.04093 0 1.59203 0 2.16667V3.79167C0 4.3663 0.228273 4.9174 0.634602 5.32373C1.04093 5.73006 1.59203 5.95833 2.16667 5.95833H10.8333C11.408 5.95833 11.9591 5.73006 12.3654 5.32373C12.7717 4.9174 13 4.3663 13 3.79167V2.16667C13 1.59203 12.7717 1.04093 12.3654 0.634602C11.9591 0.228273 11.408 0 10.8333 0ZM11.9167 3.79167C11.9167 4.07898 11.8025 4.35453 11.5994 4.5577C11.3962 4.76086 11.1207 4.875 10.8333 4.875H2.16667C1.87935 4.875 1.6038 4.76086 1.40063 4.5577C1.19747 4.35453 1.08333 4.07898 1.08333 3.79167V2.16667C1.08333 1.87935 1.19747 1.6038 1.40063 1.40063C1.6038 1.19747 1.87935 1.08333 2.16667 1.08333H10.8333C11.1207 1.08333 11.3962 1.19747 11.5994 1.40063C11.8025 1.6038 11.9167 1.87935 11.9167 2.16667V3.79167Z" />
  <path d="M10.8333 7.04167H2.16667C1.59203 7.04167 1.04093 7.26994 0.634602 7.67627C0.228273 8.0826 0 8.6337 0 9.20834V10.8333C0 11.408 0.228273 11.9591 0.634602 12.3654C1.04093 12.7717 1.59203 13 2.16667 13H10.8333C11.408 13 11.9591 12.7717 12.3654 12.3654C12.7717 11.9591 13 11.408 13 10.8333V9.20834C13 8.6337 12.7717 8.0826 12.3654 7.67627C11.9591 7.26994 11.408 7.04167 10.8333 7.04167ZM11.9167 10.8333C11.9167 11.1207 11.8025 11.3962 11.5994 11.5994C11.3962 11.8025 11.1207 11.9167 10.8333 11.9167H2.16667C1.87935 11.9167 1.6038 11.8025 1.40063 11.5994C1.19747 11.3962 1.08333 11.1207 1.08333 10.8333V9.20834C1.08333 8.92102 1.19747 8.64547 1.40063 8.4423C1.6038 8.23914 1.87935 8.125 2.16667 8.125H10.8333C11.1207 8.125 11.3962 8.23914 11.5994 8.4423C11.8025 8.64547 11.9167 8.92102 11.9167 9.20834V10.8333Z" />
</svg>