<svg width="13" height="13" viewBox="0 0 13 13" xmlns="http://www.w3.org/2000/svg">
<path d="M3.5894 2.95847C3.40191 2.77083 3.09773 2.77083 2.91025 2.95847C2.21414 3.65458 1.872 4.62429 1.97143 5.61915C1.99624 5.86699 2.20502 6.05173 2.44885 6.05173C2.46487 6.05173 2.48102 6.05092 2.49704 6.04932C2.76105 6.02291 2.95364 5.78739 2.92724 5.52356C2.85647 4.81655 3.09791 4.1291 3.5894 3.63759C3.77704 3.45013 3.77704 3.14593 3.5894 2.95847Z"/>
<path d="M5.49139 0C2.46343 0 0 2.46342 0 5.49139C0 8.51935 2.46343 10.9828 5.49139 10.9828C8.51935 10.9828 10.9828 8.51935 10.9828 5.49139C10.9828 2.46342 8.51932 0 5.49139 0ZM5.49139 10.0222C2.99305 10.0222 0.960604 7.98972 0.960604 5.49139C0.960604 2.99305 2.99305 0.960604 5.49139 0.960604C7.98957 0.960604 10.0222 2.99305 10.0222 5.49139C10.0222 7.98972 7.98972 10.0222 5.49139 10.0222Z"/>
<path d="M12.8593 12.1801L9.36912 8.69C9.18148 8.50236 8.87761 8.50236 8.68997 8.69C8.50233 8.87748 8.50233 9.18166 8.68997 9.36914L12.1801 12.8593C12.274 12.9531 12.3968 13 12.5197 13C12.6427 13 12.7655 12.9531 12.8593 12.8593C13.0469 12.6718 13.0469 12.3676 12.8593 12.1801Z"/>
</svg>
