<svg width="13" height="13" viewBox="0 0 13 13" fill="none" xmlns="http://www.w3.org/2000/svg">
  <path fill-rule="evenodd" clip-rule="evenodd" d="M4.99127 4.46383C5.43648 4.16634 5.95992 4.00756 6.49538 4.00756C7.21314 4.00842 7.90126 4.29393 8.4088 4.80147C8.91634 5.30901 9.20185 5.99713 9.20271 6.71489C9.20271 7.25035 9.04393 7.77379 8.74644 8.219C8.44896 8.66422 8.02613 9.01123 7.53143 9.21614C7.03673 9.42105 6.49238 9.47467 5.96721 9.3702C5.44203 9.26574 4.95963 9.00789 4.58101 8.62926C4.20238 8.25064 3.94453 7.76824 3.84007 7.24307C3.73561 6.7179 3.78922 6.17354 3.99413 5.67884C4.19904 5.18414 4.54605 4.76131 4.99127 4.46383ZM5.59291 8.06553C5.86004 8.24402 6.1741 8.33929 6.49538 8.33929C6.9262 8.33929 7.33937 8.16815 7.644 7.86352C7.94864 7.55888 8.11978 7.14571 8.11978 6.71489C8.11978 6.39362 8.02451 6.07956 7.84602 5.81242C7.66753 5.54529 7.41383 5.33709 7.11701 5.21414C6.82019 5.0912 6.49358 5.05903 6.17848 5.12171C5.86337 5.18438 5.57393 5.33909 5.34676 5.56627C5.11958 5.79345 4.96487 6.08289 4.90219 6.39799C4.83952 6.71309 4.87168 7.0397 4.99463 7.33652C5.11758 7.63334 5.32578 7.88704 5.59291 8.06553Z" />
  <path fill-rule="evenodd" clip-rule="evenodd" d="M6.49542 1.65491C9.84818 1.65491 11.7585 3.94964 12.5983 5.31738C12.8579 5.73729 12.9954 6.22122 12.9954 6.71491C12.9954 7.20859 12.8579 7.69252 12.5983 8.11243C11.7585 9.48018 9.84818 11.7749 6.49542 11.7749C3.14266 11.7749 1.23237 9.48018 0.392558 8.11243C0.132941 7.69252 -0.00457764 7.20859 -0.00457764 6.71491C-0.00457764 6.22122 0.132941 5.73729 0.392558 5.31738C1.23237 3.94964 3.14266 1.65491 6.49542 1.65491ZM6.49542 10.692C9.32133 10.692 10.9539 8.71833 11.6751 7.54552C11.8293 7.29593 11.911 7.00831 11.911 6.71491C11.911 6.4215 11.8293 6.13389 11.6751 5.8843C10.9539 4.70932 9.32133 2.73784 6.49542 2.73784C3.66951 2.73784 2.03699 4.71148 1.31576 5.8843C1.16151 6.13389 1.07981 6.4215 1.07981 6.71491C1.07981 7.00831 1.16151 7.29593 1.31576 7.54552C2.03699 8.71833 3.66951 10.692 6.49542 10.692Z" />
</svg>