<svg width="14" height="13" viewBox="0 0 14 13" fill="none" xmlns="http://www.w3.org/2000/svg">
  <path fill-rule="evenodd" clip-rule="evenodd" d="M3.79167 0H2.16667C1.59203 0 1.04093 0.228273 0.634602 0.634602C0.228273 1.04093 0 1.59203 0 2.16667V3.79167C0 4.3663 0.228273 4.9174 0.634602 5.32373C1.04093 5.73006 1.59203 5.95833 2.16667 5.95833H3.79167C4.3663 5.95833 4.9174 5.73006 5.32373 5.32373C5.73006 4.9174 5.95833 4.3663 5.95833 3.79167V2.16667C5.95833 1.59203 5.73006 1.04093 5.32373 0.634602C4.9174 0.228273 4.3663 0 3.79167 0ZM4.875 3.79167C4.875 4.07898 4.76086 4.35453 4.5577 4.5577C4.35453 4.76086 4.07898 4.875 3.79167 4.875H2.16667C1.87935 4.875 1.6038 4.76086 1.40063 4.5577C1.19747 4.35453 1.08333 4.07898 1.08333 3.79167V2.16667C1.08333 1.87935 1.19747 1.6038 1.40063 1.40063C1.6038 1.19747 1.87935 1.08333 2.16667 1.08333H3.79167C4.07898 1.08333 4.35453 1.19747 4.5577 1.40063C4.76086 1.6038 4.875 1.87935 4.875 2.16667V3.79167ZM13.8001 9.63625C13.7498 9.58548 13.6899 9.54518 13.6239 9.51768C13.5579 9.49018 13.4871 9.47602 13.4155 9.47602C13.344 9.47602 13.2732 9.49018 13.2072 9.51768C13.1412 9.54518 13.0813 9.58548 13.031 9.63625L11.0647 11.6025V0.541667C11.0647 0.398008 11.0076 0.260233 10.9061 0.15865C10.8045 0.0570683 10.6667 0 10.523 0C10.3794 0 10.2416 0.0570683 10.14 0.15865C10.0384 0.260233 9.98138 0.398008 9.98138 0.541667V11.5971L8.02055 9.63625C7.97412 9.57277 7.91442 9.52016 7.84561 9.48208C7.7768 9.444 7.70052 9.42136 7.62208 9.41573C7.54363 9.41011 7.4649 9.42163 7.39136 9.4495C7.31782 9.47738 7.25123 9.52093 7.19622 9.57714C7.14121 9.63334 7.0991 9.70085 7.07282 9.77498C7.04653 9.8491 7.0367 9.92806 7.04401 10.0064C7.05132 10.0847 7.0756 10.1604 7.11515 10.2284C7.1547 10.2964 7.20858 10.3549 7.27305 10.4L9.39638 12.5233C9.70107 12.8276 10.1141 12.9986 10.5447 12.9986C10.9753 12.9986 11.3884 12.8276 11.693 12.5233L13.8164 10.4C13.9151 10.2964 13.9689 10.1579 13.9658 10.0148C13.9628 9.87166 13.9032 9.73557 13.8001 9.63625ZM2.16667 7.04167H3.79167C4.3663 7.04167 4.9174 7.26994 5.32373 7.67627C5.73006 8.0826 5.95833 8.6337 5.95833 9.20834V10.8333C5.95833 11.408 5.73006 11.9591 5.32373 12.3654C4.9174 12.7717 4.3663 13 3.79167 13H2.16667C1.59203 13 1.04093 12.7717 0.634602 12.3654C0.228273 11.9591 0 11.408 0 10.8333V9.20834C0 8.6337 0.228273 8.0826 0.634602 7.67627C1.04093 7.26994 1.59203 7.04167 2.16667 7.04167ZM4.5577 11.5994C4.76086 11.3962 4.875 11.1207 4.875 10.8333V9.20834C4.875 8.92102 4.76086 8.64547 4.5577 8.4423C4.35453 8.23914 4.07898 8.125 3.79167 8.125H2.16667C1.87935 8.125 1.6038 8.23914 1.40063 8.4423C1.19747 8.64547 1.08333 8.92102 1.08333 9.20834V10.8333C1.08333 11.1207 1.19747 11.3962 1.40063 11.5994C1.6038 11.8025 1.87935 11.9167 2.16667 11.9167H3.79167C4.07898 11.9167 4.35453 11.8025 4.5577 11.5994Z" />
</svg>