<svg width="13" height="13" viewBox="0 0 13 13" fill="none" xmlns="http://www.w3.org/2000/svg">
  <path fill-rule="evenodd" clip-rule="evenodd" d="M5.77083 1.08333H4.33333V0.541667C4.33333 0.398008 4.27627 0.260233 4.17468 0.158651C4.0731 0.0570683 3.79167 0 3.79167 0C3.79167 0 3.51023 0.0570683 3.40865 0.158651C3.30707 0.260233 3.25 0.398008 3.25 0.541667V1.08333H2.70833C1.9903 1.08419 1.30193 1.36981 0.794202 1.87754C0.286478 2.38526 0.00086009 3.07364 0 3.79167V10.2917C0.00086009 11.0097 0.286478 11.6981 0.794202 12.2058C1.30193 12.7135 1.9903 12.9991 2.70833 13H10.2917C11.0097 12.9991 11.6981 12.7135 12.2058 12.2058C12.7135 11.6981 12.9991 11.0097 13 10.2917V5.33333C13 5.33333 13 4.79167 12.4583 4.79167C11.9167 4.79167 11.9167 5.33333 11.9167 5.33333V10.2917C11.9167 10.7226 11.7455 11.136 11.4407 11.4407C11.136 11.7455 10.7226 11.9167 10.2917 11.9167H2.70833C2.27736 11.9167 1.86403 11.7455 1.55928 11.4407C1.25454 11.136 1.08333 10.7226 1.08333 10.2917V5.41667H7.66667C7.66667 5.41667 8.20833 5.41667 8.20833 4.875C8.20833 4.33333 7.66667 4.33333 7.66667 4.33333H1.08333V3.79167C1.08333 3.36069 1.25454 2.94736 1.55928 2.64262C1.86403 2.33787 2.27736 2.16667 2.70833 2.16667H5.77083C5.77083 2.16667 6.3125 2.16667 6.3125 1.625C6.3125 1.08333 5.77083 1.08333 5.77083 1.08333ZM3.79157 8.9375C4.2403 8.9375 4.60407 8.57373 4.60407 8.125C4.60407 7.67627 4.2403 7.3125 3.79157 7.3125C3.34284 7.3125 2.97907 7.67627 2.97907 8.125C2.97907 8.57373 3.34284 8.9375 3.79157 8.9375ZM6.5 8.9375C6.94873 8.9375 7.3125 8.57373 7.3125 8.125C7.3125 7.67627 6.94873 7.3125 6.5 7.3125C6.05127 7.3125 5.6875 7.67627 5.6875 8.125C5.6875 8.57373 6.05127 8.9375 6.5 8.9375ZM10.0209 8.125C10.0209 8.57373 9.65713 8.9375 9.2084 8.9375C8.75967 8.9375 8.3959 8.57373 8.3959 8.125C8.3959 7.67627 8.75967 7.3125 9.2084 7.3125C9.65713 7.3125 10.0209 7.67627 10.0209 8.125ZM12.9525 2.30852C12.9202 2.23094 12.8725 2.16026 12.8119 2.10051L11.1504 0.460135C11.0001 0.314462 10.8216 0.198894 10.6249 0.120058C10.4283 0.0412221 10.2175 0.000670118 10.0046 0.000728345C10.0005 -0.000242644 9.99621 -0.000242644 9.9921 0.000728344C9.56102 0.00298874 9.14837 0.169977 8.84428 0.465225L7.18808 2.10051C7.06583 2.22117 6.99818 2.38382 7.00004 2.55267C7.00189 2.72152 7.07309 2.88274 7.19796 3.00087C7.32284 3.119 7.49117 3.18436 7.66592 3.18257C7.84067 3.18078 8.00752 3.11199 8.12978 2.99133L9.34147 1.79445V6.3637C9.34147 6.53246 9.41085 6.6943 9.53435 6.81363C9.65785 6.93296 9.82535 7 10 7C10.1747 7 10.3422 6.93296 10.4657 6.81363C10.5891 6.6943 10.6585 6.53246 10.6585 6.3637V1.79445L11.8702 2.99133C11.9308 3.05107 12.0029 3.09871 12.0825 3.13152C12.1621 3.16434 12.2476 3.18168 12.3341 3.18257C12.4206 3.18346 12.5065 3.16787 12.5868 3.13669C12.6671 3.10551 12.7402 3.05936 12.802 3.00087C12.8639 2.94238 12.9132 2.87269 12.9471 2.79579C12.9811 2.71889 12.999 2.63627 13 2.55267C13.0009 2.46906 12.9847 2.3861 12.9525 2.30852Z" />
</svg>