<svg width="13" height="13" viewBox="0 0 13 13" fill="none" xmlns="http://www.w3.org/2000/svg">
  <path fill-rule="evenodd" clip-rule="evenodd" d="M7.66667 1.08333H4.33333V0.541667C4.33333 0.398008 4.27627 0.260233 4.17468 0.158651C4.0731 0.0570683 3.79167 0 3.79167 0C3.79167 0 3.51023 0.0570683 3.40865 0.158651C3.30707 0.260233 3.25 0.398008 3.25 0.541667V1.08333H2.70833C1.9903 1.08419 1.30193 1.36981 0.794202 1.87754C0.286478 2.38526 0.00086009 3.07364 0 3.79167V10.2917C0.00086009 11.0097 0.286478 11.6981 0.794202 12.2058C1.30193 12.7135 1.9903 12.9991 2.70833 13H10.2917C11.0097 12.9991 11.6981 12.7135 12.2058 12.2058C12.7135 11.6981 12.9991 11.0097 13 10.2917V7.77083C13 7.77083 13 7.22917 12.4583 7.22917C11.9167 7.22917 11.9167 7.77083 11.9167 7.77083V10.2917C11.9167 10.7226 11.7455 11.136 11.4407 11.4407C11.136 11.7455 10.7226 11.9167 10.2917 11.9167H2.70833C2.27736 11.9167 1.86403 11.7455 1.55928 11.4407C1.25454 11.136 1.08333 10.7226 1.08333 10.2917V5.41667H5.70505C5.70505 5.41667 6.24672 5.41667 6.24672 4.875C6.24672 4.33333 5.70505 4.33333 5.70505 4.33333H1.08333V3.79167C1.08333 3.36069 1.25454 2.94736 1.55928 2.64262C1.86403 2.33787 2.27736 2.16667 2.70833 2.16667H7.66667C7.66667 2.16667 8.20833 2.16667 8.20833 1.625C8.20833 1.08333 7.66667 1.08333 7.66667 1.08333ZM3.79157 8.9375C4.2403 8.9375 4.60407 8.57373 4.60407 8.125C4.60407 7.67627 4.2403 7.3125 3.79157 7.3125C3.34284 7.3125 2.97907 7.67627 2.97907 8.125C2.97907 8.57373 3.34284 8.9375 3.79157 8.9375ZM6.5 8.9375C6.94873 8.9375 7.3125 8.57373 7.3125 8.125C7.3125 7.67627 6.94873 7.3125 6.5 7.3125C6.05127 7.3125 5.6875 7.67627 5.6875 8.125C5.6875 8.57373 6.05127 8.9375 6.5 8.9375ZM10.0209 8.125C10.0209 8.57373 9.65713 8.9375 9.2084 8.9375C8.75967 8.9375 8.3959 8.57373 8.3959 8.125C8.3959 7.67627 8.75967 7.3125 9.2084 7.3125C9.65713 7.3125 10.0209 7.67627 10.0209 8.125ZM7.04752 4.69148C7.07978 4.76906 7.12755 4.83975 7.18808 4.89949L8.84955 6.53987C8.99985 6.68554 9.17844 6.80111 9.37507 6.87994C9.5717 6.95878 9.78251 6.99933 9.99539 6.99927C9.9995 7.00024 10.0038 7.00024 10.0079 6.99927C10.439 6.99701 10.8516 6.83002 11.1557 6.53478L12.8119 4.89949C12.9342 4.77883 13.0018 4.61618 13 4.44733C12.9981 4.27848 12.9269 4.11726 12.802 3.99913C12.6772 3.881 12.5088 3.81564 12.3341 3.81743C12.1593 3.81922 11.9925 3.88801 11.8702 4.00867L10.6585 5.20555V0.636297C10.6585 0.467541 10.5891 0.305696 10.4657 0.186367C10.3422 0.0670383 10.1747 0 10 0C9.82535 0 9.65785 0.0670383 9.53435 0.186367C9.41085 0.305696 9.34147 0.467541 9.34147 0.636297V5.20555L8.12978 4.00867C8.06924 3.94893 7.99712 3.90129 7.91753 3.86848C7.83794 3.83566 7.75244 3.81832 7.66592 3.81743C7.57939 3.81654 7.49353 3.83213 7.41324 3.86331C7.33295 3.89449 7.25979 3.94064 7.19796 3.99913C7.13613 4.05762 7.08683 4.12731 7.05287 4.20421C7.01891 4.28111 7.00095 4.36373 7.00004 4.44733C6.99912 4.53094 7.01525 4.6139 7.04752 4.69148Z" />
</svg>