<svg width="13" height="13" viewBox="0 0 13 13" xmlns="http://www.w3.org/2000/svg">
  <path fill-rule="evenodd" clip-rule="evenodd" d="M0.541667 2.57312H2.02367C2.13993 3.00089 2.39372 3.37852 2.74589 3.64775C3.09805 3.91698 3.52902 4.06284 3.97231 4.06284C4.4156 4.06284 4.84657 3.91698 5.19874 3.64775C5.55091 3.37852 5.8047 3.00089 5.92096 2.57312H12.4583C12.602 2.57312 12.7398 2.51605 12.8414 2.41447C12.9429 2.31289 13 2.17511 13 2.03145C13 1.88779 12.9429 1.75002 12.8414 1.64843C12.7398 1.54685 12.602 1.48978 12.4583 1.48978H5.92096C5.8047 1.06201 5.55091 0.684384 5.19874 0.415155C4.84657 0.145927 4.4156 6.10352e-05 3.97231 6.10352e-05C3.52902 6.10352e-05 3.09805 0.145927 2.74589 0.415155C2.39372 0.684384 2.13993 1.06201 2.02367 1.48978H0.541667C0.398008 1.48978 0.260233 1.54685 0.158651 1.64843C0.0570683 1.75002 0 1.88779 0 2.03145C0 2.17511 0.0570683 2.31289 0.158651 2.41447C0.260233 2.51605 0.398008 2.57312 0.541667 2.57312ZM3.97204 1.08353C4.15952 1.08353 4.34279 1.13913 4.49868 1.24329C4.65456 1.34745 4.77606 1.49549 4.8478 1.6687C4.91955 1.84191 4.93832 2.0325 4.90174 2.21638C4.86517 2.40026 4.77489 2.56916 4.64232 2.70173C4.50975 2.8343 4.34085 2.92458 4.15697 2.96115C3.97309 2.99773 3.7825 2.97896 3.60929 2.90721C3.43608 2.83547 3.28804 2.71397 3.18388 2.55809C3.07972 2.4022 3.02413 2.21893 3.02413 2.03145C3.02441 1.78014 3.12437 1.5392 3.30208 1.36149C3.47979 1.18378 3.72073 1.08382 3.97204 1.08353Z" />
  <path fill-rule="evenodd" clip-rule="evenodd" d="M12.4583 5.95787H10.9763C10.8603 5.53 10.6066 5.15223 10.2544 4.88289C9.9023 4.61356 9.47129 4.46762 9.02796 4.46762C8.58462 4.46762 8.15362 4.61356 7.80148 4.88289C7.44934 5.15223 7.19565 5.53 7.07958 5.95787H0.541667C0.398008 5.95787 0.260233 6.01494 0.158651 6.11652C0.0570683 6.2181 0 6.35588 0 6.49953C0 6.64319 0.0570683 6.78097 0.158651 6.88255C0.260233 6.98413 0.398008 7.0412 0.541667 7.0412H7.07958C7.19565 7.46907 7.44934 7.84684 7.80148 8.11618C8.15362 8.38551 8.58462 8.53145 9.02796 8.53145C9.47129 8.53145 9.9023 8.38551 10.2544 8.11618C10.6066 7.84684 10.8603 7.46907 10.9763 7.0412H12.4583C12.602 7.0412 12.7398 6.98413 12.8414 6.88255C12.9429 6.78097 13 6.64319 13 6.49953C13 6.35588 12.9429 6.2181 12.8414 6.11652C12.7398 6.01494 12.602 5.95787 12.4583 5.95787ZM9.02796 7.44745C8.84048 7.44745 8.65721 7.39186 8.50132 7.2877C8.34544 7.18354 8.22394 7.03549 8.1522 6.86229C8.08045 6.68908 8.06168 6.49848 8.09826 6.31461C8.13483 6.13073 8.22511 5.96183 8.35768 5.82926C8.49025 5.69669 8.65915 5.60641 8.84303 5.56983C9.02691 5.53326 9.2175 5.55203 9.39071 5.62378C9.56392 5.69552 9.71196 5.81702 9.81612 5.9729C9.92028 6.12879 9.97588 6.31206 9.97588 6.49953C9.97559 6.75085 9.87563 6.99179 9.69792 7.1695C9.52021 7.3472 9.27927 7.44716 9.02796 7.44745Z" />
  <path fill-rule="evenodd" clip-rule="evenodd" d="M5.92096 10.4273H12.4583C12.602 10.4273 12.7398 10.4843 12.8414 10.5859C12.9429 10.6875 13 10.8253 13 10.9689C13 11.1126 12.9429 11.2504 12.8414 11.352C12.7398 11.4535 12.602 11.5106 12.4583 11.5106H5.92096C5.8047 11.9384 5.55091 12.316 5.19874 12.5852C4.84657 12.8545 4.4156 13.0003 3.97231 13.0003C3.52902 13.0003 3.09805 12.8545 2.74589 12.5852C2.39372 12.316 2.13993 11.9384 2.02367 11.5106H0.541667C0.398008 11.5106 0.260233 11.4535 0.158651 11.352C0.0570683 11.2504 0 11.1126 0 10.9689C0 10.8253 0.0570683 10.6875 0.158651 10.5859C0.260233 10.4843 0.398008 10.4273 0.541667 10.4273H2.02367C2.13993 9.99951 2.39372 9.62188 2.74589 9.35265C3.09805 9.08343 3.52902 8.93756 3.97231 8.93756C4.4156 8.93756 4.84657 9.08343 5.19874 9.35265C5.55091 9.62188 5.8047 9.99951 5.92096 10.4273ZM3.44541 11.7571C3.60129 11.8613 3.78456 11.9169 3.97204 11.9169C4.22331 11.9164 4.46417 11.8164 4.64185 11.6387C4.81952 11.4611 4.91953 11.2202 4.91996 10.9689C4.91996 10.7815 4.86436 10.5982 4.76021 10.4423C4.65605 10.2864 4.508 10.1649 4.33479 10.0932C4.16158 10.0214 3.97099 10.0027 3.78711 10.0392C3.60323 10.0758 3.43433 10.1661 3.30176 10.2987C3.16919 10.4312 3.07891 10.6001 3.04234 10.784C3.00576 10.9679 3.02454 11.1585 3.09628 11.3317C3.16803 11.5049 3.28952 11.6529 3.44541 11.7571Z" />
</svg>