<svg width="14" height="13" viewBox="0 0 14 13" fill="none" xmlns="http://www.w3.org/2000/svg">
  <path fill-rule="evenodd" clip-rule="evenodd" d="M3.79167 0H2.16667C1.59203 0 1.04093 0.228273 0.634602 0.634602C0.228273 1.04093 0 1.59203 0 2.16667V3.79167C0 4.3663 0.228273 4.9174 0.634602 5.32373C1.04093 5.73006 1.59203 5.95833 2.16667 5.95833H3.79167C4.3663 5.95833 4.9174 5.73006 5.32373 5.32373C5.73006 4.9174 5.95833 4.3663 5.95833 3.79167V2.16667C5.95833 1.59203 5.73006 1.04093 5.32373 0.634602C4.9174 0.228273 4.3663 0 3.79167 0ZM4.875 3.79167C4.875 4.07898 4.76086 4.35453 4.5577 4.5577C4.35453 4.76086 4.07898 4.875 3.79167 4.875H2.16667C1.87935 4.875 1.6038 4.76086 1.40063 4.5577C1.19747 4.35453 1.08333 4.07898 1.08333 3.79167V2.16667C1.08333 1.87935 1.19747 1.6038 1.40063 1.40063C1.6038 1.19747 1.87935 1.08333 2.16667 1.08333H3.79167C4.07898 1.08333 4.35453 1.19747 4.5577 1.40063C4.76086 1.6038 4.875 1.87935 4.875 2.16667V3.79167ZM7.19918 3.36232C7.30067 3.46321 7.43795 3.51984 7.58105 3.51984C7.72415 3.51984 7.86144 3.46321 7.96293 3.36232L9.90751 1.39607V12.4569C9.90751 12.6006 9.96458 12.7384 10.0662 12.8399C10.1677 12.9415 10.3055 12.9986 10.4492 12.9986C10.5928 12.9986 10.7306 12.9415 10.8322 12.8399C10.9338 12.7384 10.9908 12.6006 10.9908 12.4569V1.40149L12.9517 3.36232C13.002 3.41309 13.0619 3.45339 13.1279 3.48089C13.194 3.50839 13.2648 3.52255 13.3363 3.52255C13.4078 3.52255 13.4786 3.50839 13.5446 3.48089C13.6106 3.45339 13.6705 3.41309 13.7208 3.36232C13.8217 3.26084 13.8784 3.12355 13.8784 2.98045C13.8784 2.83735 13.8217 2.70006 13.7208 2.59857L11.6029 0.475237C11.2982 0.170928 10.8852 0 10.4546 0C10.024 0 9.61095 0.170928 9.30626 0.475237L7.19918 2.59857C7.09829 2.70006 7.04167 2.83735 7.04167 2.98045C7.04167 3.12355 7.09829 3.26084 7.19918 3.36232ZM2.16667 7.04167H3.79167C4.3663 7.04167 4.9174 7.26994 5.32373 7.67627C5.73006 8.0826 5.95833 8.6337 5.95833 9.20834V10.8333C5.95833 11.408 5.73006 11.9591 5.32373 12.3654C4.9174 12.7717 4.3663 13 3.79167 13H2.16667C1.59203 13 1.04093 12.7717 0.634602 12.3654C0.228273 11.9591 0 11.408 0 10.8333V9.20834C0 8.6337 0.228273 8.0826 0.634602 7.67627C1.04093 7.26994 1.59203 7.04167 2.16667 7.04167ZM4.5577 11.5994C4.76086 11.3962 4.875 11.1207 4.875 10.8333V9.20834C4.875 8.92102 4.76086 8.64547 4.5577 8.4423C4.35453 8.23914 4.07898 8.125 3.79167 8.125H2.16667C1.87935 8.125 1.6038 8.23914 1.40063 8.4423C1.19747 8.64547 1.08333 8.92102 1.08333 9.20834V10.8333C1.08333 11.1207 1.19747 11.3962 1.40063 11.5994C1.6038 11.8025 1.87935 11.9167 2.16667 11.9167H3.79167C4.07898 11.9167 4.35453 11.8025 4.5577 11.5994Z" />
</svg>