<svg width="13" height="13" viewBox="0 0 13 13" xmlns="http://www.w3.org/2000/svg">
<path d="M4.35387 3.92558C4.35387 3.92558 0.218928 4.13494 0.00956385 4.76303C-0.1998 5.39113 3.09768 8.00818 3.09768 8.00818C3.09768 8.00818 2.15555 12.0384 2.62661 12.4048C3.09768 12.7712 6.55219 10.5205 6.55219 10.5205C6.55219 10.5205 10.0067 12.7712 10.5824 12.4048C11.1582 12.0384 10.0067 8.00818 10.0067 8.00818C10.0067 8.00818 13.1995 5.39113 12.9901 4.76303C12.7808 4.13494 8.69817 3.92558 8.69817 3.92558C8.69817 3.92558 7.23262 0 6.55219 0C5.87176 0 4.35387 3.92558 4.35387 3.92558Z"/>
</svg>
