<svg width="13" height="13" viewBox="0 0 13 13" fill="none" xmlns="http://www.w3.org/2000/svg">
  <path d="M9.12514 7.58334C9.12514 7.727 9.06808 7.86477 8.96649 7.96635C8.86491 8.06794 8.72714 8.125 8.58348 8.125H4.25015C4.10649 8.125 3.96872 8.06794 3.86713 7.96635C3.76555 7.86477 3.70848 7.727 3.70848 7.58334C3.70848 7.43968 3.76555 7.3019 3.86713 7.20032C3.96872 7.09874 4.10649 7.04167 4.25015 7.04167H8.58348C8.72714 7.04167 8.86491 7.09874 8.96649 7.20032C9.06808 7.3019 9.12514 7.43968 9.12514 7.58334ZM6.95848 9.20834H4.25015C4.10649 9.20834 3.96872 9.2654 3.86713 9.36699C3.76555 9.46857 3.70848 9.60634 3.70848 9.75C3.70848 9.89366 3.76555 10.0314 3.86713 10.133C3.96872 10.2346 4.10649 10.2917 4.25015 10.2917H6.95848C7.10214 10.2917 7.23991 10.2346 7.3415 10.133C7.44308 10.0314 7.50015 9.89366 7.50015 9.75C7.50015 9.60634 7.44308 9.46857 7.3415 9.36699C7.23991 9.2654 7.10214 9.20834 6.95848 9.20834ZM11.8335 5.67938V10.2917C11.8326 11.0097 11.547 11.6981 11.0393 12.2058C10.5316 12.7135 9.84317 12.9991 9.12514 13H3.70848C2.99045 12.9991 2.30208 12.7135 1.79435 12.2058C1.28663 11.6981 1.00101 11.0097 1.00015 10.2917V2.70834C1.00101 1.99031 1.28663 1.30194 1.79435 0.794214C2.30208 0.28649 2.99045 0.000872573 3.70848 1.24847e-05H6.15411C6.65223 -0.0012696 7.14567 0.0962058 7.60589 0.286803C8.06611 0.477399 8.48399 0.757337 8.83535 1.11043L10.7225 2.99868C11.0758 3.34981 11.3559 3.76755 11.5466 4.2277C11.7373 4.68786 11.8348 5.18128 11.8335 5.67938V5.67938ZM8.06944 1.87634C7.89896 1.71122 7.70757 1.56918 7.50015 1.45384V3.79168C7.50015 3.93533 7.55721 4.07311 7.6588 4.17469C7.76038 4.27627 7.89815 4.33334 8.04181 4.33334H10.3796C10.2642 4.12599 10.122 3.93475 9.9566 3.76459L8.06944 1.87634ZM10.7501 5.67938C10.7501 5.59001 10.7328 5.50442 10.7247 5.41667H8.04181C7.61084 5.41667 7.19751 5.24547 6.89276 4.94072C6.58802 4.63598 6.41681 4.22265 6.41681 3.79168V1.1088C6.32906 1.10068 6.24294 1.08334 6.15411 1.08334H3.70848C3.27751 1.08334 2.86418 1.25455 2.55944 1.5593C2.25469 1.86404 2.08348 2.27737 2.08348 2.70834V10.2917C2.08348 10.7226 2.25469 11.136 2.55944 11.4407C2.86418 11.7455 3.27751 11.9167 3.70848 11.9167H9.12514C9.55612 11.9167 9.96945 11.7455 10.2742 11.4407C10.5789 11.136 10.7501 10.7226 10.7501 10.2917V5.67938Z" />
</svg>