<svg width="13" height="13" viewBox="0 0 13 13" fill="none" xmlns="http://www.w3.org/2000/svg">
<path fill-rule="evenodd" clip-rule="evenodd" d="M8.68043 5.95212C8.14598 6.30923 7.51764 6.49983 6.87487 6.49983C6.0132 6.49897 5.18708 6.15629 4.57779 5.547C3.96849 4.93771 3.62582 4.11158 3.62496 3.24992C3.62496 2.60714 3.81556 1.97881 4.17267 1.44436C4.52977 0.909914 5.03734 0.493365 5.63118 0.247386C6.22503 0.00140814 6.87848 -0.062951 7.5089 0.0624477C8.13932 0.187846 8.7184 0.497371 9.17291 0.951879C9.62742 1.40639 9.93694 1.98547 10.0623 2.61589C10.1877 3.24631 10.1234 3.89976 9.8774 4.4936C9.63142 5.08745 9.21487 5.59502 8.68043 5.95212ZM8.07858 1.44845C7.72228 1.21038 7.30339 1.08331 6.87487 1.08331C6.30025 1.08331 5.74917 1.31157 5.34285 1.71789C4.93653 2.12421 4.70826 2.6753 4.70826 3.24992C4.70826 3.67843 4.83533 4.09732 5.0734 4.45362C5.31147 4.80992 5.64985 5.08762 6.04575 5.2516C6.44164 5.41559 6.87727 5.45849 7.29756 5.37489C7.71784 5.2913 8.10389 5.08495 8.4069 4.78194C8.7099 4.47893 8.91625 4.09288 8.99985 3.6726C9.08345 3.25232 9.04054 2.81669 8.87656 2.42079C8.71257 2.02489 8.43487 1.68652 8.07858 1.44845ZM3.4294 9.01286C4.34331 8.09896 5.58242 7.5849 6.87487 7.58346C8.16733 7.5849 9.40644 8.09896 10.3203 9.01286C11.2342 9.92677 11.7483 11.1659 11.7497 12.4583C11.7497 12.602 11.6927 12.7398 11.5911 12.8413C11.4895 12.9429 11.3517 13 11.2081 13C11.0644 13 10.9267 12.9429 10.8251 12.8413C10.7235 12.7398 10.6664 12.602 10.6664 12.4583C10.6664 11.4527 10.267 10.4883 9.55591 9.77729C8.84486 9.06624 7.88046 8.66677 6.87487 8.66677C5.86929 8.66677 4.90489 9.06624 4.19383 9.77729C3.48277 10.4883 3.0833 11.4527 3.0833 12.4583C3.0833 12.602 3.02624 12.7398 2.92466 12.8413C2.82308 12.9429 2.68531 13 2.54165 13C2.398 13 2.26023 12.9429 2.15865 12.8413C2.05707 12.7398 2 12.602 2 12.4583C2.00143 11.1659 2.5155 9.92677 3.4294 9.01286Z" fill="#252626"/>
</svg>
