<svg width="13" height="13" viewBox="0 0 13 13" xmlns="http://www.w3.org/2000/svg">
  <path d="M5.80912 7.19087L0.690892 7.19086C0.309293 7.19087 2.49462e-05 6.8815 1.50602e-09 6.50001C-2.49227e-05 6.11843 0.309318 5.80912 0.690871 5.80912L5.80913 5.80914L5.80912 0.690892C5.8091 0.309282 6.11847 2.39245e-05 6.49997 1.3499e-09C6.88155 -2.3595e-05 7.19086 0.309318 7.19086 0.69087L7.19088 5.80913L12.3091 5.80914C12.6907 5.80911 13 6.1185 13 6.50005C13 6.69073 12.9223 6.86388 12.7976 6.98852C12.673 7.11314 12.4998 7.19089 12.3091 7.19089L7.19087 7.19088L7.19089 12.3092C7.19086 12.4998 7.11316 12.673 6.98852 12.7976C6.8639 12.9222 6.69074 13 6.50003 13C6.11845 13 5.80914 12.6907 5.80914 12.3091L5.80912 7.19087Z" />
</svg>