<svg width="13" height="13" viewBox="0 0 13 13" xmlns="http://www.w3.org/2000/svg">
  <path fill-rule="evenodd" clip-rule="evenodd" d="M12.0753 5.02227C12.1769 4.92069 12.3147 4.86362 12.4583 4.86362C12.602 4.86362 12.7398 4.92069 12.8413 5.02227C12.9429 5.12385 13 5.26163 13 5.40529V8.85245C13.0009 9.20823 12.9312 9.56064 12.795 9.88931C12.6588 10.218 12.4587 10.5164 12.2064 10.7672L10.7678 12.207C10.5168 12.4592 10.2183 12.6592 9.88954 12.7953C9.56078 12.9314 9.20828 13.001 8.85245 13H2.70833C1.9903 12.9991 1.30193 12.7135 0.794202 12.2058C0.286478 11.6981 0.000860089 11.0097 0 10.2917V2.70833C0.000860089 1.9903 0.286478 1.30193 0.794202 0.794202C1.30193 0.286478 1.9903 0.000860089 2.70833 0H7.60608C7.74974 0 7.88751 0.0570683 7.98909 0.15865C8.09068 0.260233 8.14774 0.398007 8.14774 0.541666C8.14774 0.685325 8.09068 0.8231 7.98909 0.924682C7.88751 1.02626 7.74974 1.08333 7.60608 1.08333H2.70833C2.27735 1.08333 1.86403 1.25454 1.55928 1.55928C1.25454 1.86403 1.08333 2.27735 1.08333 2.70833V10.2917C1.08333 10.7226 1.25454 11.136 1.55928 11.4407C1.86403 11.7455 2.27735 11.9167 2.70833 11.9167H8.12499V9.74999C8.12499 9.31902 8.2962 8.90569 8.60094 8.60094C8.90569 8.2962 9.31902 8.12499 9.74999 8.12499H11.9167V5.40529C11.9167 5.26163 11.9737 5.12385 12.0753 5.02227ZM9.20833 11.8744C9.50877 11.8087 9.78413 11.6583 10.0019 11.4411L11.4427 10.0013C11.6588 9.783 11.809 9.50815 11.876 9.20833H9.74999C9.60633 9.20833 9.46856 9.26539 9.36698 9.36698C9.26539 9.46856 9.20833 9.60633 9.20833 9.74999V11.8744ZM3.50144 7.10785L10.1054 0.503855C10.4274 0.196131 10.8556 0.0243988 11.3009 0.0243988C11.7462 0.0243988 12.1744 0.196131 12.4963 0.503855C12.8129 0.821179 12.9907 1.2511 12.9907 1.69931C12.9907 2.14753 12.8129 2.57745 12.4963 2.89477L5.89236 9.49876C5.64149 9.75099 5.34307 9.95096 5.0144 10.0871C4.68572 10.2232 4.33331 10.2928 3.97756 10.2918H3.25011C3.10645 10.2918 2.96867 10.2347 2.86709 10.1331C2.76551 10.0315 2.70844 9.89376 2.70844 9.7501V9.02264C2.70744 8.66689 2.77701 8.31448 2.91313 7.98581C3.04925 7.65713 3.24921 7.35872 3.50144 7.10785ZM5.12644 8.73285L11.7304 2.12885C11.8442 2.01482 11.908 1.86035 11.908 1.69931C11.908 1.53827 11.8442 1.3838 11.7304 1.26977C11.6147 1.15925 11.4609 1.09757 11.3009 1.09757C11.1409 1.09757 10.987 1.15925 10.8714 1.26977L4.26736 7.87377C3.96379 8.1792 3.7929 8.59201 3.79177 9.02264V9.20843H3.97756C4.40819 9.2073 4.82101 9.03642 5.12644 8.73285Z" />
</svg>