<svg width="13" height="13" viewBox="0 0 13 13" xmlns="http://www.w3.org/2000/svg">
<path fill-rule="evenodd" clip-rule="evenodd" d="M12.0219 0.259869L12.7401 0.978065C13.0866 1.32458 13.0866 1.88837 12.7402 2.23484L6.99468 7.98026C6.94151 8.03343 6.8738 8.06969 6.80006 8.08444L5.00461 8.44355C4.97977 8.4485 4.95479 8.45094 4.92993 8.45094C4.82994 8.45094 4.73277 8.41151 4.66063 8.33937C4.57057 8.24933 4.53149 8.12024 4.55645 7.99537L4.91556 6.19991C4.93034 6.12618 4.96657 6.05846 5.01974 6.00529L10.7651 0.259869C11.1117 -0.0866228 11.6755 -0.0866228 12.0219 0.259869ZM5.41546 7.58456L6.53761 7.3601L11.214 2.68373L10.3163 1.78599L5.63993 6.46241L5.41546 7.58456ZM11.7526 2.14511L12.2015 1.69624C12.251 1.64675 12.251 1.56618 12.2015 1.51669L11.4833 0.798497C11.4338 0.748984 11.3532 0.749009 11.3037 0.798522L10.8549 1.24737L11.7526 2.14511Z"/>
<path d="M10.1566 6.01734C10.1566 5.80699 10.3271 5.63647 10.5374 5.63647C10.7478 5.63647 10.9183 5.80699 10.9183 6.01734V11.6034C10.9183 12.3735 10.2918 13 9.52178 13H1.39653C0.626483 13 0 12.3735 0 11.6034V3.47819C0 2.70815 0.626483 2.08167 1.39653 2.08167H6.98264C7.19298 2.08167 7.36351 2.2522 7.36351 2.46254C7.36351 2.67288 7.19298 2.84341 6.98264 2.84341H1.39653C1.04651 2.84341 0.761743 3.12817 0.761743 3.47819V11.6034C0.761743 11.9535 1.04651 12.2382 1.39653 12.2382H9.52178C9.8718 12.2382 10.1566 11.9535 10.1566 11.6034V6.01734Z"/>
</svg>
