<svg width="13" height="13" viewBox="0 0 13 13" xmlns="http://www.w3.org/2000/svg">
<path d="M11.0962 1.90381C9.8685 0.676127 8.23621 0 6.5 0C4.76379 0 3.13148 0.676127 1.90379 1.90381C0.676127 3.1315 0 4.76379 0 6.5C0 8.23621 0.676127 9.86852 1.90379 11.0962C3.13148 12.3239 4.76376 13 6.5 13C6.71034 13 6.88086 12.8295 6.88086 12.6191C6.88086 12.4088 6.71034 12.2383 6.5 12.2383C3.3359 12.2383 0.761719 9.6641 0.761719 6.5C0.761719 3.3359 3.3359 0.761719 6.5 0.761719C9.6641 0.761719 12.2383 3.3359 12.2383 6.5V8.02979C12.2383 8.66331 11.7229 9.17871 11.0894 9.17871C10.4558 9.17871 9.94043 8.66331 9.94043 8.02979V6.5C9.94043 4.60294 8.39706 3.05957 6.5 3.05957C4.60294 3.05957 3.05957 4.60294 3.05957 6.5C3.05957 8.39706 4.60294 9.94043 6.5 9.94043C7.62521 9.94043 8.62596 9.39743 9.25407 8.55976C9.48441 9.35619 10.2197 9.94043 11.0894 9.94043C12.1429 9.94043 13 9.08332 13 8.02979V6.5C13 4.76381 12.3239 3.13153 11.0962 1.90381ZM6.5 9.17871C5.02295 9.17871 3.82129 7.97705 3.82129 6.5C3.82129 5.02295 5.02295 3.82129 6.5 3.82129C7.97705 3.82129 9.17871 5.02295 9.17871 6.5C9.17871 7.97705 7.97705 9.17871 6.5 9.17871Z"/>
</svg>
