<svg width="13" height="14" viewBox="0 0 13 14" xmlns="http://www.w3.org/2000/svg">
<path fill-rule="evenodd" clip-rule="evenodd" d="M10.6713 3.82556V5.02443C11.2527 5.14288 11.6914 5.65814 11.6914 6.27391V11.7827C11.6914 12.4859 11.1194 13.0579 10.4162 13.0579H3.27518C2.57204 13.0579 2 12.4859 2 11.7827V9.76792C2 9.62705 2.11417 9.51288 2.25504 9.51288C2.39591 9.51288 2.51007 9.62705 2.51007 9.76792V11.7827C2.51007 12.2046 2.85328 12.5478 3.27518 12.5478H10.1612V10.9666C10.1612 10.8257 10.2754 10.7116 10.4162 10.7116C10.5571 10.7116 10.6713 10.8257 10.6713 10.9666V12.504C10.9681 12.3987 11.1813 12.1152 11.1813 11.7827V6.27391C11.1813 5.852 10.8381 5.5088 10.4162 5.5088H3.27518C2.85328 5.5088 2.51007 5.852 2.51007 6.27391V7.72174C2.51007 7.86261 2.39591 7.97678 2.25504 7.97678C2.11417 7.97678 2 7.86261 2 7.72174V6.27391C2 5.65814 2.43874 5.14288 3.02015 5.02443V3.82556C3.02015 1.71612 4.73627 0 6.8457 0C8.95514 0 10.6713 1.71612 10.6713 3.82556ZM4.90742 3.82556V4.99873H8.78398V3.82556C8.78398 2.75679 7.91447 1.88727 6.8457 1.88727C5.77694 1.88727 4.90742 2.75679 4.90742 3.82556ZM9.29406 3.82556V4.99873H10.1612V3.82556C10.1612 1.99736 8.6739 0.510074 6.8457 0.510074C5.01751 0.510074 3.53022 1.99736 3.53022 3.82556V4.99873H4.39735V3.82556C4.39735 2.47555 5.4957 1.3772 6.8457 1.3772C8.19571 1.3772 9.29406 2.47555 9.29406 3.82556ZM2.43536 8.91505C2.38794 8.96257 2.32208 8.98976 2.25504 8.98976C2.18799 8.98976 2.12214 8.96257 2.07472 8.91505C2.0273 8.86763 2 8.80187 2 8.73473C2 8.66768 2.0273 8.60183 2.07472 8.55451C2.12214 8.50699 2.18799 8.47969 2.25504 8.47969C2.32208 8.47969 2.38794 8.50699 2.43536 8.55451C2.48278 8.60183 2.51007 8.66768 2.51007 8.73473C2.51007 8.80187 2.48278 8.86763 2.43536 8.91505ZM6.84571 11.6807C7.26762 11.6807 7.61083 11.3375 7.61083 10.9156V9.56131C7.99398 9.30767 8.2262 8.88128 8.2262 8.41404C8.2262 7.65471 7.60833 7.03684 6.849 7.03684C6.08957 7.03684 5.4718 7.65471 5.4718 8.41404C5.4718 8.87789 5.70143 9.30269 6.0806 9.55693V10.9156C6.0806 11.3375 6.42381 11.6807 6.84571 11.6807ZM5.98188 8.41404C5.98188 7.93585 6.37081 7.54692 6.849 7.54692C7.3271 7.54692 7.71613 7.93585 7.71613 8.41404C7.71613 8.7424 7.53382 9.03878 7.24042 9.18772C7.15475 9.23116 7.10075 9.31903 7.10075 9.41516V10.9156C7.10075 11.0563 6.98638 11.1706 6.84571 11.1706C6.70505 11.1706 6.59068 11.0563 6.59068 10.9156V9.41177C6.59068 9.31634 6.53738 9.22887 6.4525 9.18513C6.1622 9.0355 5.98188 8.74001 5.98188 8.41404ZM10.5965 10.1013C10.5491 10.1487 10.4835 10.176 10.4162 10.176C10.3491 10.176 10.2833 10.1487 10.2359 10.1013C10.1884 10.0538 10.1611 9.98799 10.1611 9.92095C10.1611 9.8539 10.1884 9.78805 10.2359 9.74063C10.2833 9.69321 10.3491 9.66591 10.4162 9.66591C10.4835 9.66591 10.5491 9.69321 10.5965 9.74063C10.6439 9.78805 10.6712 9.8536 10.6712 9.92095C10.6712 9.98829 10.6439 10.0538 10.5965 10.1013Z"/>
</svg>
