<svg width="13" height="13" viewBox="0 0 13 13" xmlns="http://www.w3.org/2000/svg">
<path d="M0.65 3.3H12.35C12.74 3.3 13 3.04 13 2.65C13 2.26 12.74 2 12.35 2H0.65C0.26 2 0 2.26 0 2.65C0 3.04 0.26 3.3 0.65 3.3Z"/>
<path d="M10.4 7.2H2.6C2.21 7.2 1.95 6.94 1.95 6.55C1.95 6.16 2.21 5.9 2.6 5.9H10.4C10.79 5.9 11.05 6.16 11.05 6.55C11.05 6.94 10.79 7.2 10.4 7.2Z"/>
<path d="M8.45 11.1H4.55C4.16 11.1 3.9 10.84 3.9 10.45C3.9 10.06 4.16 9.8 4.55 9.8H8.45C8.84 9.8 9.1 10.06 9.1 10.45C9.1 10.84 8.84 11.1 8.45 11.1Z"/>
</svg>
