<svg width="13" height="13" viewBox="0 0 13 13" xmlns="http://www.w3.org/2000/svg">
  <path d="M3.79169 0H2.16668C1.59204 0 1.04094 0.228275 0.634606 0.634606C0.228275 1.04094 0 1.59204 0 2.16668V3.79169C0 4.36633 0.228275 4.91743 0.634606 5.32376C1.04094 5.73009 1.59204 5.95837 2.16668 5.95837H3.79169C4.36633 5.95837 4.91743 5.73009 5.32376 5.32376C5.73009 4.91743 5.95837 4.36633 5.95837 3.79169V2.16668C5.95837 1.59204 5.73009 1.04094 5.32376 0.634606C4.91743 0.228275 4.36633 0 3.79169 0ZM4.87503 3.79169C4.87503 4.07901 4.76089 4.35456 4.55773 4.55773C4.35456 4.76089 4.07901 4.87503 3.79169 4.87503H2.16668C1.87936 4.87503 1.60381 4.76089 1.40064 4.55773C1.19748 4.35456 1.08334 4.07901 1.08334 3.79169V2.16668C1.08334 1.87936 1.19748 1.60381 1.40064 1.40064C1.60381 1.19748 1.87936 1.08334 2.16668 1.08334H3.79169C4.07901 1.08334 4.35456 1.19748 4.55773 1.40064C4.76089 1.60381 4.87503 1.87936 4.87503 2.16668V3.79169Z" />
  <path d="M10.8333 0H9.20832C8.63368 0 8.08258 0.228275 7.67625 0.634606C7.26991 1.04094 7.04164 1.59204 7.04164 2.16668V3.79169C7.04164 4.36633 7.26991 4.91743 7.67625 5.32377C8.08258 5.7301 8.63368 5.95837 9.20832 5.95837H10.8333C11.408 5.95837 11.9591 5.7301 12.3654 5.32377C12.7717 4.91743 13 4.36633 13 3.79169V2.16668C13 1.59204 12.7717 1.04094 12.3654 0.634606C11.9591 0.228275 11.408 0 10.8333 0ZM11.9167 3.79169C11.9167 4.07901 11.8025 4.35456 11.5994 4.55773C11.3962 4.76089 11.1206 4.87503 10.8333 4.87503H9.20832C8.921 4.87503 8.64545 4.76089 8.44228 4.55773C8.23912 4.35456 8.12498 4.07901 8.12498 3.79169V2.16668C8.12498 1.87936 8.23912 1.60381 8.44228 1.40064C8.64545 1.19748 8.921 1.08334 9.20832 1.08334H10.8333C11.1206 1.08334 11.3962 1.19748 11.5994 1.40064C11.8025 1.60381 11.9167 1.87936 11.9167 2.16668V3.79169Z" />
  <path d="M3.79169 7.04171H2.16668C1.59204 7.04171 1.04094 7.26998 0.634606 7.67631C0.228275 8.08265 0 8.63375 0 9.20839V10.8334C0 11.408 0.228275 11.9591 0.634606 12.3655C1.04094 12.7718 1.59204 13.0001 2.16668 13.0001H3.79169C4.36633 13.0001 4.91743 12.7718 5.32376 12.3655C5.73009 11.9591 5.95837 11.408 5.95837 10.8334V9.20839C5.95837 8.63375 5.73009 8.08265 5.32376 7.67631C4.91743 7.26998 4.36633 7.04171 3.79169 7.04171ZM4.87503 10.8334C4.87503 11.1207 4.76089 11.3963 4.55773 11.5994C4.35456 11.8026 4.07901 11.9167 3.79169 11.9167H2.16668C1.87936 11.9167 1.60381 11.8026 1.40064 11.5994C1.19748 11.3963 1.08334 11.1207 1.08334 10.8334V9.20839C1.08334 8.92107 1.19748 8.64552 1.40064 8.44235C1.60381 8.23919 1.87936 8.12505 2.16668 8.12505H3.79169C4.07901 8.12505 4.35456 8.23919 4.55773 8.44235C4.76089 8.64552 4.87503 8.92107 4.87503 9.20839V10.8334Z" />
  <path d="M10.8333 7.04171H9.20832C8.63368 7.04171 8.08258 7.26998 7.67625 7.67631C7.26991 8.08265 7.04164 8.63375 7.04164 9.20839V10.8334C7.04164 11.408 7.26991 11.9591 7.67625 12.3655C8.08258 12.7718 8.63368 13.0001 9.20832 13.0001H10.8333C11.408 13.0001 11.9591 12.7718 12.3654 12.3655C12.7717 11.9591 13 11.408 13 10.8334V9.20839C13 8.63375 12.7717 8.08265 12.3654 7.67631C11.9591 7.26998 11.408 7.04171 10.8333 7.04171ZM11.9167 10.8334C11.9167 11.1207 11.8025 11.3963 11.5994 11.5994C11.3962 11.8026 11.1206 11.9167 10.8333 11.9167H9.20832C8.921 11.9167 8.64545 11.8026 8.44228 11.5994C8.23912 11.3963 8.12498 11.1207 8.12498 10.8334V9.20839C8.12498 8.92107 8.23912 8.64552 8.44228 8.44235C8.64545 8.23919 8.921 8.12505 9.20832 8.12505H10.8333C11.1206 8.12505 11.3962 8.23919 11.5994 8.44235C11.8025 8.64552 11.9167 8.92107 11.9167 9.20839V10.8334Z" />
</svg>