<svg width="15" height="15" viewBox="0 0 15 15" fill="none" xmlns="http://www.w3.org/2000/svg">
<path d="M14.5711 2.05063C14.3504 1.82959 13.9924 1.82921 13.7717 2.0497L6.98971 8.81382L4.54277 6.15621C4.33134 5.9267 3.97386 5.91182 3.74396 6.12322C3.51425 6.33466 3.49954 6.69231 3.71098 6.92203L6.55646 10.0123C6.66067 10.1256 6.80651 10.1913 6.96029 10.1945C6.96442 10.1947 6.96841 10.1947 6.97236 10.1947C7.12181 10.1947 7.26557 10.1353 7.37147 10.0298L14.57 2.85018C14.7912 2.62972 14.7916 2.27168 14.5711 2.05063Z"/>
<path d="M14.4347 6.93466C14.1224 6.93466 13.8693 7.18772 13.8693 7.5C13.8693 11.0122 11.0122 13.8693 7.5 13.8693C3.98801 13.8693 1.13065 11.0122 1.13065 7.5C1.13065 3.98801 3.98801 1.13065 7.5 1.13065C7.81225 1.13065 8.06534 0.877588 8.06534 0.565342C8.06534 0.253066 7.81225 0 7.5 0C3.36445 0 0 3.36445 0 7.5C0 11.6354 3.36445 15 7.5 15C11.6354 15 15 11.6354 15 7.5C15 7.18775 14.7469 6.93466 14.4347 6.93466Z"/>
</svg>
