<svg width="10" height="13" viewBox="0 0 10 13" fill="none" xmlns="http://www.w3.org/2000/svg">
<path fill-rule="evenodd" clip-rule="evenodd" d="M7.27286 2.13628H9.45457C9.59923 2.13628 9.73796 2.19375 9.84024 2.29603C9.94253 2.39832 10 2.53705 10 2.68171C10 2.82636 9.94253 2.9651 9.84024 3.06738C9.73796 3.16967 9.59923 3.22713 9.45457 3.22713H0.727739C0.583083 3.22713 0.444351 3.16967 0.342064 3.06738C0.239776 2.9651 0.182312 2.82636 0.182312 2.68171C0.182312 2.53705 0.239776 2.39832 0.342064 2.29603C0.444351 2.19375 0.583083 2.13628 0.727739 2.13628H2.90945V1.04543C2.90945 0.900771 2.96691 0.762039 3.0692 0.659752C3.17149 0.557464 3.31022 0.5 3.45487 0.5H6.72743C6.87209 0.5 7.01082 0.557464 7.11311 0.659752C7.2154 0.762039 7.27286 0.900771 7.27286 1.04543V2.13628ZM4.0003 1.59085V2.13628H6.18201V1.59085H4.0003Z"/>
<path d="M8.52347 3.93231C8.62575 3.83003 8.76449 3.77256 8.90914 3.77256C9.0538 3.77256 9.19253 3.83003 9.29482 3.93231C9.39711 4.0346 9.45457 4.17333 9.45457 4.31799V10.4219C9.439 10.987 9.20008 11.523 8.79014 11.9124C8.3802 12.3018 7.83265 12.5129 7.26741 12.4994H2.9149C2.34966 12.5129 1.80211 12.3018 1.39217 11.9124C0.982225 11.523 0.743307 10.987 0.727738 10.4219V4.31799C0.727738 4.17333 0.785203 4.0346 0.88749 3.93231C0.989778 3.83003 1.12851 3.77256 1.27317 3.77256C1.41782 3.77256 1.55655 3.83003 1.65884 3.93231C1.76113 4.0346 1.81859 4.17333 1.81859 4.31799V10.4219C1.83424 10.6977 1.95824 10.9561 2.16358 11.1409C2.36892 11.3257 2.63897 11.4219 2.9149 11.4085H7.26741C7.54334 11.4219 7.81339 11.3257 8.01873 11.1409C8.22407 10.9561 8.34807 10.6977 8.36372 10.4219V4.31799C8.36372 4.17333 8.42118 4.0346 8.52347 3.93231Z"/>
<path d="M4.54573 9.22683V5.40884C4.54573 5.26419 4.48826 5.12545 4.38598 5.02317C4.28369 4.92088 4.14496 4.86341 4.0003 4.86341C3.85564 4.86341 3.71691 4.92088 3.61463 5.02317C3.51234 5.12545 3.45487 5.26419 3.45487 5.40884V9.22683C3.45487 9.37149 3.51234 9.51022 3.61463 9.6125C3.71691 9.71479 3.85564 9.77226 4.0003 9.77226C4.14496 9.77226 4.28369 9.71479 4.38598 9.6125C4.48826 9.51022 4.54573 9.37149 4.54573 9.22683Z"/>
<path d="M6.72744 5.40884V9.22683C6.72744 9.37149 6.66997 9.51022 6.56768 9.6125C6.4654 9.71479 6.32667 9.77226 6.18201 9.77226C6.03735 9.77226 5.89862 9.71479 5.79633 9.6125C5.69405 9.51022 5.63658 9.37149 5.63658 9.22683V5.40884C5.63658 5.26419 5.69405 5.12545 5.79633 5.02317C5.89862 4.92088 6.03735 4.86341 6.18201 4.86341C6.32667 4.86341 6.4654 4.92088 6.56768 5.02317C6.66997 5.12545 6.72744 5.26419 6.72744 5.40884Z"/>
</svg>
