<svg width="15" height="15" viewBox="0 0 15 15" fill="none" xmlns="http://www.w3.org/2000/svg">
<path fill-rule="evenodd" clip-rule="evenodd" d="M14.4359 10.3537C14.7994 9.47356 15 8.50976 15 7.5C15 7.47775 14.9987 7.45581 14.9962 7.43423C14.9797 5.53563 14.2487 3.64215 12.8033 2.1967C11.358 0.751405 9.46466 0.0204334 7.56617 0.00383024C7.54446 0.00130055 7.52238 0 7.5 0C6.4811 0 5.50901 0.204225 4.62251 0.573892C3.73978 0.939271 2.91319 1.48021 2.1967 2.1967C1.4827 2.91069 0.943042 3.73404 0.577722 4.61334C0.205636 5.50231 0 6.47759 0 7.5C0 8.5186 0.204122 9.49043 0.573611 10.3767C0.938989 11.2598 1.48002 12.0866 2.1967 12.8033C2.21253 12.8191 2.22907 12.8338 2.24621 12.8474C3.60036 14.1781 5.456 15 7.5 15C9.54379 15 11.3993 14.1782 12.7535 12.8476C12.7707 12.834 12.7874 12.8192 12.8033 12.8033C13.5262 12.0804 14.0705 11.2453 14.4359 10.3537ZM13.3754 9.95953C14.3402 7.6464 13.883 4.87536 12.0038 2.99619C10.1331 1.12549 7.37883 0.663983 5.07215 1.61148C3.50536 2.25988 2.25151 3.51616 1.60634 5.08461C0.974395 6.63236 0.975977 8.38023 1.61108 9.92698C2.56733 12.2388 4.84686 13.8693 7.5 13.8693C10.1408 13.8693 12.4113 12.254 13.3754 9.95953Z"/>
</svg>
